Monoto-Light.ufo
<glyph name="exclam" format="2">
  <advance width="500"/>
  <unicode hex="0021"/>
  <outline>
    <contour>
      <point x="239" y="174" type="line"/>
      <point x="263" y="174" type="line"/>
      <point x="265" y="714" type="line"/>
      <point x="237" y="714" type="line"/>
    </contour>
    <contour>
      <point x="249" y="-12" type="curve" smooth="yes"/>
      <point x="276" y="-12"/>
      <point x="279" y="4"/>
      <point x="279" y="23" type="curve" smooth="yes"/>
      <point x="279" y="41"/>
      <point x="276" y="58"/>
      <point x="249" y="58" type="curve" smooth="yes"/>
      <point x="227" y="58"/>
      <point x="221" y="41"/>
      <point x="221" y="23" type="curve" smooth="yes"/>
      <point x="221" y="4"/>
      <point x="227" y="-12"/>
    </contour>
  </outline>
</glyph>
<glyph name="percent" format="2">
  <advance width="500"/>
  <unicode hex="0025"/>
  <outline>
    <contour>
      <point x="36" y="168" type="line"/>
      <point x="71" y="168" type="line"/>
      <point x="458" y="545" type="line"/>
      <point x="423" y="545" type="line"/>
    </contour>
    <contour>
      <point x="363" y="-9" type="curve" smooth="yes"/>
      <point x="456" y="-9"/>
      <point x="500" y="63"/>
      <point x="500" y="163" type="curve" smooth="yes"/>
      <point x="500" y="258"/>
      <point x="456" y="330"/>
      <point x="363" y="330" type="curve" smooth="yes"/>
      <point x="268" y="330"/>
      <point x="224" y="258"/>
      <point x="224" y="163" type="curve" smooth="yes"/>
      <point x="224" y="63"/>
      <point x="268" y="-9"/>
    </contour>
    <contour>
      <point x="363" y="15" type="curve" smooth="yes"/>
      <point x="285" y="15"/>
      <point x="250" y="78"/>
      <point x="250" y="163" type="curve" smooth="yes"/>
      <point x="250" y="246"/>
      <point x="285" y="306"/>
      <point x="363" y="306" type="curve" smooth="yes"/>
      <point x="439" y="306"/>
      <point x="474" y="244"/>
      <point x="474" y="163" type="curve" smooth="yes"/>
      <point x="474" y="77"/>
      <point x="438" y="15"/>
    </contour>
    <contour>
      <point x="139" y="383" type="curve" smooth="yes"/>
      <point x="232" y="383"/>
      <point x="276" y="455"/>
      <point x="276" y="555" type="curve" smooth="yes"/>
      <point x="276" y="650"/>
      <point x="232" y="722"/>
      <point x="139" y="722" type="curve" smooth="yes"/>
      <point x="44" y="722"/>
      <point x="0" y="650"/>
      <point x="0" y="555" type="curve" smooth="yes"/>
      <point x="0" y="455"/>
      <point x="44" y="383"/>
    </contour>
    <contour>
      <point x="139" y="407" type="curve" smooth="yes"/>
      <point x="61" y="407"/>
      <point x="26" y="470"/>
      <point x="26" y="555" type="curve" smooth="yes"/>
      <point x="26" y="638"/>
      <point x="61" y="698"/>
      <point x="139" y="698" type="curve" smooth="yes"/>
      <point x="215" y="698"/>
      <point x="250" y="636"/>
      <point x="250" y="555" type="curve" smooth="yes"/>
      <point x="250" y="469"/>
      <point x="214" y="407"/>
    </contour>
  </outline>
</glyph>
<glyph name="quotesingle" format="2">
  <advance width="500"/>
  <unicode hex="0027"/>
  <outline>
    <contour>
      <point x="240" y="456" type="line"/>
      <point x="260" y="456" type="line"/>
      <point x="264" y="714" type="line"/>
      <point x="236" y="714" type="line"/>
    </contour>
  </outline>
</glyph>
<glyph name="parenleft" format="2">
  <advance width="500"/>
  <unicode hex="0028"/>
  <outline>
    <contour>
      <point x="327" y="-158" type="curve"/>
      <point x="356" y="-158" type="line"/>
      <point x="255" y="-39"/>
      <point x="209" y="109"/>
      <point x="209" y="275" type="curve" smooth="yes"/>
      <point x="209" y="443"/>
      <point x="253" y="596"/>
      <point x="356" y="714" type="curve"/>
      <point x="327" y="714" type="line"/>
      <point x="236" y="606"/>
      <point x="182" y="451"/>
      <point x="182" y="274" type="curve" smooth="yes"/>
      <point x="182" y="99"/>
      <point x="236" y="-46"/>
    </contour>
  </outline>
</glyph>
<glyph name="asterisk" format="2">
  <advance width="500"/>
  <unicode hex="002A"/>
  <outline>
    <contour>
      <point x="341" y="431" type="line"/>
      <point x="360" y="446" type="line"/>
      <point x="257" y="578" type="line"/>
      <point x="409" y="627" type="line"/>
      <point x="402" y="650" type="line"/>
      <point x="252" y="594" type="line"/>
      <point x="256" y="759" type="line"/>
      <point x="231" y="759" type="line"/>
      <point x="235" y="594" type="line"/>
      <point x="83" y="649" type="line"/>
      <point x="75" y="627" type="line"/>
      <point x="230" y="578" type="line"/>
      <point x="125" y="445" type="line"/>
      <point x="145" y="431" type="line"/>
      <point x="243" y="568" type="line"/>
    </contour>
  </outline>
</glyph>
<glyph name="plus" format="2">
  <advance width="500"/>
  <unicode hex="002B"/>
  <outline>
    <contour>
      <point x="231" y="123" type="line"/>
      <point x="255" y="123" type="line"/>
      <point x="255" y="340" type="line"/>
      <point x="442" y="340" type="line"/>
      <point x="442" y="364" type="line"/>
      <point x="255" y="364" type="line"/>
      <point x="255" y="583" type="line"/>
      <point x="231" y="583" type="line"/>
      <point x="231" y="364" type="line"/>
      <point x="42" y="364" type="line"/>
      <point x="42" y="340" type="line"/>
      <point x="231" y="340" type="line"/>
    </contour>
  </outline>
</glyph>
<glyph name="zero" format="2">
  <advance width="500"/>
  <unicode hex="0030"/>
  <outline>
    <contour>
      <point x="252" y="-8" type="curve" smooth="yes"/>
      <point x="380" y="-8"/>
      <point x="436" y="130"/>
      <point x="436" y="359" type="curve" smooth="yes"/>
      <point x="436" y="571"/>
      <point x="390" y="725"/>
      <point x="253" y="725" type="curve" smooth="yes"/>
      <point x="113" y="725"/>
      <point x="64" y="572"/>
      <point x="64" y="358" type="curve" smooth="yes"/>
      <point x="64" y="126"/>
      <point x="130" y="-8"/>
    </contour>
    <contour>
      <point x="116" y="84" type="line"/>
      <point x="405" y="579" type="line"/>
      <point x="388" y="599" type="line"/>
      <point x="108" y="118" type="line"/>
    </contour>
    <contour>
      <point x="253" y="17" type="curve" smooth="yes"/>
      <point x="143" y="17"/>
      <point x="91" y="141"/>
      <point x="91" y="359" type="curve" smooth="yes"/>
      <point x="91" y="558"/>
      <point x="132" y="700"/>
      <point x="253" y="700" type="curve" smooth="yes"/>
      <point x="374" y="700"/>
      <point x="409" y="559"/>
      <point x="409" y="359" type="curve" smooth="yes"/>
      <point x="409" y="144"/>
      <point x="366" y="17"/>
    </contour>
  </outline>
</glyph>
<glyph name="four" format="2">
  <advance width="500"/>
  <unicode hex="0034"/>
  <outline>
    <contour>
      <point x="336" y="0" type="line"/>
      <point x="362" y="0" type="line"/>
      <point x="362" y="185" type="line"/>
      <point x="450" y="185" type="line"/>
      <point x="450" y="210" type="line"/>
      <point x="362" y="210" type="line"/>
      <point x="362" y="718" type="line"/>
      <point x="329" y="718" type="line"/>
      <point x="50" y="207" type="line"/>
      <point x="50" y="185" type="line"/>
      <point x="336" y="185" type="line"/>
    </contour>
    <contour>
      <point x="80" y="210" type="line"/>
      <point x="282" y="582" type="line" smooth="yes"/>
      <point x="302" y="619"/>
      <point x="317" y="646"/>
      <point x="336" y="682" type="curve"/>
      <point x="337" y="682" type="line"/>
      <point x="336" y="645"/>
      <point x="336" y="626"/>
      <point x="336" y="571" type="curve" smooth="yes"/>
      <point x="336" y="210" type="line"/>
    </contour>
  </outline>
</glyph>
<glyph name="eight" format="2">
  <advance width="500"/>
  <unicode hex="0038"/>
  <outline>
    <contour>
      <point x="247" y="-10" type="curve" smooth="yes"/>
      <point x="361" y="-10"/>
      <point x="440" y="65"/>
      <point x="440" y="177" type="curve" smooth="yes"/>
      <point x="440" y="276"/>
      <point x="377" y="330"/>
      <point x="275" y="380" type="curve"/>
      <point x="360" y="422"/>
      <point x="420" y="470"/>
      <point x="420" y="563" type="curve" smooth="yes"/>
      <point x="420" y="661"/>
      <point x="355" y="724"/>
      <point x="251" y="724" type="curve" smooth="yes"/>
      <point x="147" y="724"/>
      <point x="80" y="659"/>
      <point x="80" y="563" type="curve" smooth="yes"/>
      <point x="80" y="471"/>
      <point x="141" y="421"/>
      <point x="222" y="380" type="curve"/>
      <point x="128" y="339"/>
      <point x="60" y="280"/>
      <point x="60" y="173" type="curve" smooth="yes"/>
      <point x="60" y="66"/>
      <point x="136" y="-10"/>
    </contour>
    <contour>
      <point x="248" y="15" type="curve" smooth="yes"/>
      <point x="153" y="15"/>
      <point x="87" y="75"/>
      <point x="87" y="172" type="curve" smooth="yes"/>
      <point x="87" y="275"/>
      <point x="158" y="327"/>
      <point x="248" y="367" type="curve"/>
      <point x="366" y="311"/>
      <point x="412" y="262"/>
      <point x="412" y="176" type="curve" smooth="yes"/>
      <point x="412" y="78"/>
      <point x="346" y="15"/>
    </contour>
    <contour>
      <point x="250" y="393" type="curve"/>
      <point x="158" y="436"/>
      <point x="107" y="482"/>
      <point x="107" y="563" type="curve" smooth="yes"/>
      <point x="107" y="647"/>
      <point x="165" y="698"/>
      <point x="251" y="698" type="curve" smooth="yes"/>
      <point x="339" y="698"/>
      <point x="393" y="650"/>
      <point x="393" y="563" type="curve" smooth="yes"/>
      <point x="393" y="477"/>
      <point x="332" y="433"/>
    </contour>
  </outline>
</glyph>
<glyph name="semicolon" format="2">
  <advance width="500"/>
  <unicode hex="003B"/>
  <outline>
    <contour>
      <point x="188" y="-129" type="curve"/>
      <point x="210" y="-129" type="line"/>
      <point x="238" y="-59"/>
      <point x="260" y="28"/>
      <point x="273" y="96" type="curve"/>
      <point x="270" y="109" type="line"/>
      <point x="242" y="109" type="line"/>
      <point x="231" y="31"/>
      <point x="220" y="-23"/>
    </contour>
    <contour>
      <point x="253" y="466" type="curve" smooth="yes"/>
      <point x="274" y="466"/>
      <point x="279" y="479"/>
      <point x="279" y="499" type="curve" smooth="yes"/>
      <point x="279" y="519"/>
      <point x="274" y="532"/>
      <point x="253" y="532" type="curve" smooth="yes"/>
      <point x="233" y="532"/>
      <point x="228" y="517"/>
      <point x="228" y="499" type="curve" smooth="yes"/>
      <point x="228" y="480"/>
      <point x="233" y="466"/>
    </contour>
  </outline>
</glyph>
<glyph name="greater" format="2">
  <advance width="500"/>
  <unicode hex="003E"/>
  <outline>
    <contour>
      <point x="50" y="143" type="line"/>
      <point x="449" y="354" type="line"/>
      <point x="449" y="374" type="line"/>
      <point x="50" y="572" type="line"/>
      <point x="50" y="545" type="line"/>
      <point x="418" y="364" type="line"/>
      <point x="50" y="170" type="line"/>
    </contour>
  </outline>
</glyph>
<glyph name="question" format="2">
  <advance width="500"/>
  <unicode hex="003F"/>
  <outline>
    <contour>
      <point x="197" y="174" type="line"/>
      <point x="221" y="174" type="line"/>
      <point x="221" y="189" type="line" smooth="yes"/>
      <point x="221" y="268"/>
      <point x="234" y="304"/>
      <point x="284" y="357" type="curve"/>
      <point x="343" y="413"/>
      <point x="389" y="461"/>
      <point x="389" y="560" type="curve" smooth="yes"/>
      <point x="389" y="671"/>
      <point x="327" y="724"/>
      <point x="234" y="724" type="curve" smooth="yes"/>
      <point x="187" y="724"/>
      <point x="150" y="713"/>
      <point x="110" y="692" type="curve"/>
      <point x="121" y="669" type="line"/>
      <point x="157" y="689"/>
      <point x="193" y="699"/>
      <point x="233" y="699" type="curve" smooth="yes"/>
      <point x="311" y="699"/>
      <point x="362" y="656"/>
      <point x="362" y="561" type="curve" smooth="yes"/>
      <point x="362" y="473"/>
      <point x="324" y="430"/>
      <point x="266" y="372" type="curve" smooth="yes"/>
      <point x="210" y="316"/>
      <point x="197" y="280"/>
      <point x="197" y="190" type="curve" smooth="yes"/>
    </contour>
    <contour>
      <point x="207" y="-12" type="curve" smooth="yes"/>
      <point x="231" y="-12"/>
      <point x="237" y="2"/>
      <point x="237" y="23" type="curve" smooth="yes"/>
      <point x="237" y="43"/>
      <point x="231" y="58"/>
      <point x="207" y="58" type="curve" smooth="yes"/>
      <point x="185" y="58"/>
      <point x="179" y="41"/>
      <point x="179" y="22" type="curve" smooth="yes"/>
      <point x="179" y="3"/>
      <point x="185" y="-12"/>
    </contour>
  </outline>
</glyph>
<glyph name="B" format="2">
  <advance width="500"/>
  <unicode hex="0042"/>
  <anchor x="250" y="0" name="bottom"/>
  <anchor x="250" y="714" name="top"/>
  <anchor x="480" y="714" name="topright"/>
  <outline>
    <contour>
      <point x="95" y="0" type="line"/>
      <point x="245" y="0" type="line" smooth="yes"/>
      <point x="372" y="0"/>
      <point x="455" y="66"/>
      <point x="455" y="200" type="curve" smooth="yes"/>
      <point x="455" y="293"/>
      <point x="417" y="357"/>
      <point x="317" y="376" type="curve"/>
      <point x="317" y="377" type="line"/>
      <point x="396" y="392"/>
      <point x="439" y="460"/>
      <point x="439" y="546" type="curve" smooth="yes"/>
      <point x="439" y="658"/>
      <point x="378" y="714"/>
      <point x="237" y="714" type="curve" smooth="yes"/>
      <point x="95" y="714" type="line"/>
    </contour>
    <contour>
      <point x="121" y="25" type="line"/>
      <point x="121" y="363" type="line"/>
      <point x="238" y="363" type="line" smooth="yes"/>
      <point x="353" y="363"/>
      <point x="428" y="324"/>
      <point x="428" y="200" type="curve" smooth="yes"/>
      <point x="428" y="80"/>
      <point x="359" y="25"/>
      <point x="245" y="25" type="curve" smooth="yes"/>
    </contour>
    <contour>
      <point x="121" y="388" type="line"/>
      <point x="121" y="689" type="line"/>
      <point x="228" y="689" type="line" smooth="yes"/>
      <point x="361" y="689"/>
      <point x="412" y="645"/>
      <point x="412" y="546" type="curve" smooth="yes"/>
      <point x="412" y="441"/>
      <point x="354" y="388"/>
      <point x="238" y="388" type="curve" smooth="yes"/>
    </contour>
  </outline>
</glyph>
<glyph name="K" format="2">
  <advance width="500"/>
  <unicode hex="004B"/>
  <anchor x="250" y="0" name="bottom"/>
  <anchor x="250" y="714" name="top"/>
  <anchor x="480" y="714" name="topright"/>
  <outline>
    <contour>
      <point x="65" y="0" type="line"/>
      <point x="91" y="0" type="line"/>
      <point x="91" y="283" type="line"/>
      <point x="181" y="389" type="line"/>
      <point x="408" y="0" type="line"/>
      <point x="438" y="0" type="line"/>
      <point x="202" y="410" type="line"/>
      <point x="440" y="714" type="line"/>
      <point x="407" y="714" type="line"/>
      <point x="153" y="395" type="line" smooth="yes"/>
      <point x="127" y="363"/>
      <point x="112" y="346"/>
      <point x="91" y="321" type="curve"/>
      <point x="91" y="714" type="line"/>
      <point x="65" y="714" type="line"/>
    </contour>
  </outline>
</glyph>
<glyph name="L" format="2">
  <advance width="500"/>
  <unicode hex="004C"/>
  <anchor x="260" y="0" name="bottom"/>
  <anchor x="250" y="357" name="center"/>
  <anchor x="104" y="714" name="top"/>
  <anchor x="363" y="714" name="topright"/>
  <outline>
    <contour>
      <point x="92" y="0" type="line"/>
      <point x="405" y="0" type="line"/>
      <point x="405" y="25" type="line"/>
      <point x="118" y="25" type="line"/>
      <point x="118" y="714" type="line"/>
      <point x="92" y="714" type="line"/>
    </contour>
  </outline>
</glyph>
<glyph name="O" format="2">
  <advance width="500"/>
  <unicode hex="004F"/>
  <anchor x="250" y="0" name="bottom"/>
  <anchor x="250" y="357" name="center"/>
  <anchor x="251" y="10" name="ogonek"/>
  <anchor x="250" y="714" name="top"/>
  <anchor x="20" y="714" name="topleft"/>
  <anchor x="500" y="714" name="topright"/>
  <outline>
    <contour>
      <point x="251" y="-10" type="curve" smooth="yes"/>
      <point x="409" y="-10"/>
      <point x="450" y="165"/>
      <point x="450" y="358" type="curve" smooth="yes"/>
      <point x="450" y="570"/>
      <point x="397" y="724"/>
      <point x="251" y="724" type="curve" smooth="yes"/>
      <point x="121" y="724"/>
      <point x="50" y="602"/>
      <point x="50" y="358" type="curve" smooth="yes"/>
      <point x="50" y="173"/>
      <point x="93" y="-10"/>
    </contour>
    <contour>
      <point x="251" y="15" type="curve" smooth="yes"/>
      <point x="138" y="15"/>
      <point x="76" y="141"/>
      <point x="76" y="358" type="curve" smooth="yes"/>
      <point x="76" y="574"/>
      <point x="132" y="699"/>
      <point x="251" y="699" type="curve" smooth="yes"/>
      <point x="367" y="699"/>
      <point x="424" y="577"/>
      <point x="424" y="358" type="curve" smooth="yes"/>
      <point x="424" y="135"/>
      <point x="367" y="15"/>
    </contour>
  </outline>
</glyph>
<glyph name="T" format="2">
  <advance width="500"/>
  <unicode hex="0054"/>
  <anchor x="250" y="0" name="bottom"/>
  <anchor x="250" y="357" name="center"/>
  <anchor x="250" y="714" name="top"/>
  <anchor x="480" y="714" name="topright"/>
  <outline>
    <contour>
      <point x="236" y="0" type="line"/>
      <point x="262" y="0" type="line"/>
      <point x="262" y="689" type="line"/>
      <point x="455" y="689" type="line"/>
      <point x="455" y="714" type="line"/>
      <point x="45" y="714" type="line"/>
      <point x="45" y="689" type="line"/>
      <point x="236" y="689" type="line"/>
    </contour>
  </outline>
</glyph>
<glyph name="Y" format="2">
  <advance width="500"/>
  <unicode hex="0059"/>
  <anchor x="250" y="0" name="bottom"/>
  <anchor x="250" y="714" name="top"/>
  <anchor x="20" y="714" name="topleft"/>
  <anchor x="480" y="714" name="topright"/>
  <outline>
    <contour>
      <point x="238" y="0" type="line"/>
      <point x="264" y="0" type="line"/>
      <point x="264" y="277" type="line"/>
      <point x="465" y="714" type="line"/>
      <point x="437" y="714" type="line"/>
      <point x="251" y="305" type="line"/>
      <point x="62" y="714" type="line"/>
      <point x="35" y="714" type="line"/>
      <point x="238" y="275" type="line"/>
    </contour>
  </outline>
</glyph>
<glyph name="Z" format="2">
  <advance width="500"/>
  <unicode hex="005A"/>
  <anchor x="277" y="0" name="bottom"/>
  <anchor x="265" y="714" name="top"/>
  <anchor x="480" y="714" name="topright"/>
  <outline>
    <contour>
      <point x="95" y="0" type="line"/>
      <point x="431" y="0" type="line"/>
      <point x="431" y="25" type="line"/>
      <point x="125" y="25" type="line"/>
      <point x="421" y="693" type="line"/>
      <point x="421" y="714" type="line"/>
      <point x="115" y="714" type="line"/>
      <point x="115" y="689" type="line"/>
      <point x="392" y="689" type="line"/>
      <point x="95" y="21" type="line"/>
    </contour>
  </outline>
</glyph>
<glyph name="bracketleft" format="2">
  <advance width="500"/>
  <unicode hex="005B"/>
  <outline>
    <contour>
      <point x="206" y="-158" type="line"/>
      <point x="399" y="-158" type="line"/>
      <point x="399" y="-134" type="line"/>
      <point x="231" y="-134" type="line"/>
      <point x="231" y="690" type="line"/>
      <point x="399" y="690" type="line"/>
      <point x="399" y="714" type="line"/>
      <point x="206" y="714" type="line"/>
    </contour>
  </outline>
</glyph>
<glyph name="grave" format="2">
  <advance width="500"/>
  <unicode hex="0060"/>
  <outline>
    <contour>
      <point x="294" y="606" type="curve"/>
      <point x="313" y="606" type="line"/>
      <point x="313" y="615" type="line"/>
      <point x="271" y="658"/>
      <point x="218" y="716"/>
      <point x="186" y="765" type="curve"/>
      <point x="156" y="765" type="line"/>
      <point x="156" y="758" type="line"/>
      <point x="190" y="710"/>
      <point x="249" y="647"/>
    </contour>
  </outline>
</glyph>
<glyph name="a" format="2">
  <advance width="500"/>
  <unicode hex="0061"/>
  <anchor x="252" y="0" name="bottom"/>
  <anchor x="450" y="10" name="ogonek"/>
  <anchor x="254" y="528" name="top"/>
  <anchor x="480" y="528" name="topright"/>
  <outline>
    <contour>
      <point x="220" y="-10" type="curve" smooth="yes"/>
      <point x="312" y="-10"/>
      <point x="354" y="43"/>
      <point x="374" y="98" type="curve"/>
      <point x="376" y="98" type="line"/>
      <point x="378" y="0" type="line"/>
      <point x="400" y="0" type="line"/>
      <point x="400" y="354" type="line" smooth="yes"/>
      <point x="400" y="485"/>
      <point x="354" y="537"/>
      <point x="258" y="537" type="curve" smooth="yes"/>
      <point x="211" y="537"/>
      <point x="164" y="524"/>
      <point x="122" y="502" type="curve"/>
      <point x="132" y="478" type="line"/>
      <point x="179" y="503"/>
      <point x="219" y="512"/>
      <point x="258" y="512" type="curve" smooth="yes"/>
      <point x="338" y="512"/>
      <point x="374" y="469"/>
      <point x="374" y="349" type="curve" smooth="yes"/>
      <point x="374" y="302" type="line"/>
      <point x="292" y="295" type="line" smooth="yes"/>
      <point x="158" y="284"/>
      <point x="80" y="234"/>
      <point x="80" y="129" type="curve" smooth="yes"/>
      <point x="80" y="51"/>
      <point x="125" y="-10"/>
    </contour>
    <contour>
      <point x="220" y="14" type="curve" smooth="yes"/>
      <point x="148" y="14"/>
      <point x="107" y="56"/>
      <point x="107" y="129" type="curve" smooth="yes"/>
      <point x="107" y="220"/>
      <point x="175" y="263"/>
      <point x="292" y="272" type="curve" smooth="yes"/>
      <point x="374" y="278" type="line"/>
      <point x="374" y="220" type="line" smooth="yes"/>
      <point x="374" y="98"/>
      <point x="328" y="14"/>
    </contour>
  </outline>
</glyph>
<glyph name="c" format="2">
  <advance width="500"/>
  <unicode hex="0063"/>
  <anchor x="297" y="0" name="bottom"/>
  <anchor x="288" y="528" name="top"/>
  <anchor x="480" y="528" name="topright"/>
  <outline>
    <contour>
      <point x="299" y="-10" type="curve" smooth="yes"/>
      <point x="344" y="-10"/>
      <point x="390" y="-1"/>
      <point x="417" y="11" type="curve"/>
      <point x="417" y="37" type="line"/>
      <point x="385" y="23"/>
      <point x="340" y="15"/>
      <point x="301" y="15" type="curve" smooth="yes"/>
      <point x="174" y="15"/>
      <point x="122" y="120"/>
      <point x="122" y="259" type="curve" smooth="yes"/>
      <point x="122" y="418"/>
      <point x="195" y="513"/>
      <point x="313" y="513" type="curve" smooth="yes"/>
      <point x="346" y="513"/>
      <point x="383" y="507"/>
      <point x="412" y="493" type="curve"/>
      <point x="420" y="517" type="line"/>
      <point x="391" y="531"/>
      <point x="354" y="538"/>
      <point x="312" y="538" type="curve" smooth="yes"/>
      <point x="177" y="538"/>
      <point x="95" y="431"/>
      <point x="95" y="259" type="curve" smooth="yes"/>
      <point x="95" y="100"/>
      <point x="158" y="-10"/>
    </contour>
  </outline>
</glyph>
<glyph name="f" format="2">
  <advance width="500"/>
  <unicode hex="0066"/>
  <anchor x="250" y="0" name="bottom"/>
  <anchor x="344" y="763" name="top"/>
  <anchor x="480" y="765" name="topright"/>
  <outline>
    <contour>
      <point x="227" y="0" type="line"/>
      <point x="253" y="0" type="line"/>
      <point x="253" y="503" type="line"/>
      <point x="421" y="503" type="line"/>
      <point x="421" y="528" type="line"/>
      <point x="253" y="528" type="line"/>
      <point x="253" y="601" type="line" smooth="yes"/>
      <point x="253" y="701"/>
      <point x="286" y="741"/>
      <point x="377" y="741" type="curve" smooth="yes"/>
      <point x="398" y="741"/>
      <point x="421" y="737"/>
      <point x="441" y="729" type="curve"/>
      <point x="448" y="753" type="line"/>
      <point x="428" y="760"/>
      <point x="406" y="765"/>
      <point x="378" y="765" type="curve" smooth="yes"/>
      <point x="268" y="765"/>
      <point x="227" y="711"/>
      <point x="227" y="604" type="curve" smooth="yes"/>
      <point x="227" y="528" type="line"/>
      <point x="81" y="524" type="line"/>
      <point x="81" y="503" type="line"/>
      <point x="227" y="503" type="line"/>
    </contour>
  </outline>
</glyph>
<glyph name="h" format="2">
  <advance width="500"/>
  <unicode hex="0068"/>
  <anchor x="250" y="0" name="bottom"/>
  <anchor x="250" y="264" name="center"/>
  <anchor x="96" y="760" name="top"/>
  <anchor x="480" y="760" name="topright"/>
  <outline>
    <contour>
      <point x="85" y="0" type="line"/>
      <point x="111" y="0" type="line"/>
      <point x="111" y="300" type="line" smooth="yes"/>
      <point x="111" y="447"/>
      <point x="180" y="513"/>
      <point x="270" y="513" type="curve" smooth="yes"/>
      <point x="346" y="513"/>
      <point x="394" y="467"/>
      <point x="394" y="353" type="curve" smooth="yes"/>
      <point x="394" y="0" type="line"/>
      <point x="420" y="0" type="line"/>
      <point x="420" y="356" type="line" smooth="yes"/>
      <point x="420" y="479"/>
      <point x="366" y="538"/>
      <point x="271" y="538" type="curve" smooth="yes"/>
      <point x="176" y="538"/>
      <point x="129" y="478"/>
      <point x="111" y="421" type="curve"/>
      <point x="109" y="421" type="line"/>
      <point x="110" y="446"/>
      <point x="111" y="464"/>
      <point x="111" y="494" type="curve" smooth="yes"/>
      <point x="111" y="760" type="line"/>
      <point x="85" y="760" type="line"/>
    </contour>
  </outline>
</glyph>
<glyph name="i" format="2">
  <advance width="500"/>
  <unicode hex="0069"/>
  <anchor x="259" y="0" name="bottom"/>
  <anchor x="258" y="734" name="top"/>
  <anchor x="411" y="734" name="topright"/>
  <outline>
    <contour>
      <point x="82" y="0" type="line"/>
      <point x="432" y="0" type="line"/>
      <point x="432" y="21" type="line"/>
      <point x="275" y="25" type="line"/>
      <point x="275" y="528" type="line"/>
      <point x="100" y="528" type="line"/>
      <point x="100" y="507" type="line"/>
      <point x="249" y="503" type="line"/>
      <point x="249" y="25" type="line"/>
      <point x="82" y="21" type="line"/>
    </contour>
    <contour>
      <point x="259" y="660" type="curve" smooth="yes"/>
      <point x="285" y="660"/>
      <point x="289" y="679"/>
      <point x="289" y="697" type="curve" smooth="yes"/>
      <point x="289" y="716"/>
      <point x="283" y="734"/>
      <point x="259" y="734" type="curve" smooth="yes"/>
      <point x="233" y="734"/>
      <point x="227" y="716"/>
      <point x="227" y="697" type="curve" smooth="yes"/>
      <point x="227" y="677"/>
      <point x="234" y="660"/>
    </contour>
  </outline>
</glyph>
<glyph name="k" format="2">
  <advance width="500"/>
  <unicode hex="006B"/>
  <anchor x="287" y="0" name="bottom"/>
  <anchor x="280" y="760" name="top"/>
  <anchor x="480" y="760" name="topright"/>
  <outline>
    <contour>
      <point x="121" y="0" type="line"/>
      <point x="147" y="0" type="line"/>
      <point x="147" y="185" type="line"/>
      <point x="234" y="286" type="line"/>
      <point x="429" y="0" type="line"/>
      <point x="458" y="0" type="line"/>
      <point x="252" y="305" type="line"/>
      <point x="442" y="528" type="line"/>
      <point x="411" y="528" type="line"/>
      <point x="195" y="277" type="line" smooth="yes"/>
      <point x="179" y="258"/>
      <point x="165" y="239"/>
      <point x="148" y="217" type="curve"/>
      <point x="146" y="217" type="line"/>
      <point x="147" y="272"/>
      <point x="147" y="318"/>
      <point x="147" y="373" type="curve" smooth="yes"/>
      <point x="147" y="760" type="line"/>
      <point x="121" y="760" type="line"/>
    </contour>
  </outline>
</glyph>
<glyph name="q" format="2">
  <advance width="500"/>
  <unicode hex="0071"/>
  <anchor x="240" y="-232" name="bottom"/>
  <anchor x="240" y="528" name="top"/>
  <anchor x="480" y="528" name="topright"/>
  <outline>
    <contour>
      <point x="389" y="-232" type="line"/>
      <point x="415" y="-232" type="line"/>
      <point x="415" y="528" type="line"/>
      <point x="394" y="528" type="line"/>
      <point x="390" y="426" type="line"/>
      <point x="388" y="426" type="line"/>
      <point x="371" y="488"/>
      <point x="323" y="537"/>
      <point x="243" y="537" type="curve" smooth="yes"/>
      <point x="118" y="537"/>
      <point x="60" y="425"/>
      <point x="60" y="261" type="curve" smooth="yes"/>
      <point x="60" y="83"/>
      <point x="121" y="-11"/>
      <point x="233" y="-11" type="curve" smooth="yes"/>
      <point x="315" y="-11"/>
      <point x="368" y="43"/>
      <point x="389" y="116" type="curve"/>
      <point x="391" y="116" type="line"/>
      <point x="390" y="85"/>
      <point x="389" y="40"/>
      <point x="389" y="17" type="curve" smooth="yes"/>
    </contour>
    <contour>
      <point x="233" y="15" type="curve" smooth="yes"/>
      <point x="141" y="15"/>
      <point x="87" y="95"/>
      <point x="87" y="261" type="curve" smooth="yes"/>
      <point x="87" y="420"/>
      <point x="141" y="511"/>
      <point x="243" y="511" type="curve" smooth="yes"/>
      <point x="337" y="511"/>
      <point x="389" y="434"/>
      <point x="389" y="299" type="curve" smooth="yes"/>
      <point x="389" y="239" type="line" smooth="yes"/>
      <point x="389" y="104"/>
      <point x="334" y="15"/>
    </contour>
  </outline>
</glyph>
<glyph name="cent" format="2">
  <advance width="500"/>
  <unicode hex="00A2"/>
  <outline>
    <contour>
      <point x="293" y="-10" type="line"/>
      <point x="318" y="-10" type="line"/>
      <point x="318" y="91" type="line"/>
      <point x="356" y="93"/>
      <point x="388" y="102"/>
      <point x="410" y="111" type="curve"/>
      <point x="410" y="137" type="line"/>
      <point x="380" y="125"/>
      <point x="344" y="117"/>
      <point x="306" y="117" type="curve" smooth="yes"/>
      <point x="179" y="117"/>
      <point x="120" y="213"/>
      <point x="120" y="360" type="curve" smooth="yes"/>
      <point x="120" y="510"/>
      <point x="187" y="613"/>
      <point x="314" y="613" type="curve" smooth="yes"/>
      <point x="343" y="613"/>
      <point x="374" y="607"/>
      <point x="404" y="593" type="curve"/>
      <point x="411" y="617" type="line"/>
      <point x="383" y="630"/>
      <point x="353" y="637"/>
      <point x="315" y="638" type="curve"/>
      <point x="315" y="724" type="line"/>
      <point x="290" y="724" type="line"/>
      <point x="290" y="637" type="line"/>
      <point x="165" y="624"/>
      <point x="94" y="521"/>
      <point x="94" y="360" type="curve" smooth="yes"/>
      <point x="94" y="202"/>
      <point x="156" y="99"/>
      <point x="293" y="91" type="curve"/>
    </contour>
  </outline>
</glyph>
<glyph name="currency" format="2">
  <advance width="500"/>
  <unicode hex="00A4"/>
  <outline>
    <contour>
      <point x="458" y="130" type="line"/>
      <point x="474" y="145" type="line"/>
      <point x="398" y="221" type="line"/>
      <point x="433" y="260"/>
      <point x="447" y="310"/>
      <point x="447" y="354" type="curve" smooth="yes"/>
      <point x="447" y="402"/>
      <point x="431" y="448"/>
      <point x="397" y="486" type="curve"/>
      <point x="473" y="561" type="line"/>
      <point x="458" y="577" type="line"/>
      <point x="381" y="502" type="line"/>
      <point x="343" y="536"/>
      <point x="295" y="551"/>
      <point x="249" y="551" type="curve" smooth="yes"/>
      <point x="201" y="551"/>
      <point x="156" y="535"/>
      <point x="118" y="501" type="curve"/>
      <point x="41" y="578" type="line"/>
      <point x="26" y="562" type="line"/>
      <point x="102" y="485" type="line"/>
      <point x="71" y="450"/>
      <point x="54" y="402"/>
      <point x="54" y="354" type="curve" smooth="yes"/>
      <point x="54" y="307"/>
      <point x="70" y="261"/>
      <point x="102" y="222" type="curve"/>
      <point x="27" y="148" type="line"/>
      <point x="42" y="132" type="line"/>
      <point x="118" y="206" type="line"/>
      <point x="156" y="173"/>
      <point x="203" y="157"/>
      <point x="250" y="157" type="curve" smooth="yes"/>
      <point x="296" y="157"/>
      <point x="345" y="172"/>
      <point x="382" y="205" type="curve"/>
    </contour>
    <contour>
      <point x="250" y="181" type="curve" smooth="yes"/>
      <point x="157" y="181"/>
      <point x="79" y="251"/>
      <point x="79" y="354" type="curve" smooth="yes"/>
      <point x="79" y="457"/>
      <point x="157" y="528"/>
      <point x="250" y="528" type="curve" smooth="yes"/>
      <point x="347" y="528"/>
      <point x="423" y="453"/>
      <point x="423" y="353" type="curve" smooth="yes"/>
      <point x="423" y="255"/>
      <point x="346" y="181"/>
    </contour>
  </outline>
</glyph>
<glyph name="section" format="2">
  <advance width="500"/>
  <unicode hex="00A7"/>
  <outline>
    <contour>
      <point x="225" y="-12" type="curve" smooth="yes"/>
      <point x="339" y="-12"/>
      <point x="399" y="49"/>
      <point x="399" y="132" type="curve" smooth="yes"/>
      <point x="399" y="186"/>
      <point x="374" y="211"/>
      <point x="325" y="237" type="curve"/>
      <point x="374" y="264"/>
      <point x="411" y="307"/>
      <point x="411" y="372" type="curve" smooth="yes"/>
      <point x="411" y="461"/>
      <point x="342" y="489"/>
      <point x="263" y="521" type="curve" smooth="yes"/>
      <point x="181" y="554"/>
      <point x="142" y="593"/>
      <point x="142" y="648" type="curve" smooth="yes"/>
      <point x="142" y="713"/>
      <point x="195" y="743"/>
      <point x="271" y="743" type="curve" smooth="yes"/>
      <point x="320" y="743"/>
      <point x="362" y="730"/>
      <point x="388" y="716" type="curve"/>
      <point x="400" y="738" type="line"/>
      <point x="367" y="754"/>
      <point x="323" y="766"/>
      <point x="273" y="766" type="curve" smooth="yes"/>
      <point x="174" y="766"/>
      <point x="117" y="720"/>
      <point x="117" y="647" type="curve" smooth="yes"/>
      <point x="117" y="586"/>
      <point x="158" y="549"/>
      <point x="211" y="520" type="curve"/>
      <point x="150" y="499"/>
      <point x="102" y="458"/>
      <point x="102" y="387" type="curve" smooth="yes"/>
      <point x="102" y="311"/>
      <point x="157" y="284"/>
      <point x="233" y="252" type="curve" smooth="yes"/>
      <point x="323" y="214"/>
      <point x="373" y="198"/>
      <point x="373" y="131" type="curve" smooth="yes"/>
      <point x="373" y="64"/>
      <point x="324" y="11"/>
      <point x="226" y="11" type="curve" smooth="yes"/>
      <point x="176" y="11"/>
      <point x="126" y="25"/>
      <point x="89" y="45" type="curve"/>
      <point x="89" y="17" type="line"/>
      <point x="119" y="2"/>
      <point x="171" y="-12"/>
    </contour>
    <contour>
      <point x="303" y="249" type="curve"/>
      <point x="245" y="272" type="line" smooth="yes"/>
      <point x="172" y="301"/>
      <point x="127" y="324"/>
      <point x="127" y="389" type="curve" smooth="yes"/>
      <point x="127" y="456"/>
      <point x="176" y="490"/>
      <point x="238" y="507" type="curve"/>
      <point x="336" y="473"/>
      <point x="386" y="437"/>
      <point x="386" y="369" type="curve" smooth="yes"/>
      <point x="386" y="308"/>
      <point x="346" y="268"/>
    </contour>
  </outline>
</glyph>
<glyph name="dieresis" format="2">
  <advance width="500"/>
  <unicode hex="00A8"/>
  <anchor x="250" y="528" name="_top"/>
  <anchor x="250" y="638" name="top"/>
  <outline>
    <contour>
      <point x="329" y="635" type="curve" smooth="yes"/>
      <point x="350" y="635"/>
      <point x="357" y="650"/>
      <point x="357" y="670" type="curve" smooth="yes"/>
      <point x="357" y="690"/>
      <point x="349" y="706"/>
      <point x="329" y="706" type="curve" smooth="yes"/>
      <point x="312" y="706"/>
      <point x="303" y="689"/>
      <point x="303" y="670" type="curve" smooth="yes"/>
      <point x="303" y="652"/>
      <point x="312" y="635"/>
    </contour>
    <contour>
      <point x="169" y="635" type="curve" smooth="yes"/>
      <point x="189" y="635"/>
      <point x="197" y="650"/>
      <point x="197" y="670" type="curve" smooth="yes"/>
      <point x="197" y="689"/>
      <point x="189" y="706"/>
      <point x="169" y="706" type="curve" smooth="yes"/>
      <point x="151" y="706"/>
      <point x="143" y="688"/>
      <point x="143" y="670" type="curve" smooth="yes"/>
      <point x="143" y="652"/>
      <point x="151" y="635"/>
    </contour>
  </outline>
</glyph>
<glyph name="logicalnot" format="2">
  <advance width="500"/>
  <unicode hex="00AC"/>
  <outline>
    <contour>
      <point x="401" y="126" type="line"/>
      <point x="426" y="126" type="line"/>
      <point x="426" y="364" type="line"/>
      <point x="42" y="364" type="line"/>
      <point x="42" y="340" type="line"/>
      <point x="401" y="340" type="line"/>
    </contour>
  </outline>
</glyph>
<glyph name="registered" format="2">
  <advance width="500"/>
  <unicode hex="00AE"/>
  <outline>
    <contour>
      <point x="246" y="147" type="curve" smooth="yes"/>
      <point x="368" y="147"/>
      <point x="464" y="233"/>
      <point x="464" y="360" type="curve" smooth="yes"/>
      <point x="464" y="483"/>
      <point x="374" y="575"/>
      <point x="250" y="575" type="curve" smooth="yes"/>
      <point x="132" y="575"/>
      <point x="35" y="489"/>
      <point x="35" y="359" type="curve" smooth="yes"/>
      <point x="35" y="234"/>
      <point x="125" y="147"/>
    </contour>
    <contour>
      <point x="248" y="171" type="curve" smooth="yes"/>
      <point x="137" y="171"/>
      <point x="60" y="253"/>
      <point x="60" y="361" type="curve" smooth="yes"/>
      <point x="60" y="472"/>
      <point x="143" y="550"/>
      <point x="250" y="550" type="curve" smooth="yes"/>
      <point x="360" y="550"/>
      <point x="439" y="467"/>
      <point x="439" y="360" type="curve" smooth="yes"/>
      <point x="439" y="250"/>
      <point x="357" y="171"/>
    </contour>
    <contour>
      <point x="177" y="224" type="line"/>
      <point x="202" y="224" type="line"/>
      <point x="202" y="339" type="line"/>
      <point x="262" y="339" type="line"/>
      <point x="326" y="224" type="line"/>
      <point x="353" y="224" type="line"/>
      <point x="287" y="343" type="line"/>
      <point x="322" y="353"/>
      <point x="347" y="373"/>
      <point x="347" y="418" type="curve" smooth="yes"/>
      <point x="347" y="472"/>
      <point x="310" y="497"/>
      <point x="258" y="497" type="curve" smooth="yes"/>
      <point x="177" y="497" type="line"/>
    </contour>
    <contour>
      <point x="201" y="361" type="line"/>
      <point x="201" y="476" type="line"/>
      <point x="256" y="476" type="line" smooth="yes"/>
      <point x="296" y="476"/>
      <point x="322" y="460"/>
      <point x="322" y="418" type="curve" smooth="yes"/>
      <point x="322" y="374"/>
      <point x="293" y="361"/>
      <point x="255" y="361" type="curve" smooth="yes"/>
    </contour>
  </outline>
</glyph>
<glyph name="twosuperior" format="2">
  <advance width="500"/>
  <unicode hex="00B2"/>
  <outline>
    <contour>
      <point x="117" y="415" type="line"/>
      <point x="371" y="415" type="line"/>
      <point x="371" y="439" type="line"/>
      <point x="150" y="439" type="line"/>
      <point x="242" y="544" type="line" smooth="yes"/>
      <point x="316" y="629"/>
      <point x="359" y="676"/>
      <point x="359" y="742" type="curve" smooth="yes"/>
      <point x="359" y="807"/>
      <point x="316" y="854"/>
      <point x="241" y="854" type="curve" smooth="yes"/>
      <point x="196" y="854"/>
      <point x="158" y="837"/>
      <point x="126" y="809" type="curve"/>
      <point x="140" y="790" type="line"/>
      <point x="172" y="816"/>
      <point x="203" y="830"/>
      <point x="241" y="830" type="curve" smooth="yes"/>
      <point x="302" y="830"/>
      <point x="333" y="792"/>
      <point x="333" y="742" type="curve" smooth="yes"/>
      <point x="333" y="680"/>
      <point x="286" y="630"/>
      <point x="223" y="558" type="curve" smooth="yes"/>
      <point x="117" y="437" type="line"/>
    </contour>
  </outline>
</glyph>
<glyph name="paragraph" format="2">
  <advance width="500"/>
  <unicode hex="00B6"/>
  <outline>
    <contour>
      <point x="237" y="-127" type="line"/>
      <point x="262" y="-127" type="line"/>
      <point x="262" y="734" type="line"/>
      <point x="375" y="734" type="line"/>
      <point x="375" y="-127" type="line"/>
      <point x="400" y="-127" type="line"/>
      <point x="400" y="760" type="line"/>
      <point x="206" y="760" type="line" smooth="yes"/>
      <point x="107" y="760"/>
      <point x="64" y="684"/>
      <point x="64" y="556" type="curve" smooth="yes"/>
      <point x="64" y="438"/>
      <point x="101" y="346"/>
      <point x="190" y="346" type="curve" smooth="yes"/>
      <point x="206" y="346"/>
      <point x="220" y="349"/>
      <point x="237" y="355" type="curve"/>
    </contour>
  </outline>
</glyph>
<glyph name="divide" format="2">
  <advance width="500"/>
  <unicode hex="00F7"/>
  <outline>
    <contour>
      <point x="50" y="341" type="line"/>
      <point x="450" y="341" type="line"/>
      <point x="450" y="365" type="line"/>
      <point x="50" y="365" type="line"/>
    </contour>
    <contour>
      <point x="250" y="142" type="curve" smooth="yes"/>
      <point x="272" y="142"/>
      <point x="276" y="157"/>
      <point x="276" y="176" type="curve" smooth="yes"/>
      <point x="276" y="193"/>
      <point x="272" y="209"/>
      <point x="250" y="209" type="curve" smooth="yes"/>
      <point x="231" y="209"/>
      <point x="225" y="194"/>
      <point x="225" y="175" type="curve" smooth="yes"/>
      <point x="225" y="158"/>
      <point x="229" y="142"/>
    </contour>
    <contour>
      <point x="250" y="497" type="curve" smooth="yes"/>
      <point x="272" y="497"/>
      <point x="276" y="512"/>
      <point x="276" y="530" type="curve" smooth="yes"/>
      <point x="276" y="548"/>
      <point x="272" y="564"/>
      <point x="250" y="564" type="curve" smooth="yes"/>
      <point x="230" y="564"/>
      <point x="225" y="548"/>
      <point x="225" y="531" type="curve" smooth="yes"/>
      <point x="225" y="512"/>
      <point x="230" y="497"/>
    </contour>
  </outline>
</glyph>
<glyph name="dcaron" format="2">
  <advance width="500"/>
  <unicode hex="010F"/>
  <anchor x="210" y="0" name="bottom"/>
  <anchor x="210" y="264" name="center"/>
  <anchor x="265" y="760" name="top"/>
  <anchor x="440" y="760" name="topright"/>
  <outline>
    <contour>
      <point x="211" y="-10" type="curve" smooth="yes"/>
      <point x="291" y="-10"/>
      <point x="329" y="43"/>
      <point x="349" y="110" type="curve"/>
      <point x="351" y="110" type="line"/>
      <point x="354" y="0" type="line"/>
      <point x="375" y="0" type="line"/>
      <point x="375" y="760" type="line"/>
      <point x="349" y="760" type="line"/>
      <point x="349" y="520" type="line" smooth="yes"/>
      <point x="349" y="488"/>
      <point x="350" y="457"/>
      <point x="351" y="422" type="curve"/>
      <point x="349" y="422" type="line"/>
      <point x="333" y="482"/>
      <point x="294" y="538"/>
      <point x="215" y="538" type="curve" smooth="yes"/>
      <point x="111" y="538"/>
      <point x="50" y="439"/>
      <point x="50" y="255" type="curve" smooth="yes"/>
      <point x="50" y="83"/>
      <point x="104" y="-10"/>
    </contour>
    <contour>
      <point x="213" y="15" type="curve" smooth="yes"/>
      <point x="119" y="15"/>
      <point x="77" y="99"/>
      <point x="77" y="255" type="curve" smooth="yes"/>
      <point x="77" y="427"/>
      <point x="128" y="513"/>
      <point x="218" y="513" type="curve" smooth="yes"/>
      <point x="307" y="513"/>
      <point x="349" y="428"/>
      <point x="349" y="291" type="curve" smooth="yes"/>
      <point x="349" y="242" type="line" smooth="yes"/>
      <point x="349" y="102"/>
      <point x="309" y="15"/>
    </contour>
    <component base="caroncommaaccent" xOffset="221"/>
  </outline>
</glyph>
<glyph name="eogonek" format="2">
  <advance width="500"/>
  <unicode hex="0119"/>
  <anchor x="260" y="-217" name="bottom"/>
  <anchor x="250" y="528" name="top"/>
  <anchor x="267" y="10" name="ogonek"/>
  <anchor x="480" y="528" name="topright"/>
  <outline>
    <contour>
      <point x="357" y="-217" type="curve" smooth="yes"/>
      <point x="376" y="-217"/>
      <point x="395" y="-213"/>
      <point x="406" y="-209" type="curve"/>
      <point x="406" y="-185" type="line"/>
      <point x="395" y="-189"/>
      <point x="376" y="-192"/>
      <point x="361" y="-192" type="curve" smooth="yes"/>
      <point x="319" y="-192"/>
      <point x="300" y="-170"/>
      <point x="300" y="-132" type="curve" smooth="yes"/>
      <point x="300" y="-66"/>
      <point x="361" y="-16"/>
      <point x="419" y="23" type="curve"/>
      <point x="401" y="34" type="line"/>
      <point x="333" y="-13"/>
      <point x="274" y="-65"/>
      <point x="274" y="-132" type="curve" smooth="yes"/>
      <point x="274" y="-191"/>
      <point x="310" y="-217"/>
    </contour>
    <component base="e"/>
  </outline>
</glyph>
<glyph name="kgreenlandic" format="2">
  <advance width="500"/>
  <unicode hex="0138"/>
  <anchor x="250" y="0" name="bottom"/>
  <anchor x="250" y="528" name="top"/>
  <outline>
    <contour>
      <point x="121" y="0" type="line"/>
      <point x="147" y="0" type="line"/>
      <point x="147" y="185" type="line"/>
      <point x="235" y="286" type="line"/>
      <point x="430" y="0" type="line"/>
      <point x="458" y="0" type="line"/>
      <point x="252" y="307" type="line"/>
      <point x="442" y="528" type="line"/>
      <point x="411" y="528" type="line"/>
      <point x="195" y="277" type="line" smooth="yes"/>
      <point x="179" y="258"/>
      <point x="165" y="239"/>
      <point x="148" y="217" type="curve"/>
      <point x="146" y="217" type="line"/>
      <point x="147" y="272"/>
      <point x="147" y="318"/>
      <point x="147" y="373" type="curve" smooth="yes"/>
      <point x="147" y="528" type="line"/>
      <point x="121" y="528" type="line"/>
    </contour>
  </outline>
</glyph>
<glyph name="Lslash" format="2">
  <advance width="500"/>
  <unicode hex="0141"/>
  <anchor x="307" y="0" name="bottom"/>
  <anchor x="155" y="714" name="top"/>
  <anchor x="363" y="714" name="topright"/>
  <anchor x="250" y="357" name="center"/>
  <outline>
    <contour>
      <point x="26" y="322" type="line"/>
      <point x="290" y="473" type="line"/>
      <point x="290" y="496" type="line"/>
      <point x="26" y="346" type="line"/>
    </contour>
    <component base="L"/>
  </outline>
</glyph>
<glyph name="napostrophe" format="2">
  <advance width="500"/>
  <unicode hex="0149"/>
  <anchor x="260" y="0" name="bottom"/>
  <anchor x="255" y="528" name="top"/>
  <outline>
    <contour>
      <point x="95" y="0" type="line"/>
      <point x="121" y="0" type="line"/>
      <point x="121" y="307" type="line" smooth="yes"/>
      <point x="121" y="447"/>
      <point x="187" y="512"/>
      <point x="276" y="512" type="curve" smooth="yes"/>
      <point x="350" y="512"/>
      <point x="394" y="466"/>
      <point x="394" y="355" type="curve" smooth="yes"/>
      <point x="394" y="0" type="line"/>
      <point x="420" y="0" type="line"/>
      <point x="420" y="361" type="line" smooth="yes"/>
      <point x="420" y="483"/>
      <point x="367" y="537"/>
      <point x="277" y="537" type="curve" smooth="yes"/>
      <point x="183" y="537"/>
      <point x="139" y="478"/>
      <point x="120" y="416" type="curve"/>
      <point x="118" y="416" type="line"/>
      <point x="115" y="528" type="line"/>
      <point x="95" y="528" type="line"/>
    </contour>
    <component base="quoteright" xOffset="-230"/>
  </outline>
</glyph>
<glyph name="OE" format="2">
  <advance width="500"/>
  <unicode hex="0152"/>
  <anchor x="250" y="0" name="bottom"/>
  <anchor x="250" y="714" name="top"/>
  <outline>
    <contour>
      <point x="260" y="-2" type="curve" smooth="yes"/>
      <point x="283" y="-2"/>
      <point x="301" y="0"/>
      <point x="318" y="0" type="curve" smooth="yes"/>
      <point x="475" y="0" type="line"/>
      <point x="475" y="25" type="line"/>
      <point x="289" y="25" type="line"/>
      <point x="289" y="363" type="line"/>
      <point x="462" y="363" type="line"/>
      <point x="462" y="388" type="line"/>
      <point x="289" y="388" type="line"/>
      <point x="289" y="690" type="line"/>
      <point x="475" y="690" type="line"/>
      <point x="475" y="714" type="line"/>
      <point x="323" y="714" type="line"/>
      <point x="303" y="714"/>
      <point x="283" y="714"/>
      <point x="263" y="714" type="curve" smooth="yes"/>
      <point x="100" y="714"/>
      <point x="50" y="571"/>
      <point x="50" y="359" type="curve" smooth="yes"/>
      <point x="50" y="121"/>
      <point x="117" y="-2"/>
    </contour>
    <contour>
      <point x="255" y="23" type="curve" smooth="yes"/>
      <point x="131" y="23"/>
      <point x="76" y="153"/>
      <point x="76" y="359" type="curve" smooth="yes"/>
      <point x="76" y="545"/>
      <point x="117" y="690"/>
      <point x="255" y="690" type="curve" smooth="yes"/>
      <point x="258" y="690"/>
      <point x="260" y="690"/>
      <point x="263" y="690" type="curve"/>
      <point x="263" y="23" type="line"/>
      <point x="260" y="23"/>
      <point x="259" y="23"/>
    </contour>
  </outline>
</glyph>
<glyph name="Tbar" format="2">
  <advance width="500"/>
  <unicode hex="0166"/>
  <anchor x="250" y="0" name="bottom"/>
  <anchor x="250" y="714" name="top"/>
  <anchor x="480" y="714" name="topright"/>
  <anchor x="250" y="357" name="center"/>
  <outline>
    <contour>
      <point x="81" y="359" type="line"/>
      <point x="421" y="359" type="line"/>
      <point x="421" y="384" type="line"/>
      <point x="81" y="384" type="line"/>
    </contour>
    <component base="T"/>
  </outline>
</glyph>
<glyph name="tbar" format="2">
  <advance width="500"/>
  <unicode hex="0167"/>
  <anchor x="294" y="0" name="bottom"/>
  <anchor x="230" y="659" name="top"/>
  <anchor x="480" y="659" name="topright"/>
  <anchor x="229" y="290" name="center"/>
  <outline>
    <contour>
      <point x="84" y="285" type="line"/>
      <point x="430" y="285" type="line"/>
      <point x="430" y="310" type="line"/>
      <point x="84" y="310" type="line"/>
    </contour>
    <component base="t"/>
  </outline>
</glyph>
<glyph name="uni0180" format="2">
  <advance width="500"/>
  <unicode hex="0180"/>
  <anchor x="250" y="0" name="bottom"/>
  <anchor x="213" y="760" name="top"/>
  <anchor x="480" y="760" name="topright"/>
  <outline>
    <contour>
      <point x="3" y="630" type="line"/>
      <point x="251" y="630" type="line"/>
      <point x="251" y="655" type="line"/>
      <point x="3" y="655" type="line"/>
    </contour>
    <component base="b"/>
  </outline>
</glyph>
<glyph name="uni0181" format="2">
  <advance width="500"/>
  <unicode hex="0181"/>
  <anchor x="240" y="0" name="bottom"/>
  <anchor x="240" y="714" name="top"/>
  <outline>
    <contour>
      <point x="107" y="0" type="line"/>
      <point x="247" y="0" type="line" smooth="yes"/>
      <point x="374" y="0"/>
      <point x="457" y="66"/>
      <point x="457" y="200" type="curve" smooth="yes"/>
      <point x="457" y="293"/>
      <point x="419" y="357"/>
      <point x="319" y="376" type="curve"/>
      <point x="319" y="377" type="line"/>
      <point x="398" y="392"/>
      <point x="441" y="460"/>
      <point x="441" y="546" type="curve" smooth="yes"/>
      <point x="441" y="658"/>
      <point x="380" y="714"/>
      <point x="239" y="714" type="curve" smooth="yes"/>
      <point x="107" y="714" type="line"/>
    </contour>
    <contour>
      <point x="133" y="25" type="line"/>
      <point x="133" y="363" type="line"/>
      <point x="240" y="363" type="line" smooth="yes"/>
      <point x="355" y="363"/>
      <point x="430" y="324"/>
      <point x="430" y="200" type="curve" smooth="yes"/>
      <point x="430" y="80"/>
      <point x="361" y="25"/>
      <point x="247" y="25" type="curve" smooth="yes"/>
    </contour>
    <contour>
      <point x="16" y="544" type="curve"/>
      <point x="42" y="544" type="line"/>
      <point x="40" y="556"/>
      <point x="36" y="577"/>
      <point x="36" y="596" type="curve" smooth="yes"/>
      <point x="36" y="654"/>
      <point x="64" y="689"/>
      <point x="108" y="689" type="curve" smooth="yes"/>
      <point x="118" y="689" type="line"/>
      <point x="118" y="714" type="line"/>
      <point x="106" y="714" type="line" smooth="yes"/>
      <point x="44" y="714"/>
      <point x="10" y="665"/>
      <point x="10" y="595" type="curve" smooth="yes"/>
      <point x="10" y="579"/>
      <point x="12" y="559"/>
    </contour>
    <contour>
      <point x="133" y="388" type="line"/>
      <point x="133" y="689" type="line"/>
      <point x="230" y="689" type="line" smooth="yes"/>
      <point x="363" y="689"/>
      <point x="414" y="645"/>
      <point x="414" y="546" type="curve" smooth="yes"/>
      <point x="414" y="441"/>
      <point x="356" y="388"/>
      <point x="240" y="388" type="curve" smooth="yes"/>
    </contour>
  </outline>
</glyph>
<glyph name="uni0184" format="2">
  <advance width="500"/>
  <unicode hex="0184"/>
  <anchor x="250" y="0" name="bottom"/>
  <anchor x="250" y="760" name="top"/>
  <outline>
    <contour>
      <point x="272" y="0" type="curve" smooth="yes"/>
      <point x="390" y="0"/>
      <point x="455" y="79"/>
      <point x="455" y="202" type="curve" smooth="yes"/>
      <point x="455" y="337"/>
      <point x="380" y="393"/>
      <point x="233" y="393" type="curve" smooth="yes"/>
      <point x="121" y="393" type="line"/>
      <point x="121" y="714" type="line"/>
      <point x="95" y="714" type="line"/>
      <point x="95" y="203" type="line" smooth="yes"/>
      <point x="95" y="54"/>
      <point x="170" y="0"/>
    </contour>
    <contour>
      <point x="272" y="25" type="curve" smooth="yes"/>
      <point x="189" y="25"/>
      <point x="121" y="66"/>
      <point x="121" y="210" type="curve" smooth="yes"/>
      <point x="121" y="368" type="line"/>
      <point x="226" y="368" type="line" smooth="yes"/>
      <point x="357" y="368"/>
      <point x="428" y="323"/>
      <point x="428" y="201" type="curve" smooth="yes"/>
      <point x="428" y="87"/>
      <point x="370" y="25"/>
    </contour>
  </outline>
</glyph>
<glyph name="uni0185" format="2">
  <advance width="500"/>
  <unicode hex="0185"/>
  <anchor x="250" y="0" name="bottom"/>
  <anchor x="250" y="760" name="top"/>
  <outline>
    <contour>
      <point x="253" y="-10" type="curve" smooth="yes"/>
      <point x="381" y="-10"/>
      <point x="440" y="99"/>
      <point x="440" y="268" type="curve" smooth="yes"/>
      <point x="440" y="445"/>
      <point x="381" y="538"/>
      <point x="263" y="538" type="curve" smooth="yes"/>
      <point x="183" y="538"/>
      <point x="128" y="486"/>
      <point x="112" y="412" type="curve"/>
      <point x="110" y="412" type="line"/>
      <point x="111" y="437"/>
      <point x="111" y="476"/>
      <point x="111" y="503" type="curve" smooth="yes"/>
      <point x="111" y="760" type="line"/>
      <point x="85" y="760" type="line"/>
      <point x="85" y="233" type="line" smooth="yes"/>
      <point x="85" y="73"/>
      <point x="141" y="-10"/>
    </contour>
    <contour>
      <point x="253" y="15" type="curve" smooth="yes"/>
      <point x="158" y="15"/>
      <point x="111" y="85"/>
      <point x="111" y="251" type="curve" smooth="yes"/>
      <point x="111" y="263" type="line" smooth="yes"/>
      <point x="111" y="426"/>
      <point x="159" y="513"/>
      <point x="263" y="513" type="curve" smooth="yes"/>
      <point x="366" y="513"/>
      <point x="413" y="430"/>
      <point x="413" y="268" type="curve" smooth="yes"/>
      <point x="413" y="101"/>
      <point x="357" y="15"/>
    </contour>
  </outline>
</glyph>
<glyph name="uni0195" format="2">
  <advance width="500"/>
  <unicode hex="0195"/>
  <anchor x="255" y="0" name="bottom"/>
  <anchor x="63" y="759" name="top"/>
  <outline>
    <contour>
      <point x="348" y="-9" type="curve" smooth="yes"/>
      <point x="413" y="-9"/>
      <point x="455" y="32"/>
      <point x="455" y="116" type="curve" smooth="yes"/>
      <point x="455" y="528" type="line"/>
      <point x="429" y="528" type="line"/>
      <point x="429" y="119" type="line" smooth="yes"/>
      <point x="429" y="48"/>
      <point x="399" y="16"/>
      <point x="348" y="16" type="curve" smooth="yes"/>
      <point x="297" y="16"/>
      <point x="268" y="48"/>
      <point x="268" y="120" type="curve" smooth="yes"/>
      <point x="268" y="416" type="line" smooth="yes"/>
      <point x="268" y="499"/>
      <point x="231" y="537"/>
      <point x="172" y="537" type="curve" smooth="yes"/>
      <point x="118" y="537"/>
      <point x="87" y="503"/>
      <point x="76" y="462" type="curve"/>
      <point x="74" y="462" type="line"/>
      <point x="76" y="484"/>
      <point x="76" y="499"/>
      <point x="76" y="530" type="curve" smooth="yes"/>
      <point x="76" y="760" type="line"/>
      <point x="50" y="760" type="line"/>
      <point x="50" y="0" type="line"/>
      <point x="76" y="0" type="line"/>
      <point x="76" y="336" type="line" smooth="yes"/>
      <point x="76" y="485"/>
      <point x="127" y="512"/>
      <point x="171" y="512" type="curve" smooth="yes"/>
      <point x="212" y="512"/>
      <point x="242" y="484"/>
      <point x="242" y="410" type="curve" smooth="yes"/>
      <point x="242" y="116" type="line" smooth="yes"/>
      <point x="242" y="36"/>
      <point x="276" y="-9"/>
    </contour>
  </outline>
</glyph>
<glyph name="uni0199" format="2">
  <advance width="500"/>
  <unicode hex="0199"/>
  <anchor x="250" y="0" name="bottom"/>
  <anchor x="250" y="765" name="top"/>
  <outline>
    <contour>
      <point x="121" y="0" type="line"/>
      <point x="147" y="0" type="line"/>
      <point x="147" y="185" type="line"/>
      <point x="235" y="286" type="line"/>
      <point x="430" y="0" type="line"/>
      <point x="458" y="0" type="line"/>
      <point x="252" y="307" type="line"/>
      <point x="442" y="528" type="line"/>
      <point x="411" y="528" type="line"/>
      <point x="195" y="277" type="line" smooth="yes"/>
      <point x="179" y="258"/>
      <point x="165" y="239"/>
      <point x="148" y="217" type="curve"/>
      <point x="146" y="217" type="line"/>
      <point x="147" y="272"/>
      <point x="147" y="318"/>
      <point x="147" y="373" type="curve" smooth="yes"/>
      <point x="147" y="665" type="line" smooth="yes"/>
      <point x="147" y="716"/>
      <point x="165" y="740"/>
      <point x="204" y="740" type="curve" smooth="yes"/>
      <point x="221" y="740"/>
      <point x="231" y="738"/>
      <point x="242" y="733" type="curve"/>
      <point x="242" y="759" type="line"/>
      <point x="234" y="762"/>
      <point x="223" y="765"/>
      <point x="202" y="765" type="curve" smooth="yes"/>
      <point x="157" y="765"/>
      <point x="121" y="740"/>
      <point x="121" y="668" type="curve" smooth="yes"/>
    </contour>
  </outline>
</glyph>
<glyph name="uni019A" format="2">
  <advance width="500"/>
  <unicode hex="019A"/>
  <anchor x="250" y="0" name="bottom"/>
  <anchor x="250" y="760" name="top"/>
  <anchor x="396" y="760" name="topright"/>
  <anchor x="255" y="376" name="center"/>
  <outline>
    <contour>
      <point x="104" y="369" type="line"/>
      <point x="405" y="369" type="line"/>
      <point x="405" y="394" type="line"/>
      <point x="104" y="394" type="line"/>
    </contour>
    <component base="l"/>
  </outline>
</glyph>
<glyph name="uni019B" format="2">
  <advance width="500"/>
  <unicode hex="019B"/>
  <anchor x="260" y="0" name="bottom"/>
  <anchor x="266" y="766" name="top"/>
  <outline>
    <contour>
      <point x="137" y="561" type="line"/>
      <point x="350" y="635" type="line"/>
      <point x="342" y="659" type="line"/>
      <point x="129" y="585" type="line"/>
    </contour>
    <component base="lambda" xOffset="-33"/>
  </outline>
</glyph>
<glyph name="uni01A3" format="2">
  <advance width="500"/>
  <unicode hex="01A3"/>
  <anchor x="159" y="0" name="bottom"/>
  <anchor x="159" y="277" name="center"/>
  <anchor x="162" y="10" name="ogonek"/>
  <anchor x="244" y="528" name="top"/>
  <outline>
    <contour>
      <point x="419" y="-232" type="line"/>
      <point x="445" y="-232" type="line"/>
      <point x="445" y="419" type="line" smooth="yes"/>
      <point x="445" y="499"/>
      <point x="409" y="538"/>
      <point x="352" y="538" type="curve" smooth="yes"/>
      <point x="294" y="538"/>
      <point x="267" y="500"/>
      <point x="252" y="475" type="curve"/>
      <point x="234" y="515"/>
      <point x="203" y="538"/>
      <point x="162" y="538" type="curve" smooth="yes"/>
      <point x="77" y="538"/>
      <point x="35" y="461"/>
      <point x="35" y="266" type="curve" smooth="yes"/>
      <point x="35" y="70"/>
      <point x="68" y="-10"/>
      <point x="161" y="-10" type="curve" smooth="yes"/>
      <point x="244" y="-10"/>
      <point x="284" y="67"/>
      <point x="284" y="264" type="curve" smooth="yes"/>
      <point x="284" y="334"/>
      <point x="280" y="407"/>
      <point x="264" y="451" type="curve"/>
      <point x="279" y="477"/>
      <point x="302" y="513"/>
      <point x="350" y="513" type="curve" smooth="yes"/>
      <point x="393" y="513"/>
      <point x="419" y="484"/>
      <point x="419" y="410" type="curve" smooth="yes"/>
    </contour>
    <contour>
      <point x="160" y="15" type="curve" smooth="yes"/>
      <point x="94" y="15"/>
      <point x="61" y="83"/>
      <point x="61" y="266" type="curve" smooth="yes"/>
      <point x="61" y="451"/>
      <point x="99" y="513"/>
      <point x="162" y="513" type="curve" smooth="yes"/>
      <point x="235" y="513"/>
      <point x="258" y="422"/>
      <point x="258" y="265" type="curve" smooth="yes"/>
      <point x="258" y="75"/>
      <point x="218" y="15"/>
    </contour>
  </outline>
</glyph>
<glyph name="uni01AA" format="2">
  <advance width="500"/>
  <unicode hex="01AA"/>
  <anchor x="262" y="-240" name="bottom"/>
  <anchor x="262" y="770" name="top"/>
  <outline>
    <contour>
      <point x="368" y="-237" type="curve" smooth="yes"/>
      <point x="392" y="-237"/>
      <point x="412" y="-233"/>
      <point x="426" y="-227" type="curve"/>
      <point x="426" y="-202" type="line"/>
      <point x="412" y="-208"/>
      <point x="394" y="-212"/>
      <point x="367" y="-212" type="curve" smooth="yes"/>
      <point x="315" y="-212"/>
      <point x="275" y="-179"/>
      <point x="275" y="-91" type="curve" smooth="yes"/>
      <point x="275" y="634" type="line" smooth="yes"/>
      <point x="275" y="714"/>
      <point x="229" y="765"/>
      <point x="162" y="765" type="curve" smooth="yes"/>
      <point x="94" y="765"/>
      <point x="47" y="717"/>
      <point x="47" y="652" type="curve" smooth="yes"/>
      <point x="47" y="577"/>
      <point x="99" y="539"/>
      <point x="169" y="539" type="curve" smooth="yes"/>
      <point x="249" y="539" type="line"/>
      <point x="249" y="-98" type="line" smooth="yes"/>
      <point x="249" y="-190"/>
      <point x="296" y="-237"/>
    </contour>
    <contour>
      <point x="176" y="564" type="line" smooth="yes"/>
      <point x="99" y="564"/>
      <point x="74" y="597"/>
      <point x="74" y="653" type="curve" smooth="yes"/>
      <point x="74" y="703"/>
      <point x="108" y="740"/>
      <point x="160" y="740" type="curve" smooth="yes"/>
      <point x="212" y="740"/>
      <point x="249" y="705"/>
      <point x="249" y="623" type="curve" smooth="yes"/>
      <point x="249" y="564" type="line"/>
    </contour>
  </outline>
</glyph>
<glyph name="uni01AB" format="2">
  <advance width="500"/>
  <unicode hex="01AB"/>
  <anchor x="336" y="-240" name="bottom"/>
  <anchor x="250" y="659" name="top"/>
  <anchor x="480" y="659" name="topright"/>
  <anchor x="229" y="290" name="center"/>
  <outline>
    <contour>
      <point x="345" y="-242" type="curve" smooth="yes"/>
      <point x="400" y="-242"/>
      <point x="430" y="-206"/>
      <point x="430" y="-146" type="curve" smooth="yes"/>
      <point x="430" y="16" type="line"/>
      <point x="405" y="8" type="line"/>
      <point x="405" y="-144" type="line" smooth="yes"/>
      <point x="405" y="-182"/>
      <point x="390" y="-217"/>
      <point x="345" y="-217" type="curve" smooth="yes"/>
      <point x="323" y="-217"/>
      <point x="309" y="-212"/>
      <point x="296" y="-206" type="curve"/>
      <point x="296" y="-233" type="line"/>
      <point x="307" y="-238"/>
      <point x="321" y="-242"/>
    </contour>
    <component base="t"/>
  </outline>
</glyph>
<glyph name="uni01B3" format="2">
  <advance width="500"/>
  <unicode hex="01B3"/>
  <anchor x="250" y="0" name="bottom"/>
  <anchor x="250" y="714" name="top"/>
  <outline>
    <contour>
      <point x="238" y="0" type="line"/>
      <point x="264" y="0" type="line"/>
      <point x="264" y="275" type="line"/>
      <point x="465" y="714" type="line"/>
      <point x="437" y="714" type="line"/>
      <point x="251" y="305" type="line"/>
      <point x="96" y="641" type="line" smooth="yes"/>
      <point x="68" y="701"/>
      <point x="50" y="719"/>
      <point x="24" y="719" type="curve" smooth="yes"/>
      <point x="13" y="719"/>
      <point x="5" y="717"/>
      <point x="-3" y="714" type="curve"/>
      <point x="-3" y="691" type="line"/>
      <point x="4" y="694"/>
      <point x="12" y="696"/>
      <point x="20" y="696" type="curve" smooth="yes"/>
      <point x="41" y="696"/>
      <point x="52" y="678"/>
      <point x="74" y="630" type="curve" smooth="yes"/>
      <point x="238" y="275" type="line"/>
    </contour>
  </outline>
</glyph>
<glyph name="uni01B5" format="2">
  <advance width="500"/>
  <unicode hex="01B5"/>
  <anchor x="268" y="0" name="bottom"/>
  <anchor x="268" y="714" name="top"/>
  <anchor x="482" y="714" name="topright"/>
  <outline>
    <contour>
      <point x="121" y="343" type="line"/>
      <point x="409" y="343" type="line"/>
      <point x="409" y="368" type="line"/>
      <point x="121" y="368" type="line"/>
    </contour>
    <component base="Z" xOffset="2"/>
  </outline>
</glyph>
<glyph name="uni01BB" format="2">
  <advance width="500"/>
  <unicode hex="01BB"/>
  <anchor x="264" y="0" name="bottom"/>
  <anchor x="242" y="714" name="top"/>
  <outline>
    <contour>
      <point x="158" y="344" type="line"/>
      <point x="451" y="344" type="line"/>
      <point x="451" y="368" type="line"/>
      <point x="158" y="368" type="line"/>
    </contour>
    <component base="two"/>
  </outline>
</glyph>
<glyph name="uni01BC" format="2">
  <advance width="500"/>
  <unicode hex="01BC"/>
  <anchor x="250" y="0" name="bottom"/>
  <anchor x="250" y="714" name="top"/>
  <outline>
    <contour>
      <point x="197" y="-9" type="curve" smooth="yes"/>
      <point x="366" y="-9"/>
      <point x="441" y="99"/>
      <point x="441" y="220" type="curve" smooth="yes"/>
      <point x="441" y="348"/>
      <point x="358" y="420"/>
      <point x="203" y="420" type="curve" smooth="yes"/>
      <point x="170" y="420" type="line"/>
      <point x="170" y="689" type="line"/>
      <point x="388" y="689" type="line"/>
      <point x="388" y="714" type="line"/>
      <point x="45" y="714" type="line"/>
      <point x="45" y="689" type="line"/>
      <point x="144" y="689" type="line"/>
      <point x="144" y="395" type="line"/>
      <point x="201" y="395" type="line" smooth="yes"/>
      <point x="340" y="395"/>
      <point x="413" y="339"/>
      <point x="413" y="223" type="curve" smooth="yes"/>
      <point x="413" y="121"/>
      <point x="356" y="17"/>
      <point x="197" y="17" type="curve" smooth="yes"/>
      <point x="146" y="17"/>
      <point x="103" y="28"/>
      <point x="69" y="50" type="curve"/>
      <point x="69" y="19" type="line"/>
      <point x="94" y="3"/>
      <point x="141" y="-9"/>
    </contour>
  </outline>
</glyph>
<glyph name="uni01BD" format="2">
  <advance width="500"/>
  <unicode hex="01BD"/>
  <anchor x="250" y="0" name="bottom"/>
  <anchor x="250" y="528" name="top"/>
  <outline>
    <contour>
      <point x="231" y="-7" type="curve" smooth="yes"/>
      <point x="366" y="-7"/>
      <point x="419" y="67"/>
      <point x="419" y="160" type="curve" smooth="yes"/>
      <point x="419" y="260"/>
      <point x="356" y="304"/>
      <point x="239" y="304" type="curve" smooth="yes"/>
      <point x="179" y="304" type="line"/>
      <point x="179" y="503" type="line"/>
      <point x="410" y="503" type="line"/>
      <point x="410" y="528" type="line"/>
      <point x="78" y="528" type="line"/>
      <point x="78" y="503" type="line"/>
      <point x="153" y="503" type="line"/>
      <point x="153" y="279" type="line"/>
      <point x="230" y="279" type="line" smooth="yes"/>
      <point x="340" y="279"/>
      <point x="392" y="245"/>
      <point x="392" y="160" type="curve" smooth="yes"/>
      <point x="392" y="80"/>
      <point x="348" y="18"/>
      <point x="236" y="18" type="curve" smooth="yes"/>
      <point x="170" y="18"/>
      <point x="115" y="34"/>
      <point x="70" y="57" type="curve"/>
      <point x="70" y="27" type="line"/>
      <point x="103" y="10"/>
      <point x="162" y="-7"/>
    </contour>
  </outline>
</glyph>
<glyph name="uni01BE" format="2">
  <advance width="500"/>
  <unicode hex="01BE"/>
  <anchor x="250" y="0" name="bottom"/>
  <anchor x="230" y="659" name="top"/>
  <outline>
    <contour>
      <point x="237" y="-10" type="curve" smooth="yes"/>
      <point x="344" y="-10"/>
      <point x="397" y="44"/>
      <point x="397" y="138" type="curve" smooth="yes"/>
      <point x="397" y="216"/>
      <point x="348" y="253"/>
      <point x="292" y="287" type="curve" smooth="yes"/>
      <point x="244" y="316"/>
      <point x="241" y="334"/>
      <point x="241" y="396" type="curve" smooth="yes"/>
      <point x="241" y="503" type="line"/>
      <point x="418" y="503" type="line"/>
      <point x="418" y="528" type="line"/>
      <point x="241" y="528" type="line"/>
      <point x="241" y="659" type="line"/>
      <point x="219" y="659" type="line"/>
      <point x="214" y="528" type="line"/>
      <point x="84" y="524" type="line"/>
      <point x="84" y="503" type="line"/>
      <point x="215" y="503" type="line"/>
      <point x="215" y="393" type="line" smooth="yes"/>
      <point x="215" y="319"/>
      <point x="221" y="298"/>
      <point x="272" y="269" type="curve" smooth="yes"/>
      <point x="324" y="240"/>
      <point x="370" y="209"/>
      <point x="370" y="137" type="curve" smooth="yes"/>
      <point x="370" y="58"/>
      <point x="330" y="16"/>
      <point x="237" y="16" type="curve" smooth="yes"/>
      <point x="187" y="16"/>
      <point x="141" y="30"/>
      <point x="100" y="53" type="curve"/>
      <point x="100" y="23" type="line"/>
      <point x="130" y="7"/>
      <point x="178" y="-10"/>
    </contour>
  </outline>
</glyph>
<glyph name="uni01BF" format="2">
  <advance width="500"/>
  <unicode hex="01BF"/>
  <anchor x="273" y="-240" name="bottom"/>
  <anchor x="273" y="553" name="top"/>
  <outline>
    <contour>
      <point x="93" y="-232" type="line"/>
      <point x="119" y="-232" type="line"/>
      <point x="119" y="-10" type="line"/>
      <point x="278" y="-10"/>
      <point x="431" y="81"/>
      <point x="431" y="307" type="curve" smooth="yes"/>
      <point x="431" y="435"/>
      <point x="385" y="537"/>
      <point x="268" y="537" type="curve" smooth="yes"/>
      <point x="187" y="537"/>
      <point x="150" y="501"/>
      <point x="120" y="433" type="curve"/>
      <point x="116" y="433" type="line"/>
      <point x="113" y="527" type="line"/>
      <point x="93" y="527" type="line"/>
    </contour>
    <contour>
      <point x="119" y="14" type="curve"/>
      <point x="119" y="287" type="line" smooth="yes"/>
      <point x="119" y="441"/>
      <point x="174" y="512"/>
      <point x="268" y="512" type="curve" smooth="yes"/>
      <point x="368" y="512"/>
      <point x="405" y="416"/>
      <point x="405" y="307" type="curve" smooth="yes"/>
      <point x="405" y="95"/>
      <point x="254" y="14"/>
    </contour>
  </outline>
</glyph>
<glyph name="uni01C2" format="2">
  <advance width="500"/>
  <unicode hex="01C2"/>
  <anchor x="250" y="0" name="bottom"/>
  <anchor x="250" y="760" name="top"/>
  <outline>
    <contour>
      <point x="127" y="474" type="line"/>
      <point x="373" y="474" type="line"/>
      <point x="373" y="499" type="line"/>
      <point x="127" y="499" type="line"/>
    </contour>
    <contour>
      <point x="127" y="258" type="line"/>
      <point x="373" y="258" type="line"/>
      <point x="373" y="283" type="line"/>
      <point x="127" y="283" type="line"/>
    </contour>
    <component base="uni01C0"/>
  </outline>
</glyph>
<glyph name="uni01E4" format="2">
  <advance width="500"/>
  <unicode hex="01E4"/>
  <anchor x="292" y="0" name="bottom"/>
  <anchor x="287" y="714" name="top"/>
  <outline>
    <contour>
      <point x="295" y="-10" type="curve" smooth="yes"/>
      <point x="347" y="-10"/>
      <point x="403" y="2"/>
      <point x="435" y="24" type="curve"/>
      <point x="435" y="351" type="line"/>
      <point x="269" y="351" type="line"/>
      <point x="269" y="326" type="line"/>
      <point x="410" y="326" type="line"/>
      <point x="410" y="40" type="line"/>
      <point x="390" y="27"/>
      <point x="345" y="15"/>
      <point x="297" y="15" type="curve" smooth="yes"/>
      <point x="138" y="15"/>
      <point x="76" y="156"/>
      <point x="76" y="362" type="curve" smooth="yes"/>
      <point x="76" y="556"/>
      <point x="131" y="699"/>
      <point x="290" y="699" type="curve" smooth="yes"/>
      <point x="327" y="699"/>
      <point x="369" y="691"/>
      <point x="405" y="661" type="curve"/>
      <point x="418" y="681" type="line"/>
      <point x="379" y="715"/>
      <point x="328" y="724"/>
      <point x="287" y="724" type="curve" smooth="yes"/>
      <point x="119" y="724"/>
      <point x="50" y="574"/>
      <point x="50" y="358" type="curve" smooth="yes"/>
      <point x="50" y="141"/>
      <point x="119" y="-10"/>
    </contour>
    <contour>
      <point x="269" y="183" type="line"/>
      <point x="500" y="183" type="line"/>
      <point x="500" y="208" type="line"/>
      <point x="269" y="208" type="line"/>
    </contour>
  </outline>
</glyph>
<glyph name="uni01E5" format="2">
  <advance width="500"/>
  <unicode hex="01E5"/>
  <anchor x="250" y="-245" name="bottom"/>
  <anchor x="250" y="546" name="top"/>
  <outline>
    <contour>
      <point x="226" y="-241" type="curve" smooth="yes"/>
      <point x="354" y="-241"/>
      <point x="407" y="-181"/>
      <point x="414" y="-95" type="curve"/>
      <point x="490" y="-95" type="line"/>
      <point x="490" y="-70" type="line"/>
      <point x="415" y="-70" type="line"/>
      <point x="415" y="528" type="line"/>
      <point x="394" y="528" type="line"/>
      <point x="390" y="439" type="line"/>
      <point x="388" y="439" type="line"/>
      <point x="366" y="493"/>
      <point x="321" y="538"/>
      <point x="240" y="538" type="curve" smooth="yes"/>
      <point x="115" y="538"/>
      <point x="60" y="432"/>
      <point x="60" y="265" type="curve" smooth="yes"/>
      <point x="60" y="90"/>
      <point x="120" y="2"/>
      <point x="230" y="2" type="curve" smooth="yes"/>
      <point x="313" y="2"/>
      <point x="371" y="53"/>
      <point x="389" y="126" type="curve"/>
      <point x="392" y="126" type="line"/>
      <point x="389" y="86"/>
      <point x="389" y="62"/>
      <point x="389" y="27" type="curve" smooth="yes"/>
      <point x="389" y="-70" type="line"/>
      <point x="226" y="-70" type="line"/>
      <point x="226" y="-95" type="line"/>
      <point x="388" y="-95" type="line"/>
      <point x="381" y="-167"/>
      <point x="337" y="-216"/>
      <point x="228" y="-216" type="curve" smooth="yes"/>
      <point x="168" y="-216"/>
      <point x="124" y="-201"/>
      <point x="85" y="-179" type="curve"/>
      <point x="85" y="-208" type="line"/>
      <point x="123" y="-228"/>
      <point x="167" y="-241"/>
    </contour>
    <contour>
      <point x="233" y="27" type="curve" smooth="yes"/>
      <point x="135" y="27"/>
      <point x="86" y="103"/>
      <point x="86" y="264" type="curve" smooth="yes"/>
      <point x="86" y="415"/>
      <point x="129" y="513"/>
      <point x="241" y="513" type="curve" smooth="yes"/>
      <point x="348" y="513"/>
      <point x="389" y="423"/>
      <point x="389" y="312" type="curve" smooth="yes"/>
      <point x="389" y="240" type="line" smooth="yes"/>
      <point x="389" y="136"/>
      <point x="351" y="27"/>
    </contour>
  </outline>
</glyph>
<glyph name="uni01F6" format="2">
  <advance width="500"/>
  <unicode hex="01F6"/>
  <anchor x="250" y="0" name="bottom"/>
  <anchor x="250" y="357" name="center"/>
  <anchor x="250" y="714" name="top"/>
  <anchor x="20" y="714" name="topleft"/>
  <outline>
    <contour>
      <point x="358" y="-10" type="curve" smooth="yes"/>
      <point x="422" y="-10"/>
      <point x="460" y="30"/>
      <point x="460" y="97" type="curve" smooth="yes"/>
      <point x="460" y="527" type="line"/>
      <point x="434" y="527" type="line"/>
      <point x="434" y="107" type="line" smooth="yes"/>
      <point x="434" y="44"/>
      <point x="406" y="15"/>
      <point x="358" y="15" type="curve" smooth="yes"/>
      <point x="311" y="15"/>
      <point x="284" y="46"/>
      <point x="284" y="107" type="curve" smooth="yes"/>
      <point x="284" y="714" type="line"/>
      <point x="258" y="714" type="line"/>
      <point x="258" y="388" type="line"/>
      <point x="80" y="388" type="line"/>
      <point x="80" y="714" type="line"/>
      <point x="54" y="714" type="line"/>
      <point x="54" y="0" type="line"/>
      <point x="80" y="0" type="line"/>
      <point x="80" y="363" type="line"/>
      <point x="258" y="363" type="line"/>
      <point x="258" y="97" type="line" smooth="yes"/>
      <point x="258" y="30"/>
      <point x="296" y="-10"/>
    </contour>
  </outline>
</glyph>
<glyph name="uni021D" format="2">
  <advance width="500"/>
  <unicode hex="021D"/>
  <anchor x="227" y="-161" name="bottom"/>
  <anchor x="235" y="528" name="top"/>
  <outline>
    <contour>
      <point x="57" y="-241" type="line"/>
      <point x="286" y="-187"/>
      <point x="423" y="-123"/>
      <point x="423" y="43" type="curve" smooth="yes"/>
      <point x="423" y="140"/>
      <point x="365" y="195"/>
      <point x="303" y="223" type="curve"/>
      <point x="371" y="259"/>
      <point x="407" y="303"/>
      <point x="407" y="380" type="curve" smooth="yes"/>
      <point x="407" y="485"/>
      <point x="333" y="539"/>
      <point x="233" y="539" type="curve" smooth="yes"/>
      <point x="174" y="539"/>
      <point x="122" y="522"/>
      <point x="75" y="498" type="curve"/>
      <point x="85" y="476" type="line"/>
      <point x="127" y="497"/>
      <point x="178" y="514"/>
      <point x="233" y="514" type="curve" smooth="yes"/>
      <point x="312" y="514"/>
      <point x="380" y="471"/>
      <point x="380" y="380" type="curve" smooth="yes"/>
      <point x="380" y="279"/>
      <point x="307" y="235"/>
      <point x="151" y="194" type="curve"/>
      <point x="160" y="171" type="line"/>
      <point x="203" y="182"/>
      <point x="246" y="197"/>
      <point x="276" y="209" type="curve"/>
      <point x="350" y="177"/>
      <point x="396" y="124"/>
      <point x="396" y="43" type="curve" smooth="yes"/>
      <point x="396" y="-102"/>
      <point x="278" y="-160"/>
      <point x="57" y="-215" type="curve"/>
    </contour>
  </outline>
</glyph>
<glyph name="uni0220" format="2">
  <advance width="500"/>
  <unicode hex="0220"/>
  <anchor x="250" y="-240" name="bottom"/>
  <anchor x="250" y="357" name="center"/>
  <anchor x="250" y="714" name="top"/>
  <anchor x="20" y="714" name="topleft"/>
  <outline>
    <contour>
      <point x="394" y="-232" type="line"/>
      <point x="420" y="-232" type="line"/>
      <point x="420" y="546" type="line" smooth="yes"/>
      <point x="420" y="657"/>
      <point x="378" y="724"/>
      <point x="265" y="724" type="curve" smooth="yes"/>
      <point x="169" y="724"/>
      <point x="129" y="679"/>
      <point x="109" y="627" type="curve"/>
      <point x="107" y="627" type="line"/>
      <point x="103" y="714" type="line"/>
      <point x="83" y="714" type="line"/>
      <point x="83" y="0" type="line"/>
      <point x="109" y="0" type="line"/>
      <point x="109" y="533" type="line" smooth="yes"/>
      <point x="109" y="610"/>
      <point x="145" y="699"/>
      <point x="263" y="699" type="curve" smooth="yes"/>
      <point x="359" y="699"/>
      <point x="394" y="645"/>
      <point x="394" y="534" type="curve" smooth="yes"/>
    </contour>
  </outline>
</glyph>
<glyph name="uni0225" format="2">
  <advance width="500"/>
  <unicode hex="0225"/>
  <anchor x="268" y="-240" name="bottom"/>
  <anchor x="250" y="528" name="top"/>
  <anchor x="480" y="528" name="topright"/>
  <outline>
    <contour>
      <point x="345" y="-160" type="curve" smooth="yes"/>
      <point x="392" y="-160"/>
      <point x="415" y="-132"/>
      <point x="415" y="-79" type="curve" smooth="yes"/>
      <point x="415" y="25" type="line"/>
      <point x="378" y="25" type="line"/>
      <point x="378" y="0" type="line"/>
      <point x="392" y="0" type="line"/>
      <point x="392" y="-75" type="line" smooth="yes"/>
      <point x="392" y="-119"/>
      <point x="375" y="-138"/>
      <point x="345" y="-138" type="curve" smooth="yes"/>
      <point x="332" y="-138"/>
      <point x="320" y="-135"/>
      <point x="305" y="-129" type="curve"/>
      <point x="305" y="-152" type="line"/>
      <point x="318" y="-157"/>
      <point x="330" y="-160"/>
    </contour>
    <component base="z"/>
  </outline>
</glyph>
<glyph name="uni0235" format="2">
  <advance width="500"/>
  <unicode hex="0235"/>
  <anchor x="200" y="0" name="bottom"/>
  <anchor x="205" y="528" name="top"/>
  <outline>
    <contour>
      <point x="274" y="-28" type="line"/>
      <point x="283" y="10"/>
      <point x="296" y="51"/>
      <point x="309" y="81" type="curve"/>
      <point x="317" y="25"/>
      <point x="346" y="-10"/>
      <point x="392" y="-10" type="curve" smooth="yes"/>
      <point x="444" y="-10"/>
      <point x="472" y="32"/>
      <point x="472" y="87" type="curve" smooth="yes"/>
      <point x="472" y="139"/>
      <point x="447" y="180"/>
      <point x="394" y="180" type="curve" smooth="yes"/>
      <point x="369" y="180"/>
      <point x="348" y="171"/>
      <point x="331" y="155" type="curve"/>
      <point x="331" y="393" type="line" smooth="yes"/>
      <point x="331" y="506"/>
      <point x="276" y="537"/>
      <point x="208" y="537" type="curve" smooth="yes"/>
      <point x="127" y="537"/>
      <point x="100" y="492"/>
      <point x="87" y="454" type="curve"/>
      <point x="85" y="454" type="line"/>
      <point x="82" y="527" type="line"/>
      <point x="63" y="527" type="line"/>
      <point x="63" y="0" type="line"/>
      <point x="89" y="0" type="line"/>
      <point x="89" y="346" type="line" smooth="yes"/>
      <point x="89" y="479"/>
      <point x="140" y="513"/>
      <point x="205" y="513" type="curve" smooth="yes"/>
      <point x="270" y="513"/>
      <point x="305" y="480"/>
      <point x="305" y="383" type="curve" smooth="yes"/>
      <point x="305" y="153" type="line" smooth="yes"/>
      <point x="305" y="143"/>
      <point x="305" y="137"/>
      <point x="306" y="125" type="curve"/>
      <point x="282" y="86"/>
      <point x="264" y="30"/>
      <point x="249" y="-21" type="curve"/>
    </contour>
    <contour>
      <point x="392" y="13" type="curve" smooth="yes"/>
      <point x="353" y="13"/>
      <point x="334" y="46"/>
      <point x="331" y="121" type="curve"/>
      <point x="348" y="144"/>
      <point x="370" y="157"/>
      <point x="394" y="157" type="curve" smooth="yes"/>
      <point x="431" y="157"/>
      <point x="448" y="126"/>
      <point x="448" y="86" type="curve" smooth="yes"/>
      <point x="448" y="52"/>
      <point x="437" y="13"/>
    </contour>
  </outline>
</glyph>
<glyph name="jdotless" format="2">
  <advance width="500"/>
  <unicode hex="0237"/>
  <anchor x="250" y="-248" name="bottom"/>
  <anchor x="290" y="528" name="top"/>
  <outline>
    <contour>
      <point x="164" y="-248" type="curve" smooth="yes"/>
      <point x="249" y="-248"/>
      <point x="306" y="-196"/>
      <point x="306" y="-88" type="curve" smooth="yes"/>
      <point x="306" y="528" type="line"/>
      <point x="111" y="528" type="line"/>
      <point x="111" y="507" type="line"/>
      <point x="280" y="503" type="line"/>
      <point x="280" y="-81" type="line" smooth="yes"/>
      <point x="280" y="-168"/>
      <point x="242" y="-222"/>
      <point x="164" y="-222" type="curve" smooth="yes"/>
      <point x="126" y="-222"/>
      <point x="69" y="-210"/>
      <point x="50" y="-201" type="curve"/>
      <point x="50" y="-228" type="line"/>
      <point x="65" y="-234"/>
      <point x="117" y="-248"/>
    </contour>
  </outline>
</glyph>
<glyph name="uni0238" format="2">
  <advance width="500"/>
  <unicode hex="0238"/>
  <anchor x="251" y="0" name="bottom"/>
  <anchor x="252" y="760" name="top"/>
  <outline>
    <contour>
      <point x="153" y="-10" type="curve" smooth="yes"/>
      <point x="202" y="-10"/>
      <point x="237" y="18"/>
      <point x="251" y="103" type="curve"/>
      <point x="268" y="19"/>
      <point x="300" y="-10"/>
      <point x="349" y="-10" type="curve" smooth="yes"/>
      <point x="421" y="-10"/>
      <point x="461" y="48"/>
      <point x="461" y="263" type="curve" smooth="yes"/>
      <point x="461" y="460"/>
      <point x="432" y="537"/>
      <point x="355" y="537" type="curve" smooth="yes"/>
      <point x="308" y="537"/>
      <point x="281" y="505"/>
      <point x="266" y="460" type="curve"/>
      <point x="264" y="460" type="line"/>
      <point x="265" y="480"/>
      <point x="265" y="492"/>
      <point x="265" y="512" type="curve" smooth="yes"/>
      <point x="265" y="760" type="line"/>
      <point x="239" y="760" type="line"/>
      <point x="239" y="512" type="line" smooth="yes"/>
      <point x="239" y="492"/>
      <point x="239" y="480"/>
      <point x="240" y="460" type="curve"/>
      <point x="238" y="460" type="line"/>
      <point x="224" y="506"/>
      <point x="202" y="537"/>
      <point x="156" y="537" type="curve" smooth="yes"/>
      <point x="78" y="537"/>
      <point x="41" y="465"/>
      <point x="41" y="266" type="curve" smooth="yes"/>
      <point x="41" y="46"/>
      <point x="82" y="-10"/>
    </contour>
    <contour>
      <point x="153" y="15" type="curve" smooth="yes"/>
      <point x="98" y="15"/>
      <point x="67" y="73"/>
      <point x="67" y="266" type="curve" smooth="yes"/>
      <point x="67" y="444"/>
      <point x="94" y="512"/>
      <point x="155" y="512" type="curve" smooth="yes"/>
      <point x="213" y="512"/>
      <point x="238" y="438"/>
      <point x="238" y="264" type="curve" smooth="yes"/>
      <point x="238" y="67"/>
      <point x="207" y="15"/>
    </contour>
    <contour>
      <point x="349" y="15" type="curve" smooth="yes"/>
      <point x="295" y="15"/>
      <point x="263" y="74"/>
      <point x="263" y="264" type="curve" smooth="yes"/>
      <point x="263" y="440"/>
      <point x="294" y="512"/>
      <point x="353" y="512" type="curve" smooth="yes"/>
      <point x="413" y="512"/>
      <point x="435" y="437"/>
      <point x="435" y="264" type="curve" smooth="yes"/>
      <point x="435" y="67"/>
      <point x="404" y="15"/>
    </contour>
  </outline>
</glyph>
<glyph name="uni023B" format="2">
  <advance width="500"/>
  <unicode hex="023B"/>
  <anchor x="250" y="-75" name="bottom"/>
  <anchor x="310" y="760" name="top"/>
  <anchor x="480" y="714" name="topright"/>
  <outline>
    <contour>
      <point x="131" y="-75" type="line"/>
      <point x="156" y="-75" type="line"/>
      <point x="399" y="760" type="line"/>
      <point x="374" y="760" type="line"/>
    </contour>
    <component base="C"/>
  </outline>
</glyph>
<glyph name="uni023C" format="2">
  <advance width="500"/>
  <unicode hex="023C"/>
  <anchor x="250" y="-188" name="bottom"/>
  <anchor x="280" y="760" name="top"/>
  <anchor x="480" y="528" name="topright"/>
  <outline>
    <contour>
      <point x="158" y="-188" type="line"/>
      <point x="185" y="-188" type="line"/>
      <point x="394" y="760" type="line"/>
      <point x="367" y="760" type="line"/>
    </contour>
    <component base="c"/>
  </outline>
</glyph>
<glyph name="uni023D" format="2">
  <advance width="500"/>
  <unicode hex="023D"/>
  <anchor x="250" y="0" name="bottom"/>
  <anchor x="105" y="714" name="top"/>
  <anchor x="363" y="714" name="topright"/>
  <anchor x="250" y="357" name="center"/>
  <outline>
    <contour>
      <point x="0" y="363" type="line"/>
      <point x="230" y="363" type="line"/>
      <point x="230" y="388" type="line"/>
      <point x="0" y="388" type="line"/>
    </contour>
    <component base="L"/>
  </outline>
</glyph>
<glyph name="uni0240" format="2">
  <advance width="500"/>
  <unicode hex="0240"/>
  <anchor x="280" y="-240" name="bottom"/>
  <anchor x="257" y="528" name="top"/>
  <outline>
    <contour>
      <point x="355" y="-232" type="curve" smooth="yes"/>
      <point x="380" y="-232"/>
      <point x="397" y="-226"/>
      <point x="406" y="-221" type="curve"/>
      <point x="406" y="-195" type="line"/>
      <point x="397" y="-201"/>
      <point x="379" y="-207"/>
      <point x="357" y="-207" type="curve" smooth="yes"/>
      <point x="292" y="-207"/>
      <point x="278" y="-156"/>
      <point x="263" y="-98" type="curve" smooth="yes"/>
      <point x="239" y="-6"/>
      <point x="208" y="16"/>
      <point x="127" y="25" type="curve"/>
      <point x="404" y="509" type="line"/>
      <point x="404" y="528" type="line"/>
      <point x="116" y="528" type="line"/>
      <point x="116" y="503" type="line"/>
      <point x="371" y="503" type="line"/>
      <point x="95" y="21" type="line"/>
      <point x="95" y="0" type="line"/>
      <point x="104" y="0" type="line" smooth="yes"/>
      <point x="190" y="0"/>
      <point x="216" y="-20"/>
      <point x="237" y="-97" type="curve" smooth="yes"/>
      <point x="257" y="-172"/>
      <point x="275" y="-232"/>
    </contour>
  </outline>
</glyph>
<glyph name="uni0246" format="2">
  <advance width="500"/>
  <unicode hex="0246"/>
  <anchor x="250" y="-75" name="bottom"/>
  <anchor x="260" y="760" name="top"/>
  <anchor x="20" y="714" name="topleft"/>
  <anchor x="354" y="10" name="ogonek"/>
  <anchor x="480" y="714" name="topright"/>
  <outline>
    <contour>
      <point x="121" y="-75" type="line"/>
      <point x="146" y="-75" type="line"/>
      <point x="389" y="760" type="line"/>
      <point x="364" y="760" type="line"/>
    </contour>
    <component base="E"/>
  </outline>
</glyph>
<glyph name="uni0248" format="2">
  <advance width="500"/>
  <unicode hex="0248"/>
  <anchor x="250" y="-175" name="bottom"/>
  <anchor x="250" y="714" name="top"/>
  <outline>
    <contour>
      <point x="104" y="-175" type="curve" smooth="yes"/>
      <point x="224" y="-175"/>
      <point x="263" y="-102"/>
      <point x="263" y="36" type="curve" smooth="yes"/>
      <point x="263" y="714" type="line"/>
      <point x="237" y="714" type="line"/>
      <point x="237" y="44" type="line" smooth="yes"/>
      <point x="237" y="-89"/>
      <point x="204" y="-150"/>
      <point x="104" y="-150" type="curve" smooth="yes"/>
      <point x="47" y="-150"/>
      <point x="6" y="-135"/>
      <point x="-37" y="-113" type="curve"/>
      <point x="-37" y="-141" type="line"/>
      <point x="6" y="-161"/>
      <point x="52" y="-175"/>
    </contour>
    <contour>
      <point x="88" y="363" type="line"/>
      <point x="403" y="363" type="line"/>
      <point x="403" y="388" type="line"/>
      <point x="88" y="388" type="line"/>
    </contour>
  </outline>
</glyph>
<glyph name="uni024C" format="2">
  <advance width="500"/>
  <unicode hex="024C"/>
  <anchor x="278" y="0" name="bottom"/>
  <anchor x="250" y="714" name="top"/>
  <anchor x="480" y="714" name="topright"/>
  <outline>
    <contour>
      <point x="0" y="321" type="line"/>
      <point x="133" y="321" type="line"/>
      <point x="133" y="347" type="line"/>
      <point x="0" y="347" type="line"/>
    </contour>
    <component base="R"/>
  </outline>
</glyph>
<glyph name="uni024F" format="2">
  <advance width="500"/>
  <unicode hex="024F"/>
  <anchor x="250" y="-243" name="bottom"/>
  <anchor x="250" y="528" name="top"/>
  <anchor x="480" y="528" name="topright"/>
  <outline>
    <contour>
      <point x="45" y="311" type="line"/>
      <point x="463" y="311" type="line"/>
      <point x="463" y="336" type="line"/>
      <point x="45" y="336" type="line"/>
    </contour>
    <component base="y"/>
  </outline>
</glyph>
<glyph name="uni0251" format="2">
  <advance width="500"/>
  <unicode hex="0251"/>
  <anchor x="250" y="0" name="bottom"/>
  <anchor x="250" y="528" name="top"/>
  <outline>
    <contour>
      <point x="233" y="-10" type="curve" smooth="yes"/>
      <point x="328" y="-10"/>
      <point x="371" y="48"/>
      <point x="388" y="110" type="curve"/>
      <point x="391" y="110" type="line"/>
      <point x="394" y="0" type="line"/>
      <point x="415" y="0" type="line"/>
      <point x="415" y="528" type="line"/>
      <point x="394" y="528" type="line"/>
      <point x="392" y="427" type="line"/>
      <point x="390" y="427" type="line"/>
      <point x="375" y="470"/>
      <point x="337" y="538"/>
      <point x="239" y="538" type="curve" smooth="yes"/>
      <point x="125" y="538"/>
      <point x="61" y="445"/>
      <point x="61" y="256" type="curve" smooth="yes"/>
      <point x="61" y="56"/>
      <point x="132" y="-10"/>
    </contour>
    <contour>
      <point x="235" y="15" type="curve" smooth="yes"/>
      <point x="148" y="15"/>
      <point x="87" y="75"/>
      <point x="87" y="258" type="curve" smooth="yes"/>
      <point x="87" y="427"/>
      <point x="139" y="513"/>
      <point x="239" y="513" type="curve" smooth="yes"/>
      <point x="342" y="513"/>
      <point x="389" y="422"/>
      <point x="389" y="297" type="curve" smooth="yes"/>
      <point x="389" y="240" type="line" smooth="yes"/>
      <point x="389" y="103"/>
      <point x="341" y="15"/>
    </contour>
  </outline>
</glyph>
<glyph name="uni0263" format="2">
  <advance width="500"/>
  <unicode hex="0263"/>
  <anchor x="250" y="-241" name="bottom"/>
  <anchor x="250" y="528" name="top"/>
  <outline>
    <contour>
      <point x="250" y="-241" type="curve" smooth="yes"/>
      <point x="307" y="-241"/>
      <point x="336" y="-199"/>
      <point x="336" y="-141" type="curve" smooth="yes"/>
      <point x="336" y="-80"/>
      <point x="305" y="-9"/>
      <point x="266" y="82" type="curve"/>
      <point x="447" y="528" type="line"/>
      <point x="418" y="528" type="line"/>
      <point x="294" y="220" type="line" smooth="yes"/>
      <point x="278" y="180"/>
      <point x="263" y="141"/>
      <point x="252" y="113" type="curve"/>
      <point x="250" y="113" type="line"/>
      <point x="241" y="141"/>
      <point x="223" y="181"/>
      <point x="207" y="220" type="curve" smooth="yes"/>
      <point x="82" y="528" type="line"/>
      <point x="53" y="528" type="line"/>
      <point x="236" y="81" type="line"/>
      <point x="192" y="-23"/>
      <point x="164" y="-88"/>
      <point x="164" y="-141" type="curve" smooth="yes"/>
      <point x="164" y="-200"/>
      <point x="193" y="-241"/>
    </contour>
    <contour>
      <point x="250" y="-217" type="curve" smooth="yes"/>
      <point x="214" y="-217"/>
      <point x="191" y="-188"/>
      <point x="191" y="-138" type="curve" smooth="yes"/>
      <point x="191" y="-94"/>
      <point x="219" y="-28"/>
      <point x="251" y="50" type="curve"/>
      <point x="282" y="-30"/>
      <point x="309" y="-91"/>
      <point x="309" y="-139" type="curve" smooth="yes"/>
      <point x="309" y="-188"/>
      <point x="289" y="-217"/>
    </contour>
  </outline>
</glyph>
<glyph name="uni0268" format="2">
  <advance width="500"/>
  <unicode hex="0268"/>
  <anchor x="250" y="0" name="bottom"/>
  <anchor x="250" y="734" name="top"/>
  <anchor x="411" y="734" name="topright"/>
  <outline>
    <contour>
      <point x="104" y="253" type="line"/>
      <point x="408" y="253" type="line"/>
      <point x="408" y="278" type="line"/>
      <point x="104" y="278" type="line"/>
    </contour>
    <component base="i"/>
  </outline>
</glyph>
<glyph name="uni026B" format="2">
  <advance width="500"/>
  <unicode hex="026B"/>
  <anchor x="258" y="0" name="bottom"/>
  <anchor x="250" y="760" name="top"/>
  <anchor x="396" y="760" name="topright"/>
  <anchor x="255" y="376" name="center"/>
  <outline>
    <contour>
      <point x="127" y="351" type="curve"/>
      <point x="150" y="351" type="line"/>
      <point x="153" y="394"/>
      <point x="171" y="416"/>
      <point x="197" y="416" type="curve" smooth="yes"/>
      <point x="241" y="416"/>
      <point x="261" y="351"/>
      <point x="316" y="351" type="curve" smooth="yes"/>
      <point x="353" y="351"/>
      <point x="385" y="379"/>
      <point x="386" y="440" type="curve"/>
      <point x="364" y="440" type="line"/>
      <point x="361" y="398"/>
      <point x="343" y="374"/>
      <point x="316" y="374" type="curve" smooth="yes"/>
      <point x="271" y="374"/>
      <point x="249" y="439"/>
      <point x="195" y="439" type="curve" smooth="yes"/>
      <point x="161" y="439"/>
      <point x="132" y="414"/>
    </contour>
    <component base="l"/>
  </outline>
</glyph>
<glyph name="uni026C" format="2">
  <advance width="500"/>
  <unicode hex="026C"/>
  <anchor x="250" y="0" name="bottom"/>
  <anchor x="256" y="760" name="top"/>
  <anchor x="396" y="760" name="topright"/>
  <anchor x="255" y="376" name="center"/>
  <outline>
    <contour>
      <point x="220" y="331" type="curve"/>
      <point x="369" y="331" type="line"/>
      <point x="369" y="354" type="line"/>
      <point x="269" y="354" type="line"/>
      <point x="243" y="442" type="line"/>
      <point x="227" y="465"/>
      <point x="203" y="474"/>
      <point x="178" y="474" type="curve" smooth="yes"/>
      <point x="136" y="474"/>
      <point x="107" y="450"/>
      <point x="107" y="406" type="curve" smooth="yes"/>
      <point x="107" y="344"/>
      <point x="162" y="331"/>
    </contour>
    <contour>
      <point x="214" y="354" type="line" smooth="yes"/>
      <point x="156" y="354"/>
      <point x="131" y="371"/>
      <point x="131" y="406" type="curve" smooth="yes"/>
      <point x="131" y="431"/>
      <point x="146" y="451"/>
      <point x="178" y="451" type="curve" smooth="yes"/>
      <point x="233" y="451"/>
      <point x="243" y="395"/>
      <point x="243" y="360" type="curve" smooth="yes"/>
      <point x="243" y="354" type="line"/>
    </contour>
    <component base="l"/>
  </outline>
</glyph>
<glyph name="uni026D" format="2">
  <advance width="500"/>
  <unicode hex="026D"/>
  <anchor x="356" y="-240" name="bottom"/>
  <anchor x="257" y="760" name="top"/>
  <outline>
    <contour>
      <point x="342" y="-242" type="curve" smooth="yes"/>
      <point x="369" y="-242"/>
      <point x="387" y="-236"/>
      <point x="397" y="-231" type="curve"/>
      <point x="397" y="-206" type="line"/>
      <point x="384" y="-212"/>
      <point x="367" y="-217"/>
      <point x="344" y="-217" type="curve" smooth="yes"/>
      <point x="292" y="-217"/>
      <point x="269" y="-187"/>
      <point x="269" y="-118" type="curve" smooth="yes"/>
      <point x="269" y="760" type="line"/>
      <point x="94" y="760" type="line"/>
      <point x="94" y="739" type="line"/>
      <point x="243" y="735" type="line"/>
      <point x="243" y="-121" type="line" smooth="yes"/>
      <point x="243" y="-205"/>
      <point x="279" y="-242"/>
    </contour>
  </outline>
</glyph>
<glyph name="uni026E" format="2">
  <advance width="500"/>
  <unicode hex="026E"/>
  <anchor x="238" y="-240" name="bottom"/>
  <anchor x="102" y="760" name="top"/>
  <outline>
    <contour>
      <point x="243" y="-241" type="curve" smooth="yes"/>
      <point x="374" y="-241"/>
      <point x="435" y="-139"/>
      <point x="435" y="-11" type="curve" smooth="yes"/>
      <point x="435" y="123"/>
      <point x="370" y="202"/>
      <point x="212" y="202" type="curve"/>
      <point x="422" y="507" type="line"/>
      <point x="422" y="528" type="line"/>
      <point x="110" y="528" type="line"/>
      <point x="110" y="760" type="line"/>
      <point x="84" y="760" type="line"/>
      <point x="84" y="0" type="line"/>
      <point x="110" y="0" type="line"/>
      <point x="110" y="503" type="line"/>
      <point x="387" y="503" type="line"/>
      <point x="179" y="197" type="line"/>
      <point x="179" y="178" type="line"/>
      <point x="211" y="178" type="line" smooth="yes"/>
      <point x="348" y="178"/>
      <point x="408" y="114"/>
      <point x="408" y="-10" type="curve" smooth="yes"/>
      <point x="408" y="-133"/>
      <point x="351" y="-216"/>
      <point x="243" y="-216" type="curve" smooth="yes"/>
      <point x="195" y="-216"/>
      <point x="153" y="-203"/>
      <point x="117" y="-182" type="curve"/>
      <point x="117" y="-212" type="line"/>
      <point x="151" y="-228"/>
      <point x="189" y="-241"/>
    </contour>
  </outline>
</glyph>
<glyph name="uni0270" format="2">
  <advance width="500"/>
  <unicode hex="0270"/>
  <anchor x="431" y="-240" name="bottom"/>
  <anchor x="250" y="528" name="top"/>
  <outline>
    <contour>
      <point x="418" y="-240" type="line"/>
      <point x="444" y="-240" type="line"/>
      <point x="444" y="528" type="line"/>
      <point x="418" y="528" type="line"/>
      <point x="418" y="162" type="line" smooth="yes"/>
      <point x="418" y="88"/>
      <point x="387" y="15"/>
      <point x="328" y="15" type="curve" smooth="yes"/>
      <point x="292" y="15"/>
      <point x="262" y="31"/>
      <point x="262" y="144" type="curve" smooth="yes"/>
      <point x="262" y="528" type="line"/>
      <point x="236" y="528" type="line"/>
      <point x="236" y="162" type="line" smooth="yes"/>
      <point x="236" y="70"/>
      <point x="202" y="15"/>
      <point x="149" y="15" type="curve" smooth="yes"/>
      <point x="112" y="15"/>
      <point x="82" y="35"/>
      <point x="82" y="127" type="curve" smooth="yes"/>
      <point x="82" y="528" type="line"/>
      <point x="56" y="528" type="line"/>
      <point x="56" y="125" type="line" smooth="yes"/>
      <point x="56" y="23"/>
      <point x="90" y="-9"/>
      <point x="146" y="-9" type="curve" smooth="yes"/>
      <point x="201" y="-9"/>
      <point x="229" y="27"/>
      <point x="242" y="68" type="curve"/>
      <point x="245" y="68" type="line"/>
      <point x="250" y="32"/>
      <point x="271" y="-9"/>
      <point x="326" y="-9" type="curve" smooth="yes"/>
      <point x="383" y="-9"/>
      <point x="405" y="35"/>
      <point x="415" y="66" type="curve"/>
      <point x="418" y="66" type="line"/>
    </contour>
  </outline>
</glyph>
<glyph name="uni0276" format="2">
  <advance width="500"/>
  <unicode hex="0276"/>
  <anchor x="250" y="0" name="bottom"/>
  <anchor x="250" y="528" name="top"/>
  <outline>
    <contour>
      <point x="172" y="-10" type="curve" smooth="yes"/>
      <point x="227" y="-10"/>
      <point x="255" y="25"/>
      <point x="279" y="82" type="curve"/>
      <point x="279" y="0" type="line"/>
      <point x="474" y="0" type="line"/>
      <point x="474" y="25" type="line"/>
      <point x="305" y="25" type="line"/>
      <point x="305" y="275" type="line"/>
      <point x="462" y="275" type="line"/>
      <point x="462" y="300" type="line"/>
      <point x="305" y="300" type="line"/>
      <point x="305" y="502" type="line"/>
      <point x="474" y="502" type="line"/>
      <point x="474" y="527" type="line"/>
      <point x="279" y="527" type="line"/>
      <point x="279" y="450" type="line"/>
      <point x="260" y="497"/>
      <point x="233" y="537"/>
      <point x="173" y="537" type="curve" smooth="yes"/>
      <point x="83" y="537"/>
      <point x="36" y="448"/>
      <point x="36" y="265" type="curve" smooth="yes"/>
      <point x="36" y="82"/>
      <point x="83" y="-10"/>
    </contour>
    <contour>
      <point x="172" y="14" type="curve" smooth="yes"/>
      <point x="98" y="14"/>
      <point x="62" y="101"/>
      <point x="62" y="265" type="curve" smooth="yes"/>
      <point x="62" y="428"/>
      <point x="98" y="513"/>
      <point x="174" y="513" type="curve" smooth="yes"/>
      <point x="248" y="513"/>
      <point x="282" y="433"/>
      <point x="282" y="268" type="curve" smooth="yes"/>
      <point x="282" y="99"/>
      <point x="246" y="14"/>
    </contour>
  </outline>
</glyph>
<glyph name="uni027B" format="2">
  <advance width="500"/>
  <unicode hex="027B"/>
  <anchor x="233" y="-240" name="bottom"/>
  <anchor x="280" y="528" name="top"/>
  <outline>
    <contour>
      <point x="335" y="-242" type="curve" smooth="yes"/>
      <point x="350" y="-242"/>
      <point x="360" y="-239"/>
      <point x="368" y="-236" type="curve"/>
      <point x="368" y="-210" type="line"/>
      <point x="357" y="-215"/>
      <point x="348" y="-217"/>
      <point x="337" y="-217" type="curve" smooth="yes"/>
      <point x="305" y="-217"/>
      <point x="292" y="-193"/>
      <point x="292" y="-142" type="curve" smooth="yes"/>
      <point x="292" y="528" type="line"/>
      <point x="266" y="528" type="line"/>
      <point x="266" y="229" type="line" smooth="yes"/>
      <point x="266" y="89"/>
      <point x="212" y="18"/>
      <point x="116" y="18" type="curve" smooth="yes"/>
      <point x="85" y="18"/>
      <point x="60" y="25"/>
      <point x="47" y="31" type="curve"/>
      <point x="39" y="5" type="line"/>
      <point x="53" y="-1"/>
      <point x="78" y="-8"/>
      <point x="113" y="-8" type="curve" smooth="yes"/>
      <point x="197" y="-8"/>
      <point x="249" y="45"/>
      <point x="265" y="101" type="curve"/>
      <point x="267" y="101" type="line"/>
      <point x="267" y="78"/>
      <point x="266" y="51"/>
      <point x="266" y="28" type="curve" smooth="yes"/>
      <point x="266" y="-145" type="line" smooth="yes"/>
      <point x="266" y="-217"/>
      <point x="293" y="-242"/>
    </contour>
  </outline>
</glyph>
<glyph name="uni0288" format="2">
  <advance width="500"/>
  <unicode hex="0288"/>
  <anchor x="250" y="-240" name="bottom"/>
  <anchor x="250" y="659" name="top"/>
  <outline>
    <contour>
      <point x="371" y="-240" type="curve" smooth="yes"/>
      <point x="406" y="-240"/>
      <point x="428" y="-234"/>
      <point x="450" y="-227" type="curve"/>
      <point x="450" y="-202" type="line"/>
      <point x="428" y="-210"/>
      <point x="404" y="-215"/>
      <point x="371" y="-215" type="curve" smooth="yes"/>
      <point x="285" y="-215"/>
      <point x="261" y="-155"/>
      <point x="261" y="-47" type="curve" smooth="yes"/>
      <point x="261" y="503" type="line"/>
      <point x="438" y="503" type="line"/>
      <point x="438" y="528" type="line"/>
      <point x="261" y="528" type="line"/>
      <point x="261" y="659" type="line"/>
      <point x="239" y="659" type="line"/>
      <point x="234" y="528" type="line"/>
      <point x="104" y="524" type="line"/>
      <point x="104" y="503" type="line"/>
      <point x="235" y="503" type="line"/>
      <point x="235" y="-50" type="line" smooth="yes"/>
      <point x="235" y="-168"/>
      <point x="266" y="-240"/>
    </contour>
  </outline>
</glyph>
<glyph name="uni028B" format="2">
  <advance width="500"/>
  <unicode hex="028B"/>
  <anchor x="250" y="0" name="bottom"/>
  <anchor x="250" y="528" name="top"/>
  <outline>
    <contour>
      <point x="250" y="-10" type="curve" smooth="yes"/>
      <point x="364" y="-10"/>
      <point x="409" y="62"/>
      <point x="409" y="172" type="curve" smooth="yes"/>
      <point x="409" y="429" type="line" smooth="yes"/>
      <point x="409" y="506"/>
      <point x="376" y="542"/>
      <point x="319" y="542" type="curve" smooth="yes"/>
      <point x="299" y="542"/>
      <point x="288" y="539"/>
      <point x="278" y="536" type="curve"/>
      <point x="278" y="510" type="line"/>
      <point x="289" y="514"/>
      <point x="300" y="517"/>
      <point x="317" y="517" type="curve" smooth="yes"/>
      <point x="361" y="517"/>
      <point x="383" y="487"/>
      <point x="383" y="422" type="curve" smooth="yes"/>
      <point x="383" y="171" type="line" smooth="yes"/>
      <point x="383" y="66"/>
      <point x="339" y="15"/>
      <point x="251" y="15" type="curve" smooth="yes"/>
      <point x="165" y="15"/>
      <point x="117" y="67"/>
      <point x="117" y="171" type="curve" smooth="yes"/>
      <point x="117" y="528" type="line"/>
      <point x="91" y="528" type="line"/>
      <point x="91" y="172" type="line" smooth="yes"/>
      <point x="91" y="60"/>
      <point x="138" y="-10"/>
    </contour>
  </outline>
</glyph>
<glyph name="uni028F" format="2">
  <advance width="500"/>
  <unicode hex="028F"/>
  <anchor x="250" y="0" name="bottom"/>
  <anchor x="250" y="528" name="top"/>
  <outline>
    <contour>
      <point x="235" y="0" type="line"/>
      <point x="261" y="0" type="line"/>
      <point x="261" y="230" type="line"/>
      <point x="474" y="528" type="line"/>
      <point x="442" y="528" type="line"/>
      <point x="248" y="256" type="line"/>
      <point x="58" y="528" type="line"/>
      <point x="26" y="528" type="line"/>
      <point x="235" y="230" type="line"/>
    </contour>
  </outline>
</glyph>
<glyph name="uni0291" format="2">
  <advance width="500"/>
  <unicode hex="0291"/>
  <anchor x="259" y="-76" name="bottom"/>
  <anchor x="229" y="528" name="top"/>
  <outline>
    <contour>
      <point x="189" y="-72" type="line"/>
      <point x="197" y="-46"/>
      <point x="206" y="-21"/>
      <point x="215" y="0" type="curve"/>
      <point x="328" y="0" type="line" smooth="yes"/>
      <point x="409" y="0"/>
      <point x="455" y="36"/>
      <point x="455" y="98" type="curve" smooth="yes"/>
      <point x="455" y="147"/>
      <point x="425" y="184"/>
      <point x="365" y="184" type="curve" smooth="yes"/>
      <point x="283" y="184"/>
      <point x="236" y="121"/>
      <point x="196" y="25" type="curve"/>
      <point x="85" y="25" type="line"/>
      <point x="374" y="506" type="line"/>
      <point x="374" y="528" type="line"/>
      <point x="76" y="528" type="line"/>
      <point x="76" y="503" type="line"/>
      <point x="342" y="503" type="line"/>
      <point x="55" y="22" type="line"/>
      <point x="55" y="0" type="line"/>
      <point x="187" y="0" type="line"/>
      <point x="179" y="-20"/>
      <point x="171" y="-42"/>
      <point x="164" y="-64" type="curve"/>
    </contour>
    <contour>
      <point x="224" y="25" type="line"/>
      <point x="259" y="106"/>
      <point x="300" y="159"/>
      <point x="364" y="159" type="curve" smooth="yes"/>
      <point x="410" y="159"/>
      <point x="429" y="130"/>
      <point x="429" y="98" type="curve" smooth="yes"/>
      <point x="429" y="56"/>
      <point x="398" y="25"/>
      <point x="326" y="25" type="curve" smooth="yes"/>
    </contour>
  </outline>
</glyph>
<glyph name="uni0294" format="2">
  <advance width="500"/>
  <unicode hex="0294"/>
  <anchor x="226" y="0" name="bottom"/>
  <anchor x="226" y="764" name="top"/>
  <outline>
    <contour>
      <point x="214" y="0" type="line"/>
      <point x="240" y="0" type="line"/>
      <point x="240" y="322" type="line"/>
      <point x="341" y="374"/>
      <point x="421" y="451"/>
      <point x="421" y="581" type="curve" smooth="yes"/>
      <point x="421" y="700"/>
      <point x="352" y="764"/>
      <point x="232" y="764" type="curve" smooth="yes"/>
      <point x="155" y="764"/>
      <point x="102" y="740"/>
      <point x="66" y="718" type="curve"/>
      <point x="77" y="695" type="line"/>
      <point x="108" y="714"/>
      <point x="158" y="739"/>
      <point x="231" y="739" type="curve" smooth="yes"/>
      <point x="335" y="739"/>
      <point x="394" y="687"/>
      <point x="394" y="578" type="curve" smooth="yes"/>
      <point x="394" y="467"/>
      <point x="330" y="397"/>
      <point x="214" y="333" type="curve"/>
    </contour>
  </outline>
</glyph>
<glyph name="uni029B" format="2">
  <advance width="500"/>
  <unicode hex="029B"/>
  <anchor x="289" y="0" name="bottom"/>
  <anchor x="280" y="760" name="top"/>
  <outline>
    <contour>
      <point x="282" y="-9" type="curve" smooth="yes"/>
      <point x="341" y="-9"/>
      <point x="383" y="0"/>
      <point x="420" y="15" type="curve"/>
      <point x="420" y="262" type="line"/>
      <point x="259" y="262" type="line"/>
      <point x="259" y="237" type="line"/>
      <point x="394" y="237" type="line"/>
      <point x="394" y="32" type="line"/>
      <point x="364" y="23"/>
      <point x="333" y="16"/>
      <point x="286" y="16" type="curve" smooth="yes"/>
      <point x="143" y="16"/>
      <point x="77" y="113"/>
      <point x="77" y="263" type="curve" smooth="yes"/>
      <point x="77" y="419"/>
      <point x="157" y="514"/>
      <point x="286" y="514" type="curve" smooth="yes"/>
      <point x="338" y="514"/>
      <point x="374" y="505"/>
      <point x="403" y="489" type="curve"/>
      <point x="413" y="513" type="line"/>
      <point x="413" y="654" type="line" smooth="yes"/>
      <point x="413" y="717"/>
      <point x="435" y="742"/>
      <point x="475" y="742" type="curve" smooth="yes"/>
      <point x="491" y="742"/>
      <point x="504" y="739"/>
      <point x="517" y="733" type="curve"/>
      <point x="517" y="759" type="line"/>
      <point x="507" y="763"/>
      <point x="494" y="767"/>
      <point x="474" y="767" type="curve" smooth="yes"/>
      <point x="420" y="767"/>
      <point x="388" y="734"/>
      <point x="388" y="657" type="curve" smooth="yes"/>
      <point x="388" y="524" type="line"/>
      <point x="362" y="533"/>
      <point x="332" y="539"/>
      <point x="288" y="539" type="curve" smooth="yes"/>
      <point x="136" y="539"/>
      <point x="51" y="428"/>
      <point x="51" y="264" type="curve" smooth="yes"/>
      <point x="51" y="96"/>
      <point x="132" y="-9"/>
    </contour>
  </outline>
</glyph>
<glyph name="uni029F" format="2">
  <advance width="500"/>
  <unicode hex="029F"/>
  <anchor x="298" y="0" name="bottom"/>
  <anchor x="165" y="528" name="top"/>
  <outline>
    <contour>
      <point x="151" y="0" type="line"/>
      <point x="437" y="0" type="line"/>
      <point x="437" y="25" type="line"/>
      <point x="177" y="25" type="line"/>
      <point x="177" y="528" type="line"/>
      <point x="151" y="528" type="line"/>
    </contour>
  </outline>
</glyph>
<glyph name="uni02A1" format="2">
  <advance width="500"/>
  <unicode hex="02A1"/>
  <anchor x="226" y="0" name="bottom"/>
  <anchor x="250" y="764" name="top"/>
  <outline>
    <contour>
      <point x="88" y="170" type="line"/>
      <point x="379" y="170" type="line"/>
      <point x="379" y="194" type="line"/>
      <point x="88" y="194" type="line"/>
    </contour>
    <component base="uni0294"/>
  </outline>
</glyph>
<glyph name="dzlig" format="2">
  <advance width="500"/>
  <unicode hex="02A3"/>
  <anchor x="250" y="0" name="bottom"/>
  <anchor x="250" y="761" name="top"/>
  <outline>
    <contour>
      <point x="147" y="-10" type="curve" smooth="yes"/>
      <point x="206" y="-10"/>
      <point x="240" y="28"/>
      <point x="254" y="82" type="curve"/>
      <point x="255" y="82" type="line"/>
      <point x="257" y="0" type="line"/>
      <point x="486" y="0" type="line"/>
      <point x="486" y="25" type="line"/>
      <point x="306" y="25" type="line"/>
      <point x="487" y="514" type="line"/>
      <point x="487" y="529" type="line"/>
      <point x="280" y="529" type="line"/>
      <point x="280" y="761" type="line"/>
      <point x="254" y="761" type="line"/>
      <point x="254" y="544" type="line" smooth="yes"/>
      <point x="254" y="502"/>
      <point x="254" y="500"/>
      <point x="255" y="455" type="curve"/>
      <point x="254" y="455" type="line"/>
      <point x="238" y="519"/>
      <point x="197" y="539"/>
      <point x="157" y="539" type="curve" smooth="yes"/>
      <point x="70" y="539"/>
      <point x="27" y="450"/>
      <point x="27" y="254" type="curve" smooth="yes"/>
      <point x="27" y="73"/>
      <point x="67" y="-10"/>
    </contour>
    <contour>
      <point x="148" y="15" type="curve" smooth="yes"/>
      <point x="86" y="15"/>
      <point x="54" y="84"/>
      <point x="54" y="254" type="curve" smooth="yes"/>
      <point x="54" y="433"/>
      <point x="86" y="514"/>
      <point x="157" y="514" type="curve" smooth="yes"/>
      <point x="219" y="514"/>
      <point x="254" y="457"/>
      <point x="254" y="266" type="curve" smooth="yes"/>
      <point x="254" y="263" type="line" smooth="yes"/>
      <point x="254" y="107"/>
      <point x="228" y="15"/>
    </contour>
    <contour>
      <point x="280" y="27" type="line"/>
      <point x="280" y="504" type="line"/>
      <point x="454" y="504" type="line"/>
    </contour>
  </outline>
</glyph>
<glyph name="uni02A4" format="2">
  <advance width="500"/>
  <unicode hex="02A4"/>
  <anchor x="250" y="-240" name="bottom"/>
  <anchor x="250" y="760" name="top"/>
  <outline>
    <contour>
      <point x="342" y="-242" type="curve" smooth="yes"/>
      <point x="443" y="-242"/>
      <point x="482" y="-129"/>
      <point x="482" y="-8" type="curve" smooth="yes"/>
      <point x="482" y="127"/>
      <point x="426" y="208"/>
      <point x="334" y="209" type="curve"/>
      <point x="470" y="506" type="line"/>
      <point x="470" y="527" type="line"/>
      <point x="272" y="527" type="line"/>
      <point x="272" y="760" type="line"/>
      <point x="246" y="760" type="line"/>
      <point x="246" y="497" type="line" smooth="yes"/>
      <point x="246" y="475"/>
      <point x="247" y="484"/>
      <point x="248" y="459" type="curve"/>
      <point x="246" y="459" type="line"/>
      <point x="235" y="504"/>
      <point x="204" y="537"/>
      <point x="158" y="537" type="curve" smooth="yes"/>
      <point x="79" y="537"/>
      <point x="25" y="463"/>
      <point x="25" y="256" type="curve" smooth="yes"/>
      <point x="25" y="72"/>
      <point x="71" y="-10"/>
      <point x="147" y="-10" type="curve" smooth="yes"/>
      <point x="203" y="-10"/>
      <point x="234" y="35"/>
      <point x="246" y="86" type="curve"/>
      <point x="248" y="86" type="line"/>
      <point x="251" y="0" type="line"/>
      <point x="272" y="0" type="line"/>
      <point x="272" y="502" type="line"/>
      <point x="441" y="502" type="line"/>
      <point x="305" y="202" type="line"/>
      <point x="305" y="185" type="line"/>
      <point x="331" y="185" type="line" smooth="yes"/>
      <point x="410" y="185"/>
      <point x="455" y="116"/>
      <point x="455" y="-6" type="curve" smooth="yes"/>
      <point x="455" y="-131"/>
      <point x="413" y="-217"/>
      <point x="342" y="-217" type="curve" smooth="yes"/>
      <point x="308" y="-217"/>
      <point x="278" y="-204"/>
      <point x="254" y="-185" type="curve"/>
      <point x="254" y="-215" type="line"/>
      <point x="274" y="-228"/>
      <point x="301" y="-242"/>
    </contour>
    <contour>
      <point x="149" y="15" type="curve" smooth="yes"/>
      <point x="84" y="15"/>
      <point x="52" y="94"/>
      <point x="52" y="256" type="curve" smooth="yes"/>
      <point x="52" y="443"/>
      <point x="94" y="512"/>
      <point x="159" y="512" type="curve" smooth="yes"/>
      <point x="210" y="512"/>
      <point x="246" y="462"/>
      <point x="246" y="315" type="curve" smooth="yes"/>
      <point x="246" y="221" type="line" smooth="yes"/>
      <point x="246" y="77"/>
      <point x="208" y="15"/>
    </contour>
  </outline>
</glyph>
<glyph name="dzligcurl" format="2">
  <advance width="500"/>
  <unicode hex="02A5"/>
  <anchor x="267" y="0" name="bottom"/>
  <anchor x="267" y="760" name="top"/>
  <outline>
    <contour>
      <point x="391" y="-72" type="line"/>
      <point x="399" y="-46"/>
      <point x="408" y="-21"/>
      <point x="417" y="0" type="curve"/>
      <point x="530" y="0" type="line" smooth="yes"/>
      <point x="611" y="0"/>
      <point x="657" y="36"/>
      <point x="657" y="98" type="curve" smooth="yes"/>
      <point x="657" y="147"/>
      <point x="627" y="184"/>
      <point x="567" y="184" type="curve" smooth="yes"/>
      <point x="485" y="184"/>
      <point x="438" y="121"/>
      <point x="398" y="25" type="curve"/>
      <point x="281" y="25" type="line"/>
      <point x="602" y="508" type="line"/>
      <point x="602" y="528" type="line"/>
      <point x="254" y="528" type="line"/>
      <point x="254" y="760" type="line"/>
      <point x="228" y="760" type="line"/>
      <point x="228" y="543" type="line" smooth="yes"/>
      <point x="228" y="501"/>
      <point x="228" y="459"/>
      <point x="230" y="414" type="curve"/>
      <point x="228" y="414" type="line"/>
      <point x="206" y="484"/>
      <point x="147" y="538"/>
      <point x="61" y="538" type="curve" smooth="yes"/>
      <point x="-75" y="538"/>
      <point x="-157" y="437"/>
      <point x="-157" y="254" type="curve" smooth="yes"/>
      <point x="-157" y="83"/>
      <point x="-85" y="-10"/>
      <point x="53" y="-10" type="curve" smooth="yes"/>
      <point x="148" y="-10"/>
      <point x="204" y="46"/>
      <point x="228" y="113" type="curve"/>
      <point x="230" y="113" type="line"/>
      <point x="232" y="0" type="line"/>
      <point x="389" y="0" type="line"/>
      <point x="381" y="-20"/>
      <point x="373" y="-42"/>
      <point x="366" y="-64" type="curve"/>
    </contour>
    <contour>
      <point x="53" y="15" type="curve" smooth="yes"/>
      <point x="-67" y="15"/>
      <point x="-130" y="94"/>
      <point x="-130" y="254" type="curve" smooth="yes"/>
      <point x="-130" y="427"/>
      <point x="-57" y="513"/>
      <point x="61" y="513" type="curve" smooth="yes"/>
      <point x="170" y="513"/>
      <point x="228" y="426"/>
      <point x="228" y="266" type="curve" smooth="yes"/>
      <point x="228" y="263" type="line" smooth="yes"/>
      <point x="228" y="107"/>
      <point x="176" y="15"/>
    </contour>
    <contour>
      <point x="426" y="25" type="line"/>
      <point x="461" y="106"/>
      <point x="502" y="159"/>
      <point x="566" y="159" type="curve" smooth="yes"/>
      <point x="612" y="159"/>
      <point x="631" y="130"/>
      <point x="631" y="98" type="curve" smooth="yes"/>
      <point x="631" y="56"/>
      <point x="600" y="25"/>
      <point x="528" y="25" type="curve" smooth="yes"/>
    </contour>
    <contour>
      <point x="254" y="29" type="line"/>
      <point x="254" y="503" type="line"/>
      <point x="566" y="503" type="line"/>
    </contour>
  </outline>
</glyph>
<glyph name="tslig" format="2">
  <advance width="500"/>
  <unicode hex="02A6"/>
  <anchor x="250" y="0" name="bottom"/>
  <anchor x="250" y="656" name="top"/>
  <outline>
    <contour>
      <point x="185" y="-10" type="curve" smooth="yes"/>
      <point x="300" y="-10" type="line" smooth="yes"/>
      <point x="388" y="-10"/>
      <point x="431" y="42"/>
      <point x="431" y="121" type="curve" smooth="yes"/>
      <point x="431" y="210"/>
      <point x="377" y="244"/>
      <point x="319" y="279" type="curve" smooth="yes"/>
      <point x="258" y="316"/>
      <point x="219" y="340"/>
      <point x="219" y="404" type="curve" smooth="yes"/>
      <point x="219" y="473"/>
      <point x="263" y="512"/>
      <point x="329" y="512" type="curve" smooth="yes"/>
      <point x="360" y="512"/>
      <point x="392" y="503"/>
      <point x="414" y="487" type="curve"/>
      <point x="428" y="510" type="line"/>
      <point x="402" y="527"/>
      <point x="366" y="537"/>
      <point x="329" y="537" type="curve" smooth="yes"/>
      <point x="306" y="537"/>
      <point x="286" y="533"/>
      <point x="269" y="527" type="curve"/>
      <point x="97" y="527" type="line"/>
      <point x="97" y="656" type="line"/>
      <point x="76" y="656" type="line"/>
      <point x="69" y="528" type="line"/>
      <point x="21" y="521" type="line"/>
      <point x="21" y="502" type="line"/>
      <point x="71" y="502" type="line"/>
      <point x="71" y="105" type="line" smooth="yes"/>
      <point x="71" y="31"/>
      <point x="108" y="-10"/>
    </contour>
    <contour>
      <point x="190" y="15" type="line" smooth="yes"/>
      <point x="127" y="15"/>
      <point x="97" y="44"/>
      <point x="97" y="111" type="curve" smooth="yes"/>
      <point x="97" y="502" type="line"/>
      <point x="230" y="502" type="line"/>
      <point x="204" y="477"/>
      <point x="192" y="442"/>
      <point x="192" y="404" type="curve" smooth="yes"/>
      <point x="192" y="328"/>
      <point x="238" y="298"/>
      <point x="300" y="259" type="curve" smooth="yes"/>
      <point x="362" y="220"/>
      <point x="403" y="194"/>
      <point x="403" y="121" type="curve" smooth="yes"/>
      <point x="403" y="54"/>
      <point x="368" y="15"/>
      <point x="295" y="15" type="curve" smooth="yes"/>
    </contour>
  </outline>
</glyph>
<glyph name="uni02AB" format="2">
  <advance width="500"/>
  <unicode hex="02AB"/>
  <anchor x="250" y="0" name="bottom"/>
  <anchor x="250" y="760" name="top"/>
  <outline>
    <contour>
      <point x="101" y="0" type="line"/>
      <point x="431" y="0" type="line"/>
      <point x="431" y="25" type="line"/>
      <point x="153" y="25" type="line"/>
      <point x="431" y="509" type="line"/>
      <point x="431" y="528" type="line"/>
      <point x="127" y="528" type="line"/>
      <point x="127" y="760" type="line"/>
      <point x="101" y="760" type="line"/>
    </contour>
    <contour>
      <point x="127" y="33" type="line"/>
      <point x="127" y="503" type="line"/>
      <point x="397" y="503" type="line"/>
    </contour>
  </outline>
</glyph>
<glyph name="uni02AD" format="2">
  <advance width="500"/>
  <unicode hex="02AD"/>
  <anchor x="250" y="0" name="bottom"/>
  <anchor x="250" y="714" name="top"/>
  <outline>
    <contour>
      <point x="75" y="484" type="line"/>
      <point x="101" y="484" type="line"/>
      <point x="101" y="689" type="line"/>
      <point x="364" y="689" type="line"/>
      <point x="364" y="484" type="line"/>
      <point x="390" y="484" type="line"/>
      <point x="390" y="714" type="line"/>
      <point x="75" y="714" type="line"/>
    </contour>
    <contour>
      <point x="75" y="0" type="line"/>
      <point x="101" y="0" type="line"/>
      <point x="101" y="204" type="line"/>
      <point x="364" y="204" type="line"/>
      <point x="364" y="0" type="line"/>
      <point x="390" y="0" type="line"/>
      <point x="390" y="229" type="line"/>
      <point x="75" y="229" type="line"/>
    </contour>
  </outline>
</glyph>
<glyph name="uni02BF" format="2">
  <advance width="500"/>
  <unicode hex="02BF"/>
  <outline>
    <contour>
      <point x="304" y="575" type="curve"/>
      <point x="304" y="597" type="line"/>
      <point x="254" y="597"/>
      <point x="221" y="625"/>
      <point x="221" y="680" type="curve" smooth="yes"/>
      <point x="221" y="728"/>
      <point x="247" y="759"/>
      <point x="304" y="759" type="curve"/>
      <point x="304" y="781" type="line"/>
      <point x="237" y="781"/>
      <point x="197" y="743"/>
      <point x="197" y="680" type="curve" smooth="yes"/>
      <point x="197" y="612"/>
      <point x="238" y="575"/>
    </contour>
  </outline>
</glyph>
<glyph name="uni02C4" format="2">
  <advance width="500"/>
  <unicode hex="02C4"/>
  <outline>
    <contour>
      <point x="132" y="549" type="line"/>
      <point x="154" y="549" type="line"/>
      <point x="242" y="759" type="line"/>
      <point x="348" y="549" type="line"/>
      <point x="369" y="549" type="line"/>
      <point x="253" y="778" type="line"/>
      <point x="230" y="778" type="line"/>
    </contour>
  </outline>
</glyph>
<glyph name="circumflex" format="2">
  <advance width="500"/>
  <unicode hex="02C6"/>
  <outline>
    <contour>
      <point x="135" y="606" type="line"/>
      <point x="153" y="606" type="line"/>
      <point x="185" y="641"/>
      <point x="224" y="695"/>
      <point x="250" y="732" type="curve"/>
      <point x="278" y="693"/>
      <point x="314" y="642"/>
      <point x="347" y="606" type="curve"/>
      <point x="365" y="606" type="line"/>
      <point x="365" y="613" type="line"/>
      <point x="340" y="643"/>
      <point x="288" y="719"/>
      <point x="263" y="763" type="curve"/>
      <point x="237" y="763" type="line"/>
      <point x="213" y="721"/>
      <point x="164" y="649"/>
      <point x="135" y="613" type="curve"/>
    </contour>
  </outline>
</glyph>
<glyph name="caron" format="2">
  <advance width="500"/>
  <unicode hex="02C7"/>
  <anchor x="249" y="528" name="_top"/>
  <anchor x="249" y="763" name="top"/>
  <outline>
    <contour>
      <point x="238" y="606" type="curve"/>
      <point x="261" y="606" type="line"/>
      <point x="286" y="650"/>
      <point x="330" y="715"/>
      <point x="363" y="757" type="curve"/>
      <point x="363" y="763" type="line"/>
      <point x="345" y="763" type="line"/>
      <point x="309" y="722"/>
      <point x="276" y="679"/>
      <point x="249" y="638" type="curve"/>
      <point x="223" y="679"/>
      <point x="187" y="728"/>
      <point x="155" y="763" type="curve"/>
      <point x="137" y="763" type="line"/>
      <point x="137" y="757" type="line"/>
      <point x="166" y="721"/>
      <point x="212" y="652"/>
    </contour>
  </outline>
</glyph>
<glyph name="ogonek" format="2">
  <advance width="500"/>
  <unicode hex="02DB"/>
  <outline>
    <contour>
      <point x="269" y="-217" type="curve" smooth="yes"/>
      <point x="284" y="-217"/>
      <point x="300" y="-214"/>
      <point x="309" y="-210" type="curve"/>
      <point x="309" y="-187" type="line"/>
      <point x="301" y="-190"/>
      <point x="283" y="-193"/>
      <point x="270" y="-193" type="curve" smooth="yes"/>
      <point x="234" y="-193"/>
      <point x="217" y="-172"/>
      <point x="217" y="-135" type="curve" smooth="yes"/>
      <point x="217" y="-83"/>
      <point x="252" y="-42"/>
      <point x="301" y="0" type="curve"/>
      <point x="282" y="10" type="line"/>
      <point x="221" y="-38"/>
      <point x="190" y="-87"/>
      <point x="190" y="-138" type="curve" smooth="yes"/>
      <point x="190" y="-190"/>
      <point x="222" y="-217"/>
    </contour>
  </outline>
</glyph>
<glyph name="tilde" format="2">
  <advance width="500"/>
  <unicode hex="02DC"/>
  <outline>
    <contour>
      <point x="103" y="625" type="curve"/>
      <point x="127" y="625" type="line"/>
      <point x="131" y="677"/>
      <point x="156" y="694"/>
      <point x="181" y="694" type="curve" smooth="yes"/>
      <point x="231" y="694"/>
      <point x="253" y="624"/>
      <point x="315" y="624" type="curve" smooth="yes"/>
      <point x="358" y="624"/>
      <point x="392" y="655"/>
      <point x="395" y="718" type="curve"/>
      <point x="372" y="718" type="line"/>
      <point x="367" y="667"/>
      <point x="343" y="648"/>
      <point x="315" y="648" type="curve" smooth="yes"/>
      <point x="266" y="648"/>
      <point x="242" y="718"/>
      <point x="182" y="718" type="curve" smooth="yes"/>
      <point x="139" y="718"/>
      <point x="108" y="689"/>
    </contour>
  </outline>
</glyph>
<glyph name="hungarumlaut" format="2">
  <advance width="500"/>
  <unicode hex="02DD"/>
  <outline>
    <contour>
      <point x="295" y="606" type="line"/>
      <point x="314" y="606" type="line"/>
      <point x="354" y="648"/>
      <point x="407" y="721"/>
      <point x="429" y="759" type="curve"/>
      <point x="429" y="766" type="line"/>
      <point x="400" y="766" type="line"/>
      <point x="379" y="726"/>
      <point x="330" y="654"/>
      <point x="295" y="613" type="curve"/>
    </contour>
    <contour>
      <point x="160" y="606" type="line"/>
      <point x="179" y="606" type="line"/>
      <point x="219" y="648"/>
      <point x="272" y="721"/>
      <point x="294" y="759" type="curve"/>
      <point x="294" y="766" type="line"/>
      <point x="265" y="766" type="line"/>
      <point x="243" y="726"/>
      <point x="196" y="656"/>
      <point x="160" y="613" type="curve"/>
    </contour>
  </outline>
</glyph>
<glyph name="uni02F0" format="2">
  <advance width="500"/>
  <unicode hex="02F0"/>
  <outline>
    <contour>
      <point x="160" y="-207" type="line"/>
      <point x="185" y="-207" type="line"/>
      <point x="250" y="-69" type="line"/>
      <point x="314" y="-207" type="line"/>
      <point x="340" y="-207" type="line"/>
      <point x="256" y="-35" type="line"/>
      <point x="243" y="-35" type="line"/>
    </contour>
  </outline>
</glyph>
<glyph name="dblverticallineabovecomb" format="2">
  <unicode hex="030E"/>
  <anchor x="0" y="527" name="_top"/>
  <anchor x="0" y="757" name="top"/>
  <outline>
    <contour>
      <point x="34" y="596" type="line"/>
      <point x="60" y="596" type="line"/>
      <point x="60" y="757" type="line"/>
      <point x="34" y="757" type="line"/>
    </contour>
    <contour>
      <point x="-60" y="596" type="line"/>
      <point x="-34" y="596" type="line"/>
      <point x="-34" y="757" type="line"/>
      <point x="-60" y="757" type="line"/>
    </contour>
  </outline>
</glyph>
<glyph name="dblgravecomb" format="2">
  <unicode hex="030F"/>
  <anchor x="0" y="527" name="_top"/>
  <anchor x="0" y="766" name="top"/>
  <outline>
    <contour>
      <point x="77" y="606" type="curve"/>
      <point x="90" y="606" type="line"/>
      <point x="90" y="615" type="line"/>
      <point x="72" y="634"/>
      <point x="23" y="720"/>
      <point x="5" y="766" type="curve"/>
      <point x="-31" y="766" type="line"/>
      <point x="-31" y="759" type="line"/>
      <point x="-8" y="717"/>
      <point x="50" y="629"/>
    </contour>
    <contour>
      <point x="-43" y="606" type="curve"/>
      <point x="-30" y="606" type="line"/>
      <point x="-30" y="615" type="line"/>
      <point x="-48" y="634"/>
      <point x="-97" y="720"/>
      <point x="-115" y="766" type="curve"/>
      <point x="-151" y="766" type="line"/>
      <point x="-151" y="759" type="line"/>
      <point x="-128" y="717"/>
      <point x="-70" y="629"/>
    </contour>
  </outline>
</glyph>
<glyph name="horncomb" format="2">
  <unicode hex="031B"/>
  <outline>
    <contour>
      <point x="-36" y="463" type="line"/>
      <point x="24" y="493"/>
      <point x="45" y="537"/>
      <point x="45" y="583" type="curve" smooth="yes"/>
      <point x="45" y="609"/>
      <point x="38" y="637"/>
      <point x="21" y="665" type="curve"/>
      <point x="9" y="672" type="line"/>
      <point x="-5" y="665" type="line"/>
      <point x="12" y="636"/>
      <point x="21" y="607"/>
      <point x="21" y="580" type="curve" smooth="yes"/>
      <point x="21" y="541"/>
      <point x="1" y="505"/>
      <point x="-45" y="482" type="curve"/>
    </contour>
  </outline>
</glyph>
<glyph name="ringhalfleftbelowcomb" format="2">
  <unicode hex="031C"/>
  <anchor x="0" y="0" name="_bottom"/>
  <anchor x="0" y="-231" name="bottom"/>
  <outline>
    <contour>
      <point x="53" y="-231" type="curve"/>
      <point x="53" y="-209" type="line"/>
      <point x="3" y="-209"/>
      <point x="-30" y="-181"/>
      <point x="-30" y="-126" type="curve" smooth="yes"/>
      <point x="-30" y="-78"/>
      <point x="-4" y="-47"/>
      <point x="53" y="-47" type="curve"/>
      <point x="53" y="-25" type="line"/>
      <point x="-14" y="-25"/>
      <point x="-54" y="-63"/>
      <point x="-54" y="-126" type="curve" smooth="yes"/>
      <point x="-54" y="-194"/>
      <point x="-13" y="-231"/>
    </contour>
  </outline>
</glyph>
<glyph name="hookretroflexbelowcomb" format="2">
  <unicode hex="0322"/>
  <outline>
    <contour>
      <point x="12" y="-235" type="curve"/>
      <point x="26" y="-235"/>
      <point x="37" y="-230"/>
      <point x="44" y="-226" type="curve"/>
      <point x="44" y="-201" type="line"/>
      <point x="37" y="-205"/>
      <point x="25" y="-210"/>
      <point x="13" y="-210" type="curve" smooth="yes"/>
      <point x="-9" y="-210"/>
      <point x="-19" y="-191"/>
      <point x="-19" y="-155" type="curve" smooth="yes"/>
      <point x="-19" y="31" type="line"/>
      <point x="-45" y="31" type="line"/>
      <point x="-45" y="-159" type="line" smooth="yes"/>
      <point x="-45" y="-205"/>
      <point x="-30" y="-235"/>
    </contour>
  </outline>
</glyph>
<glyph name="seagullbelowcomb" format="2">
  <unicode hex="033C"/>
  <anchor x="0" y="0" name="_bottom"/>
  <anchor x="0" y="-167" name="bottom"/>
  <outline>
    <contour>
      <point x="-109" y="-167" type="curve"/>
      <point x="-86" y="-167" type="line"/>
      <point x="-86" y="-124"/>
      <point x="-81" y="-82"/>
      <point x="-53" y="-82" type="curve" smooth="yes"/>
      <point x="-26" y="-82"/>
      <point x="-12" y="-123"/>
      <point x="-12" y="-167" type="curve"/>
      <point x="11" y="-167" type="line"/>
      <point x="11" y="-122"/>
      <point x="23" y="-82"/>
      <point x="51" y="-82" type="curve" smooth="yes"/>
      <point x="78" y="-82"/>
      <point x="87" y="-122"/>
      <point x="87" y="-167" type="curve"/>
      <point x="109" y="-167" type="line"/>
      <point x="109" y="-84"/>
      <point x="81" y="-61"/>
      <point x="51" y="-61" type="curve" smooth="yes"/>
      <point x="21" y="-61"/>
      <point x="7" y="-86"/>
      <point x="0" y="-112" type="curve"/>
      <point x="-9" y="-86"/>
      <point x="-24" y="-61"/>
      <point x="-54" y="-61" type="curve" smooth="yes"/>
      <point x="-84" y="-61"/>
      <point x="-109" y="-86"/>
    </contour>
  </outline>
</glyph>
<glyph name="nottildeabovecomb" format="2">
  <unicode hex="034A"/>
  <anchor x="0" y="527" name="_top"/>
  <anchor x="0" y="751" name="top"/>
  <outline>
    <contour>
      <point x="-51" y="570" type="line"/>
      <point x="2" y="643" type="line"/>
      <point x="18" y="629"/>
      <point x="36" y="617"/>
      <point x="60" y="617" type="curve" smooth="yes"/>
      <point x="97" y="617"/>
      <point x="129" y="645"/>
      <point x="130" y="706" type="curve"/>
      <point x="108" y="706" type="line"/>
      <point x="105" y="664"/>
      <point x="87" y="640"/>
      <point x="60" y="640" type="curve" smooth="yes"/>
      <point x="43" y="640"/>
      <point x="30" y="650"/>
      <point x="16" y="661" type="curve"/>
      <point x="71" y="736" type="line"/>
      <point x="51" y="751" type="line"/>
      <point x="-2" y="678" type="line"/>
      <point x="-19" y="692"/>
      <point x="-37" y="705"/>
      <point x="-61" y="705" type="curve" smooth="yes"/>
      <point x="-96" y="705"/>
      <point x="-125" y="680"/>
      <point x="-130" y="617" type="curve"/>
      <point x="-107" y="617" type="line"/>
      <point x="-104" y="662"/>
      <point x="-84" y="682"/>
      <point x="-61" y="682" type="curve" smooth="yes"/>
      <point x="-44" y="682"/>
      <point x="-30" y="672"/>
      <point x="-16" y="659" type="curve"/>
      <point x="-71" y="584" type="line"/>
    </contour>
  </outline>
</glyph>
<glyph name="almostequaltoabovecomb" format="2">
  <unicode hex="034C"/>
  <anchor x="0" y="528" name="_top"/>
  <anchor x="0" y="836" name="top"/>
  <outline>
    <contour>
      <point x="60" y="747" type="curve" smooth="yes"/>
      <point x="97" y="747"/>
      <point x="129" y="775"/>
      <point x="130" y="836" type="curve"/>
      <point x="108" y="836" type="line"/>
      <point x="105" y="794"/>
      <point x="87" y="770"/>
      <point x="60" y="770" type="curve" smooth="yes"/>
      <point x="16" y="770"/>
      <point x="-6" y="835"/>
      <point x="-61" y="835" type="curve" smooth="yes"/>
      <point x="-96" y="835"/>
      <point x="-125" y="811"/>
      <point x="-130" y="750" type="curve"/>
      <point x="-107" y="750" type="line"/>
      <point x="-104" y="793"/>
      <point x="-84" y="812"/>
      <point x="-61" y="812" type="curve" smooth="yes"/>
      <point x="-19" y="812"/>
      <point x="5" y="747"/>
    </contour>
    <contour>
      <point x="60" y="617" type="curve" smooth="yes"/>
      <point x="97" y="617"/>
      <point x="129" y="645"/>
      <point x="130" y="706" type="curve"/>
      <point x="108" y="706" type="line"/>
      <point x="105" y="664"/>
      <point x="87" y="640"/>
      <point x="60" y="640" type="curve" smooth="yes"/>
      <point x="16" y="640"/>
      <point x="-6" y="705"/>
      <point x="-61" y="705" type="curve" smooth="yes"/>
      <point x="-96" y="705"/>
      <point x="-125" y="681"/>
      <point x="-130" y="620" type="curve"/>
      <point x="-107" y="620" type="line"/>
      <point x="-104" y="663"/>
      <point x="-84" y="682"/>
      <point x="-61" y="682" type="curve" smooth="yes"/>
      <point x="-19" y="682"/>
      <point x="5" y="617"/>
    </contour>
  </outline>
</glyph>
<glyph name="xbelowcomb" format="2">
  <unicode hex="0353"/>
  <anchor x="0" y="0" name="_bottom"/>
  <anchor x="0" y="-216" name="bottom"/>
  <outline>
    <contour>
      <point x="-42" y="-216" type="line"/>
      <point x="-1" y="-174" type="line"/>
      <point x="42" y="-216" type="line"/>
      <point x="61" y="-198" type="line"/>
      <point x="19" y="-155" type="line"/>
      <point x="61" y="-112" type="line"/>
      <point x="43" y="-94" type="line"/>
      <point x="-1" y="-137" type="line"/>
      <point x="-43" y="-94" type="line"/>
      <point x="-61" y="-112" type="line"/>
      <point x="-19" y="-155" type="line"/>
      <point x="-61" y="-198" type="line"/>
    </contour>
  </outline>
</glyph>
<glyph name="doubleringbelowcomb" format="2">
  <unicode hex="035A"/>
  <anchor x="0" y="0" name="_bottom"/>
  <anchor x="0" y="-239" name="bottom"/>
  <outline>
    <contour>
      <point x="-71" y="-239" type="curve" smooth="yes"/>
      <point x="-35" y="-239"/>
      <point x="-14" y="-218"/>
      <point x="0" y="-188" type="curve"/>
      <point x="14" y="-218"/>
      <point x="35" y="-239"/>
      <point x="71" y="-239" type="curve" smooth="yes"/>
      <point x="124" y="-239"/>
      <point x="152" y="-196"/>
      <point x="152" y="-137" type="curve" smooth="yes"/>
      <point x="152" y="-74"/>
      <point x="121" y="-33"/>
      <point x="72" y="-33" type="curve" smooth="yes"/>
      <point x="35" y="-33"/>
      <point x="13" y="-56"/>
      <point x="0" y="-83" type="curve"/>
      <point x="-12" y="-59"/>
      <point x="-34" y="-33"/>
      <point x="-73" y="-33" type="curve" smooth="yes"/>
      <point x="-122" y="-33"/>
      <point x="-153" y="-74"/>
      <point x="-153" y="-135" type="curve" smooth="yes"/>
      <point x="-153" y="-194"/>
      <point x="-124" y="-239"/>
    </contour>
    <contour>
      <point x="-70" y="-218" type="curve" smooth="yes"/>
      <point x="-105" y="-218"/>
      <point x="-131" y="-186"/>
      <point x="-131" y="-135" type="curve" smooth="yes"/>
      <point x="-131" y="-87"/>
      <point x="-109" y="-54"/>
      <point x="-72" y="-54" type="curve" smooth="yes"/>
      <point x="-36" y="-54"/>
      <point x="-10" y="-86"/>
      <point x="-10" y="-136" type="curve" smooth="yes"/>
      <point x="-10" y="-184"/>
      <point x="-34" y="-218"/>
    </contour>
    <contour>
      <point x="71" y="-218" type="curve" smooth="yes"/>
      <point x="34" y="-218"/>
      <point x="10" y="-185"/>
      <point x="10" y="-136" type="curve" smooth="yes"/>
      <point x="10" y="-86"/>
      <point x="36" y="-54"/>
      <point x="71" y="-54" type="curve" smooth="yes"/>
      <point x="107" y="-54"/>
      <point x="130" y="-86"/>
      <point x="130" y="-136" type="curve" smooth="yes"/>
      <point x="130" y="-184"/>
      <point x="108" y="-218"/>
    </contour>
  </outline>
</glyph>
<glyph name="doublebrevebelowcomb" format="2">
  <unicode hex="035C"/>
  <anchor x="0" y="0" name="_bottom"/>
  <anchor x="0" y="-216" name="bottom"/>
  <outline>
    <contour>
      <point x="-3" y="-216" type="curve"/>
      <point x="113" y="-216"/>
      <point x="205" y="-157"/>
      <point x="242" y="-39" type="curve"/>
      <point x="217" y="-39" type="line"/>
      <point x="187" y="-127"/>
      <point x="119" y="-192"/>
      <point x="-3" y="-192" type="curve" smooth="yes"/>
      <point x="-107" y="-192"/>
      <point x="-183" y="-135"/>
      <point x="-217" y="-39" type="curve"/>
      <point x="-242" y="-39" type="line"/>
      <point x="-198" y="-165"/>
      <point x="-108" y="-216"/>
    </contour>
  </outline>
</glyph>
<glyph name="Heta" format="2">
  <advance width="500"/>
  <unicode hex="0370"/>
  <anchor x="250" y="0" name="bottom"/>
  <anchor x="250" y="714" name="top"/>
  <outline>
    <contour>
      <point x="130" y="0" type="line"/>
      <point x="156" y="0" type="line"/>
      <point x="156" y="363" type="line"/>
      <point x="370" y="363" type="line"/>
      <point x="370" y="388" type="line"/>
      <point x="156" y="388" type="line"/>
      <point x="156" y="714" type="line"/>
      <point x="130" y="714" type="line"/>
    </contour>
  </outline>
</glyph>
<glyph name="archaicsampi" format="2">
  <advance width="500"/>
  <unicode hex="0373"/>
  <anchor x="249" y="0" name="bottom"/>
  <anchor x="250" y="357" name="center"/>
  <anchor x="250" y="760" name="top"/>
  <outline>
    <contour>
      <point x="236" y="0" type="line"/>
      <point x="262" y="0" type="line"/>
      <point x="262" y="735" type="line"/>
      <point x="455" y="735" type="line"/>
      <point x="455" y="760" type="line"/>
      <point x="45" y="760" type="line"/>
      <point x="45" y="735" type="line"/>
      <point x="236" y="735" type="line"/>
    </contour>
    <contour>
      <point x="45" y="542" type="line"/>
      <point x="71" y="542" type="line"/>
      <point x="71" y="760" type="line"/>
      <point x="45" y="760" type="line"/>
    </contour>
    <contour>
      <point x="429" y="542" type="line"/>
      <point x="455" y="542" type="line"/>
      <point x="455" y="760" type="line"/>
      <point x="429" y="760" type="line"/>
    </contour>
  </outline>
</glyph>
<glyph name="Epsilontonos" format="2">
  <advance width="500"/>
  <unicode hex="0388"/>
  <anchor x="267" y="0" name="bottom"/>
  <anchor x="261" y="714" name="top"/>
  <anchor x="27" y="714" name="topleft"/>
  <outline>
    <contour>
      <point x="105" y="0" type="line"/>
      <point x="405" y="0" type="line"/>
      <point x="405" y="25" type="line"/>
      <point x="131" y="25" type="line"/>
      <point x="131" y="364" type="line"/>
      <point x="388" y="364" type="line"/>
      <point x="388" y="389" type="line"/>
      <point x="131" y="389" type="line"/>
      <point x="131" y="689" type="line"/>
      <point x="405" y="689" type="line"/>
      <point x="405" y="714" type="line"/>
      <point x="105" y="714" type="line"/>
    </contour>
    <component base="tonos" xOffset="-270"/>
  </outline>
</glyph>
<glyph name="Gamma" format="2">
  <advance width="500"/>
  <unicode hex="0393"/>
  <anchor x="260" y="0" name="bottom"/>
  <anchor x="260" y="714" name="top"/>
  <outline>
    <contour>
      <point x="92" y="0" type="line"/>
      <point x="118" y="0" type="line"/>
      <point x="118" y="689" type="line"/>
      <point x="405" y="689" type="line"/>
      <point x="405" y="714" type="line"/>
      <point x="92" y="714" type="line"/>
    </contour>
  </outline>
</glyph>
<glyph name="Psi" format="2">
  <advance width="500"/>
  <unicode hex="03A8"/>
  <anchor x="250" y="0" name="bottom"/>
  <anchor x="250" y="714" name="top"/>
  <outline>
    <contour>
      <point x="237" y="0" type="line"/>
      <point x="263" y="0" type="line"/>
      <point x="263" y="224" type="line"/>
      <point x="399" y="228"/>
      <point x="470" y="290"/>
      <point x="470" y="481" type="curve" smooth="yes"/>
      <point x="470" y="714" type="line"/>
      <point x="444" y="714" type="line"/>
      <point x="444" y="486" type="line" smooth="yes"/>
      <point x="444" y="317"/>
      <point x="396" y="254"/>
      <point x="263" y="249" type="curve"/>
      <point x="263" y="714" type="line"/>
      <point x="237" y="714" type="line"/>
      <point x="237" y="249" type="line"/>
      <point x="98" y="253"/>
      <point x="56" y="328"/>
      <point x="56" y="487" type="curve" smooth="yes"/>
      <point x="56" y="714" type="line"/>
      <point x="30" y="714" type="line"/>
      <point x="30" y="484" type="line" smooth="yes"/>
      <point x="30" y="283"/>
      <point x="105" y="228"/>
      <point x="237" y="224" type="curve"/>
    </contour>
  </outline>
</glyph>
<glyph name="epsilon" format="2">
  <advance width="500"/>
  <unicode hex="03B5"/>
  <anchor x="266" y="0" name="bottom"/>
  <anchor x="250" y="528" name="top"/>
  <outline>
    <contour>
      <point x="266" y="-10" type="curve" smooth="yes"/>
      <point x="333" y="-10"/>
      <point x="390" y="5"/>
      <point x="425" y="20" type="curve"/>
      <point x="425" y="45" type="line"/>
      <point x="375" y="26"/>
      <point x="326" y="15"/>
      <point x="266" y="15" type="curve" smooth="yes"/>
      <point x="153" y="15"/>
      <point x="102" y="68"/>
      <point x="102" y="138" type="curve" smooth="yes"/>
      <point x="102" y="230"/>
      <point x="169" y="269"/>
      <point x="284" y="269" type="curve" smooth="yes"/>
      <point x="344" y="269" type="line"/>
      <point x="344" y="294" type="line"/>
      <point x="290" y="294" type="line" smooth="yes"/>
      <point x="174" y="294"/>
      <point x="120" y="331"/>
      <point x="120" y="401" type="curve" smooth="yes"/>
      <point x="120" y="473"/>
      <point x="172" y="513"/>
      <point x="271" y="513" type="curve" smooth="yes"/>
      <point x="324" y="513"/>
      <point x="376" y="501"/>
      <point x="415" y="484" type="curve"/>
      <point x="424" y="508" type="line"/>
      <point x="376" y="527"/>
      <point x="335" y="538"/>
      <point x="270" y="538" type="curve" smooth="yes"/>
      <point x="178" y="538"/>
      <point x="93" y="501"/>
      <point x="93" y="401" type="curve" smooth="yes"/>
      <point x="93" y="347"/>
      <point x="116" y="305"/>
      <point x="192" y="283" type="curve"/>
      <point x="192" y="281" type="line"/>
      <point x="112" y="261"/>
      <point x="75" y="209"/>
      <point x="75" y="138" type="curve" smooth="yes"/>
      <point x="75" y="50"/>
      <point x="136" y="-10"/>
    </contour>
  </outline>
</glyph>
<glyph name="eta" format="2">
  <advance width="500"/>
  <unicode hex="03B7"/>
  <anchor x="246" y="-240" name="bottom"/>
  <anchor x="250" y="528" name="top"/>
  <anchor x="480" y="528" name="topright"/>
  <outline>
    <contour>
      <point x="394" y="-240" type="line"/>
      <point x="420" y="-240" type="line"/>
      <point x="420" y="68" type="line"/>
      <point x="394" y="68" type="line"/>
    </contour>
    <component base="n"/>
  </outline>
</glyph>
<glyph name="theta" format="2">
  <advance width="500"/>
  <unicode hex="03B8"/>
  <anchor x="249" y="0" name="bottom"/>
  <anchor x="251" y="770" name="top"/>
  <anchor x="480" y="770" name="topright"/>
  <outline>
    <contour>
      <point x="249" y="-10" type="curve" smooth="yes"/>
      <point x="376" y="-10"/>
      <point x="444" y="118"/>
      <point x="444" y="395" type="curve" smooth="yes"/>
      <point x="444" y="649"/>
      <point x="378" y="770"/>
      <point x="251" y="770" type="curve" smooth="yes"/>
      <point x="126" y="770"/>
      <point x="56" y="651"/>
      <point x="56" y="394" type="curve" smooth="yes"/>
      <point x="56" y="118"/>
      <point x="123" y="-10"/>
    </contour>
    <contour>
      <point x="249" y="15" type="curve" smooth="yes"/>
      <point x="138" y="15"/>
      <point x="85" y="141"/>
      <point x="82" y="382" type="curve"/>
      <point x="417" y="382" type="line"/>
      <point x="415" y="135"/>
      <point x="360" y="15"/>
    </contour>
    <contour>
      <point x="82" y="407" type="line"/>
      <point x="84" y="632"/>
      <point x="142" y="745"/>
      <point x="251" y="745" type="curve" smooth="yes"/>
      <point x="363" y="745"/>
      <point x="416" y="625"/>
      <point x="417" y="407" type="curve"/>
    </contour>
  </outline>
</glyph>
<glyph name="iota" format="2">
  <advance width="500"/>
  <unicode hex="03B9"/>
  <anchor x="323" y="0" name="bottom"/>
  <anchor x="237" y="528" name="top"/>
  <outline>
    <contour>
      <point x="354" y="-10" type="curve" smooth="yes"/>
      <point x="375" y="-10"/>
      <point x="398" y="-7"/>
      <point x="412" y="-3" type="curve"/>
      <point x="412" y="22" type="line"/>
      <point x="396" y="18"/>
      <point x="376" y="15"/>
      <point x="356" y="15" type="curve" smooth="yes"/>
      <point x="285" y="15"/>
      <point x="250" y="50"/>
      <point x="250" y="143" type="curve" smooth="yes"/>
      <point x="250" y="528" type="line"/>
      <point x="224" y="528" type="line"/>
      <point x="224" y="136" type="line" smooth="yes"/>
      <point x="224" y="35"/>
      <point x="268" y="-10"/>
    </contour>
  </outline>
</glyph>
<glyph name="pi" format="2">
  <advance width="500"/>
  <unicode hex="03C0"/>
  <anchor x="250" y="0" name="bottom"/>
  <anchor x="250" y="528" name="top"/>
  <outline>
    <contour>
      <point x="442" y="-8" type="curve" smooth="yes"/>
      <point x="460" y="-8"/>
      <point x="474" y="-5"/>
      <point x="481" y="-3" type="curve"/>
      <point x="481" y="22" type="line"/>
      <point x="472" y="19"/>
      <point x="462" y="17"/>
      <point x="447" y="17" type="curve" smooth="yes"/>
      <point x="402" y="17"/>
      <point x="387" y="42"/>
      <point x="387" y="99" type="curve" smooth="yes"/>
      <point x="387" y="504" type="line"/>
      <point x="480" y="504" type="line"/>
      <point x="480" y="528" type="line"/>
      <point x="84" y="528" type="line"/>
      <point x="19" y="523" type="line"/>
      <point x="19" y="504" type="line"/>
      <point x="109" y="504" type="line"/>
      <point x="109" y="0" type="line"/>
      <point x="135" y="0" type="line"/>
      <point x="135" y="504" type="line"/>
      <point x="361" y="504" type="line"/>
      <point x="361" y="92" type="line" smooth="yes"/>
      <point x="361" y="25"/>
      <point x="388" y="-8"/>
    </contour>
  </outline>
</glyph>
<glyph name="sigma" format="2">
  <advance width="500"/>
  <unicode hex="03C3"/>
  <anchor x="250" y="0" name="bottom"/>
  <anchor x="250" y="528" name="top"/>
  <outline>
    <contour>
      <point x="243" y="-10" type="curve" smooth="yes"/>
      <point x="363" y="-10"/>
      <point x="432" y="81"/>
      <point x="432" y="253" type="curve" smooth="yes"/>
      <point x="432" y="352"/>
      <point x="407" y="428"/>
      <point x="362" y="503" type="curve"/>
      <point x="467" y="503" type="line"/>
      <point x="467" y="528" type="line"/>
      <point x="293" y="528" type="line" smooth="yes"/>
      <point x="130" y="528"/>
      <point x="60" y="422"/>
      <point x="60" y="252" type="curve" smooth="yes"/>
      <point x="60" y="91"/>
      <point x="122" y="-10"/>
    </contour>
    <contour>
      <point x="244" y="15" type="curve" smooth="yes"/>
      <point x="139" y="15"/>
      <point x="87" y="105"/>
      <point x="87" y="252" type="curve" smooth="yes"/>
      <point x="87" y="408"/>
      <point x="146" y="503"/>
      <point x="295" y="503" type="curve" smooth="yes"/>
      <point x="334" y="503" type="line"/>
      <point x="380" y="427"/>
      <point x="405" y="353"/>
      <point x="405" y="253" type="curve" smooth="yes"/>
      <point x="405" y="100"/>
      <point x="350" y="15"/>
    </contour>
  </outline>
</glyph>
<glyph name="tau" format="2">
  <advance width="500"/>
  <unicode hex="03C4"/>
  <anchor x="297" y="0" name="bottom"/>
  <anchor x="246" y="528" name="top"/>
  <outline>
    <contour>
      <point x="323" y="-10" type="curve" smooth="yes"/>
      <point x="350" y="-10"/>
      <point x="376" y="-4"/>
      <point x="390" y="2" type="curve"/>
      <point x="390" y="26" type="line"/>
      <point x="372" y="19"/>
      <point x="347" y="15"/>
      <point x="326" y="15" type="curve" smooth="yes"/>
      <point x="259" y="15"/>
      <point x="240" y="57"/>
      <point x="240" y="150" type="curve" smooth="yes"/>
      <point x="240" y="503" type="line"/>
      <point x="423" y="503" type="line"/>
      <point x="423" y="528" type="line"/>
      <point x="120" y="528" type="line"/>
      <point x="67" y="522" type="line"/>
      <point x="67" y="503" type="line"/>
      <point x="215" y="503" type="line"/>
      <point x="215" y="145" type="line" smooth="yes"/>
      <point x="215" y="47"/>
      <point x="238" y="-10"/>
    </contour>
  </outline>
</glyph>
<glyph name="KaiSymbol" format="2">
  <advance width="500"/>
  <unicode hex="03CF"/>
  <anchor x="250" y="714" name="top"/>
  <anchor x="480" y="714" name="topright"/>
  <anchor x="250" y="0" name="bottom"/>
  <outline>
    <contour>
      <point x="212" y="-240" type="curve" smooth="yes"/>
      <point x="328" y="-240"/>
      <point x="398" y="-187"/>
      <point x="438" y="0" type="curve"/>
      <point x="414" y="3" type="line"/>
      <point x="380" y="-150"/>
      <point x="326" y="-215"/>
      <point x="212" y="-215" type="curve" smooth="yes"/>
      <point x="147" y="-215"/>
      <point x="113" y="-193"/>
      <point x="73" y="-165" type="curve"/>
      <point x="73" y="-196" type="line"/>
      <point x="118" y="-225"/>
      <point x="155" y="-240"/>
    </contour>
    <component base="K"/>
  </outline>
</glyph>
<glyph name="uni03DF" format="2">
  <advance width="500"/>
  <unicode hex="03DF"/>
  <anchor x="263" y="-240" name="bottom"/>
  <anchor x="263" y="760" name="top"/>
  <outline>
    <contour>
      <point x="336" y="-225" type="curve" smooth="yes"/>
      <point x="354" y="-225"/>
      <point x="368" y="-221"/>
      <point x="379" y="-216" type="curve"/>
      <point x="379" y="-190" type="line"/>
      <point x="368" y="-196"/>
      <point x="354" y="-200"/>
      <point x="339" y="-200" type="curve" smooth="yes"/>
      <point x="308" y="-200"/>
      <point x="289" y="-183"/>
      <point x="289" y="-134" type="curve" smooth="yes"/>
      <point x="289" y="-95"/>
      <point x="301" y="-50"/>
      <point x="309" y="-21" type="curve" smooth="yes"/>
      <point x="401" y="318" type="line"/>
      <point x="397" y="343" type="line"/>
      <point x="127" y="262" type="line"/>
      <point x="212" y="566" type="line" smooth="yes"/>
      <point x="223" y="607"/>
      <point x="234" y="646"/>
      <point x="234" y="680" type="curve" smooth="yes"/>
      <point x="234" y="730"/>
      <point x="212" y="766"/>
      <point x="162" y="766" type="curve" smooth="yes"/>
      <point x="145" y="766"/>
      <point x="130" y="762"/>
      <point x="119" y="755" type="curve"/>
      <point x="121" y="732" type="line"/>
      <point x="130" y="738"/>
      <point x="145" y="743"/>
      <point x="160" y="743" type="curve" smooth="yes"/>
      <point x="189" y="743"/>
      <point x="209" y="723"/>
      <point x="209" y="679" type="curve" smooth="yes"/>
      <point x="209" y="646"/>
      <point x="197" y="607"/>
      <point x="187" y="571" type="curve" smooth="yes"/>
      <point x="99" y="253" type="line"/>
      <point x="103" y="229" type="line"/>
      <point x="374" y="310" type="line"/>
      <point x="284" y="-14" type="line" smooth="yes"/>
      <point x="274" y="-49"/>
      <point x="262" y="-92"/>
      <point x="262" y="-133" type="curve" smooth="yes"/>
      <point x="262" y="-192"/>
      <point x="286" y="-225"/>
    </contour>
  </outline>
</glyph>
<glyph name="afii10051" format="2">
  <advance width="500"/>
  <unicode hex="0402"/>
  <anchor x="250" y="0" name="bottom"/>
  <anchor x="175" y="714" name="top"/>
  <outline>
    <contour>
      <point x="253" y="-10" type="curve" smooth="yes"/>
      <point x="368" y="-10"/>
      <point x="420" y="64"/>
      <point x="420" y="169" type="curve" smooth="yes"/>
      <point x="420" y="250" type="line" smooth="yes"/>
      <point x="420" y="369"/>
      <point x="370" y="424"/>
      <point x="260" y="424" type="curve" smooth="yes"/>
      <point x="135" y="424" type="line"/>
      <point x="135" y="689" type="line"/>
      <point x="344" y="689" type="line"/>
      <point x="344" y="714" type="line"/>
      <point x="0" y="714" type="line"/>
      <point x="0" y="689" type="line"/>
      <point x="109" y="689" type="line"/>
      <point x="109" y="0" type="line"/>
      <point x="135" y="0" type="line"/>
      <point x="135" y="399" type="line"/>
      <point x="251" y="399" type="line" smooth="yes"/>
      <point x="353" y="399"/>
      <point x="394" y="354"/>
      <point x="394" y="249" type="curve" smooth="yes"/>
      <point x="394" y="170" type="line" smooth="yes"/>
      <point x="394" y="80"/>
      <point x="352" y="15"/>
      <point x="259" y="15" type="curve" smooth="yes"/>
      <point x="240" y="15"/>
      <point x="216" y="18"/>
      <point x="198" y="24" type="curve"/>
      <point x="198" y="-3" type="line"/>
      <point x="212" y="-8"/>
      <point x="235" y="-10"/>
    </contour>
  </outline>
</glyph>
<glyph name="afii10145" format="2">
  <advance width="500"/>
  <unicode hex="040F"/>
  <anchor x="250" y="-175" name="bottom"/>
  <anchor x="250" y="714" name="top"/>
  <outline>
    <contour>
      <point x="237" y="-175" type="line"/>
      <point x="263" y="-175" type="line"/>
      <point x="263" y="10" type="line"/>
      <point x="237" y="10" type="line"/>
    </contour>
    <contour>
      <point x="65" y="714" type="line"/>
      <point x="65" y="0" type="line"/>
      <point x="435" y="0" type="line"/>
      <point x="435" y="714" type="line"/>
      <point x="409" y="714" type="line"/>
      <point x="409" y="25" type="line"/>
      <point x="91" y="25" type="line"/>
      <point x="91" y="714" type="line"/>
    </contour>
  </outline>
</glyph>
<glyph name="afii10029" format="2">
  <advance width="500"/>
  <unicode hex="041B"/>
  <anchor x="274" y="0" name="bottom"/>
  <anchor x="330" y="714" name="top"/>
  <outline>
    <contour>
      <point x="56" y="-9" type="curve" smooth="yes"/>
      <point x="142" y="-9"/>
      <point x="162" y="79"/>
      <point x="183" y="223" type="curve" smooth="yes"/>
      <point x="202" y="350"/>
      <point x="222" y="539"/>
      <point x="235" y="689" type="curve"/>
      <point x="409" y="689" type="line"/>
      <point x="409" y="0" type="line"/>
      <point x="435" y="0" type="line"/>
      <point x="435" y="714" type="line"/>
      <point x="212" y="714" type="line"/>
      <point x="199" y="567"/>
      <point x="182" y="382"/>
      <point x="158" y="224" type="curve" smooth="yes"/>
      <point x="136" y="78"/>
      <point x="117" y="17"/>
      <point x="54" y="17" type="curve" smooth="yes"/>
      <point x="37" y="17"/>
      <point x="27" y="20"/>
      <point x="13" y="25" type="curve"/>
      <point x="13" y="0" type="line"/>
      <point x="24" y="-6"/>
      <point x="36" y="-9"/>
    </contour>
  </outline>
</glyph>
<glyph name="afii10041" format="2">
  <advance width="500"/>
  <unicode hex="0427"/>
  <anchor x="250" y="0" name="bottom"/>
  <anchor x="480" y="0" name="bottomright"/>
  <anchor x="250" y="714" name="top"/>
  <outline>
    <contour>
      <point x="409" y="0" type="line"/>
      <point x="435" y="0" type="line"/>
      <point x="435" y="714" type="line"/>
      <point x="409" y="714" type="line"/>
      <point x="409" y="342" type="line"/>
      <point x="360" y="312"/>
      <point x="296" y="292"/>
      <point x="229" y="292" type="curve" smooth="yes"/>
      <point x="132" y="292"/>
      <point x="91" y="345"/>
      <point x="91" y="444" type="curve" smooth="yes"/>
      <point x="91" y="714" type="line"/>
      <point x="65" y="714" type="line"/>
      <point x="65" y="438" type="line" smooth="yes"/>
      <point x="65" y="327"/>
      <point x="118" y="267"/>
      <point x="228" y="267" type="curve" smooth="yes"/>
      <point x="296" y="267"/>
      <point x="360" y="286"/>
      <point x="409" y="317" type="curve"/>
    </contour>
  </outline>
</glyph>
<glyph name="afii10042" format="2">
  <advance width="500"/>
  <unicode hex="0428"/>
  <anchor x="250" y="0" name="bottom"/>
  <anchor x="250" y="714" name="top"/>
  <outline>
    <contour>
      <point x="40" y="0" type="line"/>
      <point x="460" y="0" type="line"/>
      <point x="460" y="714" type="line"/>
      <point x="434" y="714" type="line"/>
      <point x="434" y="25" type="line"/>
      <point x="263" y="25" type="line"/>
      <point x="263" y="714" type="line"/>
      <point x="237" y="714" type="line"/>
      <point x="237" y="25" type="line"/>
      <point x="66" y="25" type="line"/>
      <point x="66" y="714" type="line"/>
      <point x="40" y="714" type="line"/>
    </contour>
  </outline>
</glyph>
<glyph name="afii10069" format="2">
  <advance width="500"/>
  <unicode hex="0434"/>
  <anchor x="250" y="-175" name="bottom"/>
  <anchor x="293" y="528" name="top"/>
  <outline>
    <contour>
      <point x="63" y="-175" type="line"/>
      <point x="89" y="-175" type="line"/>
      <point x="89" y="0" type="line"/>
      <point x="411" y="0" type="line"/>
      <point x="411" y="-175" type="line"/>
      <point x="437" y="-175" type="line"/>
      <point x="437" y="25" type="line"/>
      <point x="383" y="25" type="line"/>
      <point x="383" y="528" type="line"/>
      <point x="209" y="528" type="line"/>
      <point x="207" y="340"/>
      <point x="172" y="165"/>
      <point x="100" y="25" type="curve"/>
      <point x="63" y="25" type="line"/>
    </contour>
    <contour>
      <point x="129" y="25" type="line"/>
      <point x="196" y="158"/>
      <point x="229" y="323"/>
      <point x="234" y="503" type="curve"/>
      <point x="357" y="503" type="line"/>
      <point x="357" y="25" type="line"/>
    </contour>
  </outline>
</glyph>
<glyph name="afii10078" format="2">
  <advance width="500"/>
  <unicode hex="043C"/>
  <anchor x="250" y="0" name="bottom"/>
  <anchor x="250" y="528" name="top"/>
  <outline>
    <contour>
      <point x="56" y="0" type="line"/>
      <point x="82" y="0" type="line"/>
      <point x="82" y="401" type="line" smooth="yes"/>
      <point x="82" y="433"/>
      <point x="82" y="454"/>
      <point x="81" y="484" type="curve"/>
      <point x="83" y="484" type="line"/>
      <point x="239" y="0" type="line"/>
      <point x="263" y="0" type="line"/>
      <point x="417" y="483" type="line"/>
      <point x="419" y="483" type="line"/>
      <point x="418" y="453"/>
      <point x="418" y="432"/>
      <point x="418" y="404" type="curve" smooth="yes"/>
      <point x="418" y="0" type="line"/>
      <point x="444" y="0" type="line"/>
      <point x="444" y="528" type="line"/>
      <point x="405" y="528" type="line"/>
      <point x="251" y="41" type="line"/>
      <point x="97" y="528" type="line"/>
      <point x="56" y="528" type="line"/>
    </contour>
  </outline>
</glyph>
<glyph name="afii10081" format="2">
  <advance width="500"/>
  <unicode hex="043F"/>
  <anchor x="259" y="0" name="bottom"/>
  <anchor x="480" y="0" name="bottomright"/>
  <anchor x="259" y="528" name="top"/>
  <outline>
    <contour>
      <point x="85" y="0" type="line"/>
      <point x="111" y="0" type="line"/>
      <point x="111" y="503" type="line"/>
      <point x="389" y="503" type="line"/>
      <point x="389" y="0" type="line"/>
      <point x="415" y="0" type="line"/>
      <point x="415" y="528" type="line"/>
      <point x="85" y="528" type="line"/>
    </contour>
  </outline>
</glyph>
<glyph name="afii10090" format="2">
  <advance width="500"/>
  <unicode hex="0448"/>
  <anchor x="250" y="0" name="bottom"/>
  <anchor x="250" y="528" name="top"/>
  <outline>
    <contour>
      <point x="56" y="0" type="line"/>
      <point x="444" y="0" type="line"/>
      <point x="444" y="528" type="line"/>
      <point x="418" y="528" type="line"/>
      <point x="418" y="25" type="line"/>
      <point x="263" y="25" type="line"/>
      <point x="263" y="528" type="line"/>
      <point x="237" y="528" type="line"/>
      <point x="237" y="25" type="line"/>
      <point x="82" y="25" type="line"/>
      <point x="82" y="528" type="line"/>
      <point x="56" y="528" type="line"/>
    </contour>
  </outline>
</glyph>
<glyph name="afii10093" format="2">
  <advance width="500"/>
  <unicode hex="044B"/>
  <anchor x="250" y="0" name="bottom"/>
  <anchor x="250" y="528" name="top"/>
  <outline>
    <contour>
      <point x="56" y="0" type="line"/>
      <point x="165" y="0" type="line" smooth="yes"/>
      <point x="279" y="0"/>
      <point x="336" y="56"/>
      <point x="336" y="156" type="curve" smooth="yes"/>
      <point x="336" y="244"/>
      <point x="288" y="302"/>
      <point x="179" y="302" type="curve" smooth="yes"/>
      <point x="82" y="302" type="line"/>
      <point x="82" y="528" type="line"/>
      <point x="56" y="528" type="line"/>
    </contour>
    <contour>
      <point x="82" y="25" type="line"/>
      <point x="82" y="277" type="line"/>
      <point x="175" y="277" type="line" smooth="yes"/>
      <point x="267" y="277"/>
      <point x="309" y="233"/>
      <point x="309" y="157" type="curve" smooth="yes"/>
      <point x="309" y="72"/>
      <point x="271" y="25"/>
      <point x="161" y="25" type="curve" smooth="yes"/>
    </contour>
    <contour>
      <point x="418" y="0" type="line"/>
      <point x="444" y="0" type="line"/>
      <point x="444" y="528" type="line"/>
      <point x="418" y="528" type="line"/>
    </contour>
  </outline>
</glyph>
<glyph name="afii10094" format="2">
  <advance width="500"/>
  <unicode hex="044C"/>
  <anchor x="250" y="0" name="bottom"/>
  <anchor x="250" y="528" name="top"/>
  <outline>
    <contour>
      <point x="105" y="0" type="line"/>
      <point x="264" y="0" type="line" smooth="yes"/>
      <point x="385" y="0"/>
      <point x="445" y="56"/>
      <point x="445" y="156" type="curve" smooth="yes"/>
      <point x="445" y="244"/>
      <point x="394" y="302"/>
      <point x="278" y="302" type="curve" smooth="yes"/>
      <point x="131" y="302" type="line"/>
      <point x="131" y="528" type="line"/>
      <point x="105" y="528" type="line"/>
    </contour>
    <contour>
      <point x="131" y="25" type="line"/>
      <point x="131" y="277" type="line"/>
      <point x="274" y="277" type="line" smooth="yes"/>
      <point x="372" y="277"/>
      <point x="418" y="233"/>
      <point x="418" y="157" type="curve" smooth="yes"/>
      <point x="418" y="72"/>
      <point x="376" y="25"/>
      <point x="260" y="25" type="curve" smooth="yes"/>
    </contour>
  </outline>
</glyph>
<glyph name="afii10096" format="2">
  <advance width="500"/>
  <unicode hex="044E"/>
  <anchor x="250" y="0" name="bottom"/>
  <anchor x="250" y="528" name="top"/>
  <outline>
    <contour>
      <point x="322" y="-10" type="curve" smooth="yes"/>
      <point x="408" y="-10"/>
      <point x="447" y="95"/>
      <point x="447" y="266" type="curve" smooth="yes"/>
      <point x="447" y="419"/>
      <point x="416" y="538"/>
      <point x="324" y="538" type="curve" smooth="yes"/>
      <point x="237" y="538"/>
      <point x="200" y="433"/>
      <point x="198" y="275" type="curve" smooth="yes"/>
      <point x="196" y="97"/>
      <point x="236" y="-10"/>
    </contour>
    <contour>
      <point x="56" y="0" type="line"/>
      <point x="82" y="0" type="line"/>
      <point x="82" y="264" type="line"/>
      <point x="209" y="264" type="line"/>
      <point x="209" y="289" type="line"/>
      <point x="82" y="289" type="line"/>
      <point x="82" y="528" type="line"/>
      <point x="56" y="528" type="line"/>
    </contour>
    <contour>
      <point x="322" y="15" type="curve" smooth="yes"/>
      <point x="252" y="15"/>
      <point x="223" y="117"/>
      <point x="223" y="265" type="curve" smooth="yes"/>
      <point x="223" y="412"/>
      <point x="252" y="513"/>
      <point x="322" y="513" type="curve" smooth="yes"/>
      <point x="394" y="513"/>
      <point x="421" y="409"/>
      <point x="421" y="265" type="curve" smooth="yes"/>
      <point x="421" y="110"/>
      <point x="390" y="15"/>
    </contour>
  </outline>
</glyph>
<glyph name="afii10106" format="2">
  <advance width="500"/>
  <unicode hex="0459"/>
  <anchor x="250" y="0" name="bottom"/>
  <anchor x="207" y="528" name="top"/>
  <outline>
    <contour>
      <point x="36" y="-4" type="curve" smooth="yes"/>
      <point x="140" y="-4"/>
      <point x="152" y="174"/>
      <point x="168" y="503" type="curve"/>
      <point x="260" y="503" type="line"/>
      <point x="260" y="528" type="line"/>
      <point x="144" y="528" type="line"/>
      <point x="131" y="190"/>
      <point x="113" y="21"/>
      <point x="35" y="21" type="curve" smooth="yes"/>
      <point x="24" y="21"/>
      <point x="17" y="21"/>
      <point x="10" y="23" type="curve"/>
      <point x="10" y="-2" type="line"/>
      <point x="17" y="-3"/>
      <point x="24" y="-4"/>
    </contour>
    <contour>
      <point x="271" y="25" type="line"/>
      <point x="271" y="277" type="line"/>
      <point x="334" y="277" type="line" smooth="yes"/>
      <point x="405" y="277"/>
      <point x="438" y="233"/>
      <point x="438" y="157" type="curve" smooth="yes"/>
      <point x="438" y="72"/>
      <point x="407" y="25"/>
      <point x="320" y="25" type="curve" smooth="yes"/>
    </contour>
    <contour>
      <point x="245" y="0" type="line"/>
      <point x="324" y="0" type="line" smooth="yes"/>
      <point x="418" y="0"/>
      <point x="465" y="56"/>
      <point x="465" y="156" type="curve" smooth="yes"/>
      <point x="465" y="244"/>
      <point x="426" y="302"/>
      <point x="338" y="302" type="curve" smooth="yes"/>
      <point x="271" y="302" type="line"/>
      <point x="271" y="528" type="line"/>
      <point x="245" y="528" type="line"/>
    </contour>
  </outline>
</glyph>
<glyph name="afii10193" format="2">
  <advance width="500"/>
  <unicode hex="045F"/>
  <anchor x="250" y="-175" name="bottom"/>
  <anchor x="250" y="528" name="top"/>
  <outline>
    <contour>
      <point x="237" y="-175" type="line"/>
      <point x="263" y="-175" type="line"/>
      <point x="263" y="15" type="line"/>
      <point x="237" y="15" type="line"/>
    </contour>
    <contour>
      <point x="85" y="528" type="line"/>
      <point x="85" y="0" type="line"/>
      <point x="415" y="0" type="line"/>
      <point x="415" y="528" type="line"/>
      <point x="389" y="528" type="line"/>
      <point x="389" y="25" type="line"/>
      <point x="111" y="25" type="line"/>
      <point x="111" y="528" type="line"/>
    </contour>
  </outline>
</glyph>
<glyph name="uni0460" format="2">
  <advance width="500"/>
  <unicode hex="0460"/>
  <anchor x="250" y="0" name="bottom"/>
  <anchor x="250" y="714" name="top"/>
  <outline>
    <contour>
      <point x="128" y="-8" type="curve"/>
      <point x="156" y="-8" type="line"/>
      <point x="246" y="442" type="line"/>
      <point x="266" y="295"/>
      <point x="299" y="142"/>
      <point x="349" y="-8" type="curve"/>
      <point x="374" y="-8" type="line"/>
      <point x="442" y="194"/>
      <point x="476" y="443"/>
      <point x="479" y="714" type="curve"/>
      <point x="452" y="714" type="line"/>
      <point x="449" y="454"/>
      <point x="413" y="207"/>
      <point x="362" y="35" type="curve"/>
      <point x="361" y="35" type="line"/>
      <point x="315" y="185"/>
      <point x="253" y="462"/>
      <point x="253" y="714" type="curve"/>
      <point x="226" y="714" type="line"/>
      <point x="227" y="656"/>
      <point x="230" y="581"/>
      <point x="237" y="515" type="curve"/>
      <point x="162" y="156" type="line" smooth="yes"/>
      <point x="150" y="97"/>
      <point x="145" y="66"/>
      <point x="140" y="39" type="curve"/>
      <point x="139" y="39" type="line"/>
      <point x="94" y="199"/>
      <point x="54" y="447"/>
      <point x="44" y="714" type="curve"/>
      <point x="17" y="714" type="line"/>
      <point x="29" y="437"/>
      <point x="67" y="196"/>
    </contour>
  </outline>
</glyph>
<glyph name="uni0467" format="2">
  <advance width="500"/>
  <unicode hex="0467"/>
  <anchor x="250" y="0" name="bottom"/>
  <anchor x="250" y="528" name="top"/>
  <outline>
    <contour>
      <point x="20" y="0" type="line"/>
      <point x="48" y="0" type="line"/>
      <point x="148" y="245" type="line"/>
      <point x="238" y="245" type="line"/>
      <point x="238" y="0" type="line"/>
      <point x="264" y="0" type="line"/>
      <point x="264" y="245" type="line"/>
      <point x="347" y="245" type="line"/>
      <point x="448" y="0" type="line"/>
      <point x="475" y="0" type="line"/>
      <point x="258" y="528" type="line"/>
      <point x="237" y="528" type="line"/>
    </contour>
    <contour>
      <point x="158" y="269" type="line"/>
      <point x="207" y="390" type="line" smooth="yes"/>
      <point x="225" y="434"/>
      <point x="234" y="459"/>
      <point x="246" y="492" type="curve"/>
      <point x="248" y="492" type="line"/>
      <point x="261" y="459"/>
      <point x="271" y="433"/>
      <point x="288" y="390" type="curve" smooth="yes"/>
      <point x="337" y="269" type="line"/>
    </contour>
  </outline>
</glyph>
<glyph name="uni046B" format="2">
  <advance width="500"/>
  <unicode hex="046B"/>
  <anchor x="250" y="0" name="bottom"/>
  <anchor x="250" y="528" name="top"/>
  <outline>
    <contour>
      <point x="27" y="0" type="line"/>
      <point x="55" y="0" type="line"/>
      <point x="106" y="160" type="line" smooth="yes"/>
      <point x="131" y="237"/>
      <point x="163" y="264"/>
      <point x="239" y="264" type="curve"/>
      <point x="239" y="0" type="line"/>
      <point x="265" y="0" type="line"/>
      <point x="265" y="264" type="line"/>
      <point x="341" y="264"/>
      <point x="372" y="238"/>
      <point x="397" y="159" type="curve" smooth="yes"/>
      <point x="447" y="0" type="line"/>
      <point x="475" y="0" type="line"/>
      <point x="425" y="156" type="line" smooth="yes"/>
      <point x="398" y="239"/>
      <point x="370" y="282"/>
      <point x="274" y="288" type="curve"/>
      <point x="411" y="501" type="line"/>
      <point x="411" y="528" type="line"/>
      <point x="89" y="528" type="line"/>
      <point x="89" y="501" type="line"/>
      <point x="229" y="288" type="line"/>
      <point x="127" y="281"/>
      <point x="105" y="239"/>
      <point x="78" y="156" type="curve" smooth="yes"/>
    </contour>
    <contour>
      <point x="252" y="298" type="line"/>
      <point x="117" y="503" type="line"/>
      <point x="384" y="503" type="line"/>
    </contour>
  </outline>
</glyph>
<glyph name="uni046E" format="2">
  <advance width="500"/>
  <unicode hex="046E"/>
  <anchor x="250" y="-187" name="bottom"/>
  <anchor x="250" y="849" name="top"/>
  <outline>
    <contour>
      <point x="409" y="-187" type="curve"/>
      <point x="409" y="-160" type="line"/>
      <point x="382" y="-149"/>
      <point x="353" y="-145"/>
      <point x="321" y="-145" type="curve" smooth="yes"/>
      <point x="268" y="-145"/>
      <point x="215" y="-155"/>
      <point x="175" y="-155" type="curve" smooth="yes"/>
      <point x="113" y="-155"/>
      <point x="69" y="-134"/>
      <point x="69" y="-86" type="curve" smooth="yes"/>
      <point x="69" y="-35"/>
      <point x="98" y="-5"/>
      <point x="214" y="-5" type="curve" smooth="yes"/>
      <point x="354" y="-5"/>
      <point x="431" y="57"/>
      <point x="431" y="192" type="curve" smooth="yes"/>
      <point x="431" y="297"/>
      <point x="382" y="356"/>
      <point x="294" y="372" type="curve"/>
      <point x="294" y="375" type="line"/>
      <point x="369" y="395"/>
      <point x="419" y="452"/>
      <point x="419" y="550" type="curve" smooth="yes"/>
      <point x="419" y="649"/>
      <point x="361" y="715"/>
      <point x="265" y="723" type="curve"/>
      <point x="295" y="774"/>
      <point x="332" y="818"/>
      <point x="372" y="818" type="curve" smooth="yes"/>
      <point x="379" y="818"/>
      <point x="392" y="817"/>
      <point x="400" y="814" type="curve"/>
      <point x="400" y="838" type="line"/>
      <point x="389" y="843"/>
      <point x="379" y="843"/>
      <point x="371" y="843" type="curve" smooth="yes"/>
      <point x="331" y="843"/>
      <point x="291" y="807"/>
      <point x="248" y="743" type="curve"/>
      <point x="215" y="786"/>
      <point x="179" y="821"/>
      <point x="144" y="849" type="curve"/>
      <point x="122" y="849" type="line"/>
      <point x="122" y="844" type="line"/>
      <point x="165" y="808"/>
      <point x="207" y="760"/>
      <point x="231" y="724" type="curve"/>
      <point x="167" y="721"/>
      <point x="120" y="696"/>
      <point x="79" y="661" type="curve"/>
      <point x="96" y="642" type="line"/>
      <point x="136" y="675"/>
      <point x="179" y="699"/>
      <point x="244" y="699" type="curve" smooth="yes"/>
      <point x="334" y="699"/>
      <point x="392" y="643"/>
      <point x="392" y="550" type="curve" smooth="yes"/>
      <point x="392" y="446"/>
      <point x="328" y="386"/>
      <point x="216" y="386" type="curve" smooth="yes"/>
      <point x="134" y="386" type="line"/>
      <point x="134" y="360" type="line"/>
      <point x="211" y="360" type="line" smooth="yes"/>
      <point x="340" y="360"/>
      <point x="404" y="306"/>
      <point x="404" y="192" type="curve" smooth="yes"/>
      <point x="404" y="78"/>
      <point x="345" y="20"/>
      <point x="214" y="20" type="curve" smooth="yes"/>
      <point x="82" y="20"/>
      <point x="42" y="-24"/>
      <point x="42" y="-87" type="curve" smooth="yes"/>
      <point x="42" y="-159"/>
      <point x="110" y="-180"/>
      <point x="174" y="-180" type="curve" smooth="yes"/>
      <point x="215" y="-180"/>
      <point x="268" y="-170"/>
      <point x="321" y="-170" type="curve" smooth="yes"/>
      <point x="354" y="-170"/>
      <point x="386" y="-175"/>
    </contour>
  </outline>
</glyph>
<glyph name="uni0473" format="2">
  <advance width="500"/>
  <unicode hex="0473"/>
  <anchor x="250" y="0" name="bottom"/>
  <anchor x="250" y="528" name="top"/>
  <anchor x="251" y="15" name="ogonek"/>
  <anchor x="480" y="528" name="topright"/>
  <anchor x="250" y="264" name="center"/>
  <outline>
    <contour>
      <point x="73" y="256" type="line"/>
      <point x="426" y="256" type="line"/>
      <point x="426" y="281" type="line"/>
      <point x="73" y="281" type="line"/>
    </contour>
    <component base="o"/>
  </outline>
</glyph>
<glyph name="uni0474" format="2">
  <advance width="500"/>
  <unicode hex="0474"/>
  <anchor x="230" y="0" name="bottom"/>
  <anchor x="250" y="714" name="top"/>
  <outline>
    <contour>
      <point x="212" y="0" type="line"/>
      <point x="245" y="0" type="line"/>
      <point x="384" y="567" type="line" smooth="yes"/>
      <point x="402" y="639"/>
      <point x="413" y="696"/>
      <point x="456" y="696" type="curve" smooth="yes"/>
      <point x="464" y="696"/>
      <point x="475" y="694"/>
      <point x="486" y="690" type="curve"/>
      <point x="486" y="715" type="line"/>
      <point x="477" y="719"/>
      <point x="469" y="721"/>
      <point x="456" y="721" type="curve" smooth="yes"/>
      <point x="402" y="721"/>
      <point x="386" y="690"/>
      <point x="357" y="570" type="curve" smooth="yes"/>
      <point x="254" y="149" type="line" smooth="yes"/>
      <point x="243" y="103"/>
      <point x="237" y="74"/>
      <point x="229" y="35" type="curve"/>
      <point x="220" y="83"/>
      <point x="217" y="94"/>
      <point x="195" y="185" type="curve" smooth="yes"/>
      <point x="67" y="714" type="line"/>
      <point x="40" y="714" type="line"/>
    </contour>
  </outline>
</glyph>
<glyph name="uni0475" format="2">
  <advance width="500"/>
  <unicode hex="0475"/>
  <anchor x="221" y="0" name="bottom"/>
  <anchor x="220" y="528" name="top"/>
  <outline>
    <contour>
      <point x="209" y="0" type="line"/>
      <point x="231" y="0" type="line"/>
      <point x="385" y="417" type="line" smooth="yes"/>
      <point x="411" y="486"/>
      <point x="433" y="518"/>
      <point x="469" y="518" type="curve" smooth="yes"/>
      <point x="479" y="518"/>
      <point x="488" y="517"/>
      <point x="497" y="514" type="curve"/>
      <point x="497" y="537" type="line"/>
      <point x="490" y="540"/>
      <point x="482" y="541"/>
      <point x="471" y="541" type="curve" smooth="yes"/>
      <point x="423" y="541"/>
      <point x="397" y="516"/>
      <point x="363" y="425" type="curve" smooth="yes"/>
      <point x="255" y="133" type="line" smooth="yes"/>
      <point x="241" y="94"/>
      <point x="231" y="65"/>
      <point x="221" y="36" type="curve"/>
      <point x="219" y="36" type="line"/>
      <point x="209" y="65"/>
      <point x="196" y="98"/>
      <point x="180" y="138" type="curve" smooth="yes"/>
      <point x="26" y="528" type="line"/>
      <point x="0" y="528" type="line"/>
    </contour>
  </outline>
</glyph>
<glyph name="dasiapneumatacomb.cy" format="2">
  <unicode hex="0485"/>
  <anchor x="0" y="527" name="_top"/>
  <anchor x="0" y="770" name="top"/>
  <outline>
    <contour>
      <point x="40" y="612" type="curve"/>
      <point x="40" y="635" type="line"/>
      <point x="7" y="648"/>
      <point x="-11" y="667"/>
      <point x="-11" y="690" type="curve" smooth="yes"/>
      <point x="-11" y="720"/>
      <point x="26" y="714"/>
      <point x="26" y="743" type="curve" smooth="yes"/>
      <point x="26" y="759"/>
      <point x="16" y="770"/>
      <point x="0" y="770" type="curve" smooth="yes"/>
      <point x="-25" y="770"/>
      <point x="-41" y="748"/>
      <point x="-41" y="715" type="curve" smooth="yes"/>
      <point x="-41" y="665"/>
      <point x="-16" y="634"/>
    </contour>
  </outline>
</glyph>
<glyph name="uni0488" format="2">
  <unicode hex="0488"/>
  <outline>
    <contour>
      <point x="-72" y="586" type="curve"/>
      <point x="-56" y="586" type="line"/>
      <point x="-51" y="622"/>
      <point x="-31" y="640"/>
      <point x="0" y="640" type="curve" smooth="yes"/>
      <point x="28" y="640"/>
      <point x="49" y="618"/>
      <point x="54" y="586" type="curve"/>
      <point x="71" y="586" type="line"/>
      <point x="66" y="632"/>
      <point x="40" y="658"/>
      <point x="0" y="658" type="curve" smooth="yes"/>
      <point x="-44" y="658"/>
      <point x="-66" y="635"/>
    </contour>
    <contour>
      <point x="61" y="440" type="curve"/>
      <point x="76" y="440" type="line"/>
      <point x="81" y="476"/>
      <point x="99" y="493"/>
      <point x="131" y="493" type="curve" smooth="yes"/>
      <point x="159" y="493"/>
      <point x="180" y="472"/>
      <point x="186" y="440" type="curve"/>
      <point x="204" y="440" type="line"/>
      <point x="199" y="485"/>
      <point x="172" y="512"/>
      <point x="131" y="512" type="curve" smooth="yes"/>
      <point x="87" y="512"/>
      <point x="64" y="488"/>
    </contour>
    <contour>
      <point x="109" y="243" type="curve"/>
      <point x="125" y="243" type="line"/>
      <point x="130" y="279"/>
      <point x="148" y="297"/>
      <point x="180" y="297" type="curve" smooth="yes"/>
      <point x="208" y="297"/>
      <point x="229" y="275"/>
      <point x="234" y="243" type="curve"/>
      <point x="252" y="243" type="line"/>
      <point x="248" y="288"/>
      <point x="220" y="315"/>
      <point x="180" y="315" type="curve" smooth="yes"/>
      <point x="137" y="315"/>
      <point x="115" y="292"/>
    </contour>
    <contour>
      <point x="61" y="42" type="curve"/>
      <point x="76" y="42" type="line"/>
      <point x="81" y="78"/>
      <point x="99" y="95"/>
      <point x="131" y="95" type="curve" smooth="yes"/>
      <point x="159" y="95"/>
      <point x="180" y="73"/>
      <point x="186" y="42" type="curve"/>
      <point x="204" y="42" type="line"/>
      <point x="199" y="88"/>
      <point x="173" y="113"/>
      <point x="131" y="113" type="curve" smooth="yes"/>
      <point x="87" y="113"/>
      <point x="64" y="90"/>
    </contour>
    <contour>
      <point x="-72" y="-102" type="curve"/>
      <point x="-56" y="-102" type="line"/>
      <point x="-51" y="-67"/>
      <point x="-31" y="-48"/>
      <point x="0" y="-48" type="curve" smooth="yes"/>
      <point x="28" y="-48"/>
      <point x="49" y="-70"/>
      <point x="54" y="-102" type="curve"/>
      <point x="71" y="-102" type="line"/>
      <point x="67" y="-57"/>
      <point x="40" y="-30"/>
      <point x="0" y="-30" type="curve" smooth="yes"/>
      <point x="-42" y="-30"/>
      <point x="-66" y="-54"/>
    </contour>
    <contour>
      <point x="-209" y="42" type="curve"/>
      <point x="-192" y="42" type="line"/>
      <point x="-187" y="78"/>
      <point x="-169" y="95"/>
      <point x="-138" y="95" type="curve" smooth="yes"/>
      <point x="-110" y="95"/>
      <point x="-88" y="74"/>
      <point x="-82" y="42" type="curve"/>
      <point x="-65" y="42" type="line"/>
      <point x="-70" y="88"/>
      <point x="-96" y="113"/>
      <point x="-138" y="113" type="curve" smooth="yes"/>
      <point x="-181" y="113"/>
      <point x="-205" y="90"/>
    </contour>
    <contour>
      <point x="-253" y="243" type="curve"/>
      <point x="-236" y="243" type="line"/>
      <point x="-231" y="279"/>
      <point x="-213" y="297"/>
      <point x="-182" y="297" type="curve" smooth="yes"/>
      <point x="-152" y="297"/>
      <point x="-131" y="276"/>
      <point x="-127" y="243" type="curve"/>
      <point x="-109" y="243" type="line"/>
      <point x="-114" y="289"/>
      <point x="-141" y="315"/>
      <point x="-182" y="315" type="curve" smooth="yes"/>
      <point x="-225" y="315"/>
      <point x="-249" y="291"/>
    </contour>
    <contour>
      <point x="-209" y="440" type="curve"/>
      <point x="-192" y="440" type="line"/>
      <point x="-187" y="476"/>
      <point x="-169" y="493"/>
      <point x="-138" y="493" type="curve" smooth="yes"/>
      <point x="-110" y="493"/>
      <point x="-88" y="472"/>
      <point x="-82" y="440" type="curve"/>
      <point x="-65" y="440" type="line"/>
      <point x="-70" y="485"/>
      <point x="-97" y="512"/>
      <point x="-138" y="512" type="curve" smooth="yes"/>
      <point x="-181" y="512"/>
      <point x="-205" y="488"/>
    </contour>
  </outline>
</glyph>
<glyph name="uni048C" format="2">
  <advance width="500"/>
  <unicode hex="048C"/>
  <anchor x="250" y="0" name="bottom"/>
  <anchor x="109" y="714" name="top"/>
  <outline>
    <contour>
      <point x="0" y="569" type="line"/>
      <point x="279" y="569" type="line"/>
      <point x="279" y="594" type="line"/>
      <point x="0" y="594" type="line"/>
    </contour>
    <component base="afii10046"/>
  </outline>
</glyph>
<glyph name="afii10050" format="2">
  <advance width="500"/>
  <unicode hex="0490"/>
  <anchor x="250" y="0" name="bottom"/>
  <anchor x="250" y="861" name="top"/>
  <outline>
    <contour>
      <point x="379" y="689" type="line"/>
      <point x="405" y="689" type="line"/>
      <point x="405" y="861" type="line"/>
      <point x="379" y="861" type="line"/>
    </contour>
    <component base="Gamma"/>
  </outline>
</glyph>
<glyph name="uni0492" format="2">
  <advance width="500"/>
  <unicode hex="0492"/>
  <anchor x="250" y="0" name="bottom"/>
  <anchor x="250" y="714" name="top"/>
  <anchor x="480" y="0" name="bottomright"/>
  <outline>
    <contour>
      <point x="15" y="350" type="line"/>
      <point x="293" y="350" type="line"/>
      <point x="293" y="375" type="line"/>
      <point x="15" y="375" type="line"/>
    </contour>
    <component base="afii10020"/>
  </outline>
</glyph>
<glyph name="uni0495" format="2">
  <advance width="500"/>
  <unicode hex="0495"/>
  <anchor x="250" y="-242" name="bottom"/>
  <anchor x="250" y="528" name="top"/>
  <outline>
    <contour>
      <point x="248" y="-242" type="curve" smooth="yes"/>
      <point x="357" y="-242"/>
      <point x="422" y="-150"/>
      <point x="422" y="25" type="curve" smooth="yes"/>
      <point x="422" y="213"/>
      <point x="353" y="313"/>
      <point x="219" y="313" type="curve" smooth="yes"/>
      <point x="180" y="313"/>
      <point x="150" y="305"/>
      <point x="127" y="294" type="curve"/>
      <point x="127" y="502" type="line"/>
      <point x="342" y="502" type="line"/>
      <point x="342" y="527" type="line"/>
      <point x="101" y="527" type="line"/>
      <point x="101" y="0" type="line"/>
      <point x="127" y="0" type="line"/>
      <point x="127" y="267" type="line"/>
      <point x="148" y="278"/>
      <point x="177" y="287"/>
      <point x="216" y="287" type="curve" smooth="yes"/>
      <point x="335" y="287"/>
      <point x="395" y="198"/>
      <point x="395" y="27" type="curve" smooth="yes"/>
      <point x="395" y="-127"/>
      <point x="340" y="-217"/>
      <point x="246" y="-217" type="curve" smooth="yes"/>
      <point x="199" y="-217"/>
      <point x="172" y="-205"/>
      <point x="142" y="-183" type="curve"/>
      <point x="142" y="-213" type="line"/>
      <point x="164" y="-230"/>
      <point x="196" y="-242"/>
    </contour>
  </outline>
</glyph>
<glyph name="uni049A" format="2">
  <advance width="500"/>
  <unicode hex="049A"/>
  <anchor x="250" y="-174" name="bottom"/>
  <anchor x="250" y="714" name="top"/>
  <anchor x="480" y="0" name="bottomright"/>
  <outline>
    <contour>
      <point x="424" y="-175" type="line"/>
      <point x="450" y="-175" type="line"/>
      <point x="450" y="25" type="line"/>
      <point x="401" y="25" type="line"/>
      <point x="424" y="0" type="line"/>
    </contour>
    <component base="afii10028"/>
  </outline>
</glyph>
<glyph name="uni049E" format="2">
  <advance width="500"/>
  <unicode hex="049E"/>
  <anchor x="250" y="0" name="bottom"/>
  <anchor x="250" y="714" name="top"/>
  <anchor x="480" y="0" name="bottomright"/>
  <outline>
    <contour>
      <point x="3" y="589" type="line"/>
      <point x="199" y="589" type="line"/>
      <point x="199" y="614" type="line"/>
      <point x="3" y="614" type="line"/>
    </contour>
    <component base="afii10028"/>
  </outline>
</glyph>
<glyph name="uni049F" format="2">
  <advance width="500"/>
  <unicode hex="049F"/>
  <anchor x="250" y="0" name="bottom"/>
  <anchor x="250" y="760" name="top"/>
  <outline>
    <contour>
      <point x="121" y="0" type="line"/>
      <point x="147" y="0" type="line"/>
      <point x="147" y="266" type="line"/>
      <point x="424" y="0" type="line"/>
      <point x="460" y="0" type="line"/>
      <point x="180" y="269" type="line"/>
      <point x="448" y="527" type="line"/>
      <point x="411" y="527" type="line"/>
      <point x="147" y="270" type="line"/>
      <point x="147" y="630" type="line"/>
      <point x="300" y="630" type="line"/>
      <point x="300" y="655" type="line"/>
      <point x="147" y="655" type="line"/>
      <point x="147" y="760" type="line"/>
      <point x="121" y="760" type="line"/>
      <point x="121" y="655" type="line"/>
      <point x="31" y="655" type="line"/>
      <point x="31" y="630" type="line"/>
      <point x="121" y="630" type="line"/>
    </contour>
  </outline>
</glyph>
<glyph name="uni04A0" format="2">
  <advance width="500"/>
  <unicode hex="04A0"/>
  <anchor x="250" y="0" name="bottom"/>
  <anchor x="250" y="714" name="top"/>
  <outline>
    <contour>
      <point x="154" y="0" type="line"/>
      <point x="180" y="0" type="line"/>
      <point x="180" y="372" type="line"/>
      <point x="428" y="0" type="line"/>
      <point x="459" y="0" type="line"/>
      <point x="210" y="375" type="line"/>
      <point x="441" y="714" type="line"/>
      <point x="411" y="714" type="line"/>
      <point x="180" y="375" type="line"/>
      <point x="180" y="714" type="line"/>
      <point x="25" y="714" type="line"/>
      <point x="25" y="689" type="line"/>
      <point x="154" y="689" type="line"/>
    </contour>
  </outline>
</glyph>
